<?xml version="1.0" encoding="utf-8"?>
<!-- Generator: Adobe Illustrator 16.0.4, SVG Export Plug-In . SVG Version: 6.00 Build 0)  -->
<!DOCTYPE svg PUBLIC "-//W3C//DTD SVG 1.1//EN" "http://www.w3.org/Graphics/SVG/1.1/DTD/svg11.dtd">
<svg version="1.1" id="Layer_1" xmlns="http://www.w3.org/2000/svg" xmlns:xlink="http://www.w3.org/1999/xlink" x="0px" y="0px"
width="1000px"
height="1000px"
viewBox="0 0 1000 1000" enable-background="new 0 0 1000 1000"
xml:space="preserve">

<polygon fill="#45FF28" points="100,300 162.5,205.469 162.5,425.781"/>
<polygon fill="#45FF28" points="162.5,205.469 162.5,425.781 275,137.5"/>
<polygon fill="#45FF28" points="162.5,425.781 275,137.5 275,550"/>
<polygon fill="#45FF28" points="275,137.5 275,550 550,412.5"/>
<polygon fill="#45FF28" points="275,137.5 395.312,89.0625 550,412.5"/>
<polygon fill="#45FF28" points="275,550 395.312,658.594 550,412.5"/>
<polygon fill="#45FF28" points="395.312,89.0625 500,100 542.188,235.938"/>
<polygon fill="#45FF28" points="395.312,89.0625 542.188,235.938 550,412.5"/>
<polygon fill="#45FF28" points="395.312,658.594 500,700 542.188,585.156"/>
<polygon fill="#45FF28" points="395.312,658.594 542.188,585.156 550,412.5"/>

</svg>