<?xml version="1.0" encoding="utf-8"?>
<!-- Generator: Adobe Illustrator 16.0.4, SVG Export Plug-In . SVG Version: 6.00 Build 0)  -->
<!DOCTYPE svg PUBLIC "-//W3C//DTD SVG 1.1//EN" "http://www.w3.org/Graphics/SVG/1.1/DTD/svg11.dtd">
<svg version="1.1" id="Layer_1" xmlns="http://www.w3.org/2000/svg" xmlns:xlink="http://www.w3.org/1999/xlink" x="0px" y="0px"
width="1000px"
height="1000px"
viewBox="0 0 1000 1000" enable-background="new 0 0 1000 1000"
xml:space="preserve">

<polygon fill="#45FF28" points="100,300 101.855,286.406 101.855,314.522"/>
<polygon fill="#45FF28" points="101.855,286.406 101.855,314.522 106.25,273.474"/>
<polygon fill="#45FF28" points="101.855,314.522 106.25,273.474 106.25,329.651"/>
<polygon fill="#45FF28" points="106.25,273.474 106.25,329.651 112.48,261.059"/>
<polygon fill="#45FF28" points="106.25,329.651 112.48,261.059 120.312,249.121"/>
<polygon fill="#45FF28" points="106.25,329.651 112.48,345.181 120.312,249.121"/>
<polygon fill="#45FF28" points="112.48,345.181 120.312,249.121 120.312,361.035"/>
<polygon fill="#45FF28" points="120.312,249.121 120.312,361.035 129.284,237.557"/>
<polygon fill="#45FF28" points="120.312,361.035 129.284,237.557 139.386,226.419"/>
<polygon fill="#45FF28" points="120.312,361.035 129.284,377.084 162.5,205.469"/>
<polygon fill="#45FF28" points="120.312,361.035 139.386,226.419 150.559,215.726"/>
<polygon fill="#45FF28" points="120.312,361.035 150.559,215.726 162.5,205.469"/>
<polygon fill="#45FF28" points="129.284,377.084 139.386,393.274 162.5,205.469"/>
<polygon fill="#45FF28" points="139.386,393.274 150.559,409.554 162.5,205.469"/>
<polygon fill="#45FF28" points="150.559,409.554 162.5,205.469 162.5,425.781"/>
<polygon fill="#45FF28" points="162.5,205.469 162.5,425.781 174.837,195.654"/>
<polygon fill="#45FF28" points="162.5,425.781 174.837,195.654 187.714,186.252"/>
<polygon fill="#45FF28" points="162.5,425.781 174.837,441.765 275,137.5"/>
<polygon fill="#45FF28" points="162.5,425.781 187.714,186.252 201.162,177.229"/>
<polygon fill="#45FF28" points="162.5,425.781 201.162,177.229 215.137,168.604"/>
<polygon fill="#45FF28" points="162.5,425.781 215.137,168.604 229.664,160.425"/>
<polygon fill="#45FF28" points="162.5,425.781 229.664,160.425 244.568,152.57"/>
<polygon fill="#45FF28" points="162.5,425.781 244.568,152.57 259.727,144.99"/>
<polygon fill="#45FF28" points="162.5,425.781 259.727,144.99 275,137.5"/>
<polygon fill="#45FF28" points="174.837,441.765 187.714,457.605 275,137.5"/>
<polygon fill="#45FF28" points="187.714,457.605 201.162,473.352 275,137.5"/>
<polygon fill="#45FF28" points="201.162,473.352 215.137,488.965 275,137.5"/>
<polygon fill="#45FF28" points="215.137,488.965 229.664,504.407 275,137.5"/>
<polygon fill="#45FF28" points="229.664,504.407 244.568,519.714 275,137.5"/>
<polygon fill="#45FF28" points="244.568,519.714 259.727,534.874 275,137.5"/>
<polygon fill="#45FF28" points="259.727,534.874 275,137.5 275,550"/>
<polygon fill="#45FF28" points="275,137.5 275,550 550,412.5"/>
<polygon fill="#45FF28" points="275,137.5 290.175,129.766 550,412.5"/>
<polygon fill="#45FF28" points="275,550 290.175,565.321 550,412.5"/>
<polygon fill="#45FF28" points="290.175,129.766 305.334,122.186 550,412.5"/>
<polygon fill="#45FF28" points="290.175,565.321 305.334,580.481 550,412.5"/>
<polygon fill="#45FF28" points="305.334,122.186 320.507,115.004 550,412.5"/>
<polygon fill="#45FF28" points="305.334,580.481 320.507,595.25 550,412.5"/>
<polygon fill="#45FF28" points="320.507,115.004 335.645,108.35 550,412.5"/>
<polygon fill="#45FF28" points="320.507,595.25 335.645,609.473 550,412.5"/>
<polygon fill="#45FF28" points="335.645,108.35 350.711,102.454 550,412.5"/>
<polygon fill="#45FF28" points="335.645,609.473 350.711,622.902 550,412.5"/>
<polygon fill="#45FF28" points="350.711,102.454 365.692,97.2626 550,412.5"/>
<polygon fill="#45FF28" points="350.711,622.902 365.692,635.583 550,412.5"/>
<polygon fill="#45FF28" points="365.692,97.2626 380.544,92.8005 550,412.5"/>
<polygon fill="#45FF28" points="365.692,635.583 380.544,647.472 550,412.5"/>
<polygon fill="#45FF28" points="380.544,92.8005 395.312,89.0625 550,412.5"/>
<polygon fill="#45FF28" points="380.544,647.472 395.312,658.594 550,412.5"/>
<polygon fill="#45FF28" points="395.312,89.0625 410.111,85.9501 542.188,235.938"/>
<polygon fill="#45FF28" points="395.312,89.0625 542.188,235.938 544.618,256.874"/>
<polygon fill="#45FF28" points="395.312,89.0625 544.618,256.874 546.594,278.165"/>
<polygon fill="#45FF28" points="395.312,89.0625 546.594,278.165 548.127,299.869"/>
<polygon fill="#45FF28" points="395.312,89.0625 548.127,299.869 549.219,321.924"/>
<polygon fill="#45FF28" points="395.312,89.0625 549.219,321.924 549.828,344.325"/>
<polygon fill="#45FF28" points="395.312,89.0625 549.828,344.325 550.098,366.949"/>
<polygon fill="#45FF28" points="395.312,89.0625 550,412.5 550.098,389.689"/>
<polygon fill="#45FF28" points="395.312,89.0625 550.098,366.949 550.098,389.689"/>
<polygon fill="#45FF28" points="395.312,658.594 410.111,669.106 542.188,585.156"/>
<polygon fill="#45FF28" points="395.312,658.594 542.188,585.156 544.618,565.435"/>
<polygon fill="#45FF28" points="395.312,658.594 544.618,565.435 546.594,545.132"/>
<polygon fill="#45FF28" points="395.312,658.594 546.594,545.132 548.127,524.194"/>
<polygon fill="#45FF28" points="395.312,658.594 548.127,524.194 549.219,502.686"/>
<polygon fill="#45FF28" points="395.312,658.594 549.219,502.686 549.828,480.589"/>
<polygon fill="#45FF28" points="395.312,658.594 549.828,480.589 550.098,458.099"/>
<polygon fill="#45FF28" points="395.312,658.594 550,412.5 550.098,435.36"/>
<polygon fill="#45FF28" points="395.312,658.594 550.098,435.36 550.098,458.099"/>
<polygon fill="#45FF28" points="410.111,85.9501 424.689,83.7677 542.188,235.938"/>
<polygon fill="#45FF28" points="410.111,669.106 424.689,678.577 542.188,585.156"/>
<polygon fill="#45FF28" points="424.689,83.7677 438.849,82.7745 542.188,235.938"/>
<polygon fill="#45FF28" points="424.689,678.577 438.849,686.65 542.188,585.156"/>
<polygon fill="#45FF28" points="438.849,82.7745 452.539,83.0078 542.188,235.938"/>
<polygon fill="#45FF28" points="438.849,686.65 452.539,693.262 542.188,585.156"/>
<polygon fill="#45FF28" points="452.539,83.0078 465.719,84.4389 527.148,157.617"/>
<polygon fill="#45FF28" points="452.539,83.0078 527.148,157.617 531.867,175.793"/>
<polygon fill="#45FF28" points="452.539,83.0078 531.867,175.793 535.925,195.004"/>
<polygon fill="#45FF28" points="452.539,83.0078 535.925,195.004 539.33,215.168"/>
<polygon fill="#45FF28" points="452.539,83.0078 539.33,215.168 542.188,235.938"/>
<polygon fill="#45FF28" points="452.539,693.262 465.719,698.421 527.148,655.957"/>
<polygon fill="#45FF28" points="452.539,693.262 527.148,655.957 531.867,640.141"/>
<polygon fill="#45FF28" points="452.539,693.262 531.867,640.141 535.925,622.958"/>
<polygon fill="#45FF28" points="452.539,693.262 535.925,622.958 539.33,604.496"/>
<polygon fill="#45FF28" points="452.539,693.262 539.33,604.496 542.188,585.156"/>
<polygon fill="#45FF28" points="465.719,84.4389 478.149,87.5244 527.148,157.617"/>
<polygon fill="#45FF28" points="465.719,698.421 478.149,701.55 527.148,655.957"/>
<polygon fill="#45FF28" points="478.149,87.5244 489.7,92.4835 515.601,124.976"/>
<polygon fill="#45FF28" points="478.149,87.5244 515.601,124.976 521.801,140.521"/>
<polygon fill="#45FF28" points="478.149,87.5244 521.801,140.521 527.148,157.617"/>
<polygon fill="#45FF28" points="478.149,701.55 489.7,702.367 515.601,682.825"/>
<polygon fill="#45FF28" points="478.149,701.55 515.601,682.825 521.801,670.38"/>
<polygon fill="#45FF28" points="478.149,701.55 521.801,670.38 527.148,655.957"/>
<polygon fill="#45FF28" points="489.7,92.4835 500,100 508.444,111.227"/>
<polygon fill="#45FF28" points="489.7,92.4835 508.444,111.227 515.601,124.976"/>
<polygon fill="#45FF28" points="489.7,702.367 500,700 508.444,692.995"/>
<polygon fill="#45FF28" points="489.7,702.367 508.444,692.995 515.601,682.825"/>

</svg>