<?xml version="1.0" encoding="utf-8"?>
<!-- Generator: Adobe Illustrator 16.0.4, SVG Export Plug-In . SVG Version: 6.00 Build 0)  -->
<!DOCTYPE svg PUBLIC "-//W3C//DTD SVG 1.1//EN" "http://www.w3.org/Graphics/SVG/1.1/DTD/svg11.dtd">
<svg version="1.1" id="Layer_1" xmlns="http://www.w3.org/2000/svg" xmlns:xlink="http://www.w3.org/1999/xlink" x="0px" y="0px"
width="1000px"
height="1000px"
viewBox="0 0 1000 1000" enable-background="new 0 0 1000 1000"
xml:space="preserve">

<polygon fill="#45FF28" points="100,300 106.25,273.474 106.25,329.651"/>
<polygon fill="#45FF28" points="106.25,273.474 106.25,329.651 120.312,249.121"/>

<polygon fill="#45FF28" points="106.25,329.651 120.312,249.121 120.312,361.035"/>
<polygon fill="#45FF28" points="120.312,249.121 120.312,361.035 139.386,226.419"/>
<polygon fill="#45FF28" points="120.312,361.035 139.386,226.419 162.5,205.469"/>

<polygon fill="#45FF28" points="120.312,361.035 139.386,393.274 162.5,205.469"/>

<polygon fill="#45FF28" points="139.386,393.274 162.5,205.469 162.5,425.781"/>
<polygon fill="#45FF28" points="162.5,205.469 162.5,425.781 187.714,186.252"/>
<polygon fill="#45FF28" points="162.5,425.781 187.714,186.252 215.137,168.604"/>

<polygon fill="#45FF28" points="162.5,425.781 187.714,457.605 275,137.5"/>
<polygon fill="#45FF28" points="162.5,425.781 215.137,168.604 244.568,152.57"/>
<polygon fill="#45FF28" points="162.5,425.781 244.568,152.57 275,137.5"/>
<polygon fill="#45FF28" points="187.714,457.605 215.137,488.965 275,137.5"/>
<polygon fill="#45FF28" points="215.137,488.965 244.568,519.714 275,137.5"/>
<polygon fill="#45FF28" points="244.568,519.714 275,137.5 275,550"/>
<polygon fill="#45FF28" points="275,137.5 275,550 550,412.5"/>
<polygon fill="#45FF28" points="275,137.5 305.334,122.186 550,412.5"/>
<polygon fill="#45FF28" points="275,550 305.334,580.481 550,412.5"/>
<polygon fill="#45FF28" points="305.334,122.186 335.645,108.35 550,412.5"/>
<polygon fill="#45FF28" points="305.334,580.481 335.645,609.473 550,412.5"/>
<polygon fill="#45FF28" points="335.645,108.35 365.692,97.2626 550,412.5"/>
<polygon fill="#45FF28" points="335.645,609.473 365.692,635.583 550,412.5"/>
<polygon fill="#45FF28" points="365.692,97.2626 395.312,89.0625 550,412.5"/>
<polygon fill="#45FF28" points="365.692,635.583 395.312,658.594 550,412.5"/>
<polygon fill="#45FF28" points="395.312,89.0625 424.689,83.7677 542.188,235.938"/>
<polygon fill="#45FF28" points="395.312,89.0625 542.188,235.938 546.594,278.165"/>
<polygon fill="#45FF28" points="395.312,89.0625 546.594,278.165 549.219,321.924"/>
<polygon fill="#45FF28" points="395.312,89.0625 549.219,321.924 550.098,366.949"/>
<polygon fill="#45FF28" points="395.312,89.0625 550,412.5 550.098,366.949"/>
<polygon fill="#45FF28" points="395.312,658.594 424.689,678.577 542.188,585.156"/>
<polygon fill="#45FF28" points="395.312,658.594 542.188,585.156 546.594,545.132"/>
<polygon fill="#45FF28" points="395.312,658.594 546.594,545.132 549.219,502.686"/>
<polygon fill="#45FF28" points="395.312,658.594 549.219,502.686 550.098,458.099"/>
<polygon fill="#45FF28" points="395.312,658.594 550,412.5 550.098,458.099"/>
<polygon fill="#45FF28" points="424.689,83.7677 452.539,83.0078 542.188,235.938"/>
<polygon fill="#45FF28" points="424.689,678.577 452.539,693.262 542.188,585.156"/>
<polygon fill="#45FF28" points="452.539,83.0078 478.149,87.5244 527.148,157.617"/>
<polygon fill="#45FF28" points="452.539,83.0078 527.148,157.617 535.925,195.004"/>
<polygon fill="#45FF28" points="452.539,83.0078 535.925,195.004 542.188,235.938"/>
<polygon fill="#45FF28" points="452.539,693.262 478.149,701.55 527.148,655.957"/>
<polygon fill="#45FF28" points="452.539,693.262 527.148,655.957 535.925,622.958"/>
<polygon fill="#45FF28" points="452.539,693.262 535.925,622.958 542.188,585.156"/>
<polygon fill="#45FF28" points="478.149,87.5244 500,100 515.601,124.976"/>
<polygon fill="#45FF28" points="478.149,87.5244 515.601,124.976 527.148,157.617"/>
<polygon fill="#45FF28" points="478.149,701.55 500,700 515.601,682.825"/>
<polygon fill="#45FF28" points="478.149,701.55 515.601,682.825 527.148,655.957"/>
</svg>