<?xml version="1.0" encoding="utf-8"?>
<!-- Generator: Adobe Illustrator 16.0.4, SVG Export Plug-In . SVG Version: 6.00 Build 0)  -->
<!DOCTYPE svg PUBLIC "-//W3C//DTD SVG 1.1//EN" "http://www.w3.org/Graphics/SVG/1.1/DTD/svg11.dtd">
<svg version="1.1" id="Layer_1" xmlns="http://www.w3.org/2000/svg" xmlns:xlink="http://www.w3.org/1999/xlink" x="0px" y="0px"
width="1000px"
height="1000px"
viewBox="0 0 1000 1000" enable-background="new 0 0 1000 1000"
xml:space="preserve">

<polygon fill="#45FF28" points="100,300 120.312,249.121 120.312,361.035"/>
<polygon fill="#45FF28" points="120.312,249.121 120.312,361.035 162.5,205.469"/>

<polygon fill="#45FF28" points="120.312,361.035 162.5,205.469 162.5,425.781"/>
<polygon fill="#45FF28" points="162.5,205.469 162.5,425.781 215.137,168.604"/>
<polygon fill="#45FF28" points="162.5,425.781 215.137,168.604 275,137.5"/>
<polygon fill="#45FF28" points="162.5,425.781 215.137,488.965 275,137.5"/>
<polygon fill="#45FF28" points="215.137,488.965 275,137.5 275,550"/>
<polygon fill="#45FF28" points="275,137.5 275,550 550,412.5"/>
<polygon fill="#45FF28" points="275,137.5 335.645,108.35 550,412.5"/>
<polygon fill="#45FF28" points="275,550 335.645,609.473 550,412.5"/>
<polygon fill="#45FF28" points="335.645,108.35 395.312,89.0625 550,412.5"/>
<polygon fill="#45FF28" points="335.645,609.473 395.312,658.594 550,412.5"/>
<polygon fill="#45FF28" points="395.312,89.0625 452.539,83.0078 542.188,235.938"/>
<polygon fill="#45FF28" points="395.312,89.0625 542.188,235.938 549.219,321.924"/>
<polygon fill="#45FF28" points="395.312,89.0625 549.219,321.924 550,412.5"/>
<polygon fill="#45FF28" points="395.312,658.594 452.539,693.262 542.188,585.156"/>
<polygon fill="#45FF28" points="395.312,658.594 542.188,585.156 549.219,502.686"/>
<polygon fill="#45FF28" points="395.312,658.594 549.219,502.686 550,412.5"/>
<polygon fill="#45FF28" points="452.539,83.0078 500,100 527.148,157.617"/>
<polygon fill="#45FF28" points="452.539,83.0078 527.148,157.617 542.188,235.938"/>
<polygon fill="#45FF28" points="452.539,693.262 500,700 527.148,655.957"/>
<polygon fill="#45FF28" points="452.539,693.262 527.148,655.957 542.188,585.156"/>

</svg>