<?xml version="1.0" encoding="utf-8"?>
<!-- Generator: Adobe Illustrator 16.0.4, SVG Export Plug-In . SVG Version: 6.00 Build 0)  -->
<!DOCTYPE svg PUBLIC "-//W3C//DTD SVG 1.1//EN" "http://www.w3.org/Graphics/SVG/1.1/DTD/svg11.dtd">
<svg version="1.1" id="Layer_1" xmlns="http://www.w3.org/2000/svg" xmlns:xlink="http://www.w3.org/1999/xlink" x="0px" y="0px"
width="1000px"
height="1000px"
viewBox="0 0 1000 1000" enable-background="new 0 0 1000 1000"
xml:space="preserve">

<polygon fill="#45FF28" points="100,300 100.537,293.104 100.537,307.165"/>
<polygon fill="#45FF28" points="100.537,293.104 100.537,307.165 101.855,286.406"/>
<polygon fill="#45FF28" points="100.537,307.165 101.855,286.406 101.855,314.522"/>
<polygon fill="#45FF28" points="101.855,286.406 101.855,314.522 103.779,279.866"/>
<polygon fill="#45FF28" points="101.855,314.522 103.779,279.866 106.25,273.474"/>
<polygon fill="#45FF28" points="101.855,314.522 103.779,322.023 106.25,273.474"/>
<polygon fill="#45FF28" points="103.779,322.023 106.25,273.474 106.25,329.651"/>
<polygon fill="#45FF28" points="106.25,273.474 106.25,329.651 109.15,267.204"/>
<polygon fill="#45FF28" points="106.25,329.651 109.15,267.204 112.48,261.059"/>
<polygon fill="#45FF28" points="106.25,329.651 109.15,337.371 120.312,249.121"/>

<polygon fill="#45FF28" points="106.25,329.651 112.48,261.059 116.225,255.037"/>

<polygon fill="#45FF28" points="106.25,329.651 116.225,255.037 120.312,249.121"/>
<polygon fill="#45FF28" points="109.15,337.371 112.48,345.181 120.312,249.121"/>

<polygon fill="#45FF28" points="112.48,345.181 116.225,353.076 120.312,249.121"/>
<polygon fill="#45FF28" points="116.225,353.076 120.312,249.121 120.312,361.035"/>
<polygon fill="#45FF28" points="120.312,249.121 120.312,361.035 124.656,243.289"/>
<polygon fill="#45FF28" points="120.312,361.035 124.656,243.289 129.284,237.557"/>
<polygon fill="#45FF28" points="120.312,361.035 124.656,369.039 162.5,205.469"/>

<polygon fill="#45FF28" points="120.312,361.035 129.284,237.557 134.197,231.934"/>
<polygon fill="#45FF28" points="120.312,361.035 134.197,231.934 139.386,226.419"/>
<polygon fill="#45FF28" points="120.312,361.035 139.386,226.419 144.858,221.018"/>
<polygon fill="#45FF28" points="120.312,361.035 144.858,221.018 150.559,215.726"/>
<polygon fill="#45FF28" points="120.312,361.035 150.559,215.726 156.457,210.543"/>
<polygon fill="#45FF28" points="120.312,361.035 156.457,210.543 162.5,205.469"/>

<polygon fill="#45FF28" points="124.656,369.039 129.284,377.084 162.5,205.469"/>

<polygon fill="#45FF28" points="129.284,377.084 134.197,385.165 162.5,205.469"/>

<polygon fill="#45FF28" points="134.197,385.165 139.386,393.274 162.5,205.469"/>

<polygon fill="#45FF28" points="139.386,393.274 144.858,401.411 162.5,205.469"/>

<polygon fill="#45FF28" points="144.858,401.411 150.559,409.554 162.5,205.469"/>

<polygon fill="#45FF28" points="150.559,409.554 156.457,417.686 162.5,205.469"/>

<polygon fill="#45FF28" points="156.457,417.686 162.5,205.469 162.5,425.781"/>
<polygon fill="#45FF28" points="162.5,205.469 162.5,425.781 168.61,200.508"/>
<polygon fill="#45FF28" points="162.5,425.781 168.61,200.508 174.837,195.654"/>
<polygon fill="#45FF28" points="162.5,425.781 168.61,433.797 275,137.5"/>
<polygon fill="#45FF28" points="162.5,425.781 174.837,195.654 181.206,190.903"/>

<polygon fill="#45FF28" points="162.5,425.781 181.206,190.903 187.714,186.252"/>

<polygon fill="#45FF28" points="162.5,425.781 187.714,186.252 194.369,181.692"/>

<polygon fill="#45FF28" points="162.5,425.781 194.369,181.692 201.162,177.229"/>

<polygon fill="#45FF28" points="162.5,425.781 201.162,177.229 208.082,172.863"/>

<polygon fill="#45FF28" points="162.5,425.781 208.082,172.863 215.137,168.604"/>

<polygon fill="#45FF28" points="162.5,425.781 215.137,168.604 222.342,164.466"/>

<polygon fill="#45FF28" points="162.5,425.781 222.342,164.466 229.664,160.425"/>

<polygon fill="#45FF28" points="162.5,425.781 229.664,160.425 237.077,156.46"/>
<polygon fill="#45FF28" points="162.5,425.781 237.077,156.46 244.568,152.57"/>
<polygon fill="#45FF28" points="162.5,425.781 244.568,152.57 252.125,148.757"/>
<polygon fill="#45FF28" points="162.5,425.781 252.125,148.757 259.727,144.99"/>
<polygon fill="#45FF28" points="162.5,425.781 259.727,144.99 267.363,141.255"/>
<polygon fill="#45FF28" points="162.5,425.781 267.363,141.255 275,137.5"/>
<polygon fill="#45FF28" points="168.61,433.797 174.837,441.765 275,137.5"/>
<polygon fill="#45FF28" points="174.837,441.765 181.206,449.7 275,137.5"/>
<polygon fill="#45FF28" points="181.206,449.7 187.714,457.605 275,137.5"/>
<polygon fill="#45FF28" points="187.714,457.605 194.369,465.493 275,137.5"/>
<polygon fill="#45FF28" points="194.369,465.493 201.162,473.352 275,137.5"/>
<polygon fill="#45FF28" points="201.162,473.352 208.082,481.178 275,137.5"/>
<polygon fill="#45FF28" points="208.082,481.178 215.137,488.965 275,137.5"/>
<polygon fill="#45FF28" points="215.137,488.965 222.342,496.705 275,137.5"/>
<polygon fill="#45FF28" points="222.342,496.705 229.664,504.407 275,137.5"/>
<polygon fill="#45FF28" points="229.664,504.407 237.077,512.078 275,137.5"/>
<polygon fill="#45FF28" points="237.077,512.078 244.568,519.714 275,137.5"/>
<polygon fill="#45FF28" points="244.568,519.714 252.125,527.305 275,137.5"/>
<polygon fill="#45FF28" points="252.125,527.305 259.727,534.874 275,137.5"/>
<polygon fill="#45FF28" points="259.727,534.874 267.363,542.427 275,137.5"/>
<polygon fill="#45FF28" points="267.363,542.427 275,137.5 275,550"/>
<polygon fill="#45FF28" points="275,137.5 275,550 550,412.5"/>
<polygon fill="#45FF28" points="275,137.5 282.594,133.639 550,412.5"/>
<polygon fill="#45FF28" points="275,550 282.594,557.659 550,412.5"/>
<polygon fill="#45FF28" points="282.594,133.639 290.175,129.766 550,412.5"/>
<polygon fill="#45FF28" points="282.594,557.659 290.175,565.321 550,412.5"/>
<polygon fill="#45FF28" points="290.175,129.766 297.755,125.942 550,412.5"/>
<polygon fill="#45FF28" points="290.175,565.321 297.755,572.936 550,412.5"/>
<polygon fill="#45FF28" points="297.755,125.942 305.334,122.186 550,412.5"/>
<polygon fill="#45FF28" points="297.755,572.936 305.334,580.481 550,412.5"/>
<polygon fill="#45FF28" points="305.334,122.186 312.922,118.537 550,412.5"/>
<polygon fill="#45FF28" points="305.334,580.481 312.922,587.924 550,412.5"/>
<polygon fill="#45FF28" points="312.922,118.537 320.507,115.004 550,412.5"/>
<polygon fill="#45FF28" points="312.922,587.924 320.507,595.25 550,412.5"/>
<polygon fill="#45FF28" points="320.507,115.004 328.083,111.596 550,412.5"/>
<polygon fill="#45FF28" points="320.507,595.25 328.083,602.445 550,412.5"/>
<polygon fill="#45FF28" points="328.083,111.596 335.645,108.35 550,412.5"/>
<polygon fill="#45FF28" points="328.083,602.445 335.645,609.473 550,412.5"/>
<polygon fill="#45FF28" points="335.645,108.35 343.188,105.31 550,412.5"/>
<polygon fill="#45FF28" points="335.645,609.473 343.188,616.284 550,412.5"/>
<polygon fill="#45FF28" points="343.188,105.31 350.711,102.454 550,412.5"/>
<polygon fill="#45FF28" points="343.188,616.284 350.711,622.902 550,412.5"/>
<polygon fill="#45FF28" points="350.711,102.454 358.215,99.7686 550,412.5"/>
<polygon fill="#45FF28" points="350.711,622.902 358.215,629.339 550,412.5"/>
<polygon fill="#45FF28" points="358.215,99.7686 365.692,97.2626 550,412.5"/>
<polygon fill="#45FF28" points="358.215,629.339 365.692,635.583 550,412.5"/>
<polygon fill="#45FF28" points="365.692,97.2626 373.132,94.9407 550,412.5"/>
<polygon fill="#45FF28" points="365.692,635.583 373.132,641.625 550,412.5"/>
<polygon fill="#45FF28" points="373.132,94.9407 380.544,92.8005 550,412.5"/>
<polygon fill="#45FF28" points="373.132,641.625 380.544,647.472 550,412.5"/>
<polygon fill="#45FF28" points="380.544,92.8005 387.932,90.8472 550,412.5"/>
<polygon fill="#45FF28" points="380.544,647.472 387.932,653.119 550,412.5"/>
<polygon fill="#45FF28" points="387.932,90.8472 395.312,89.0625 550,412.5"/>
<polygon fill="#45FF28" points="387.932,653.119 395.312,658.594 550,412.5"/>
<polygon fill="#45FF28" points="395.312,89.0625 402.724,87.4091 542.188,235.938"/>
<polygon fill="#45FF28" points="395.312,89.0625 542.188,235.938 543.458,246.373"/>
<polygon fill="#45FF28" points="395.312,89.0625 543.458,246.373 544.618,256.874"/>
<polygon fill="#45FF28" points="395.312,89.0625 544.618,256.874 545.662,267.472"/>
<polygon fill="#45FF28" points="395.312,89.0625 545.662,267.472 546.594,278.165"/>
<polygon fill="#45FF28" points="395.312,89.0625 546.594,278.165 547.416,288.969"/>
<polygon fill="#45FF28" points="395.312,89.0625 547.416,288.969 548.127,299.869"/>
<polygon fill="#45FF28" points="395.312,89.0625 548.127,299.869 548.731,310.853"/>
<polygon fill="#45FF28" points="395.312,89.0625 548.731,310.853 549.219,321.924"/>
<polygon fill="#45FF28" points="395.312,89.0625 549.219,321.924 549.575,333.089"/>
<polygon fill="#45FF28" points="395.312,89.0625 549.575,333.089 549.828,344.325"/>
<polygon fill="#45FF28" points="395.312,89.0625 549.828,344.325 550.001,355.616"/>
<polygon fill="#45FF28" points="395.312,89.0625 550,412.5 550.043,401.087"/>
<polygon fill="#45FF28" points="395.312,89.0625 550.001,355.616 550.098,366.949"/>
<polygon fill="#45FF28" points="395.312,89.0625 550.043,401.087 550.098,389.689"/>
<polygon fill="#45FF28" points="395.312,89.0625 550.098,366.949 550.121,378.308"/>
<polygon fill="#45FF28" points="395.312,89.0625 550.098,389.689 550.121,378.308"/>
<polygon fill="#45FF28" points="395.312,658.594 402.724,663.953 542.188,585.156"/>
<polygon fill="#45FF28" points="395.312,658.594 542.188,585.156 543.458,575.356"/>
<polygon fill="#45FF28" points="395.312,658.594 543.458,575.356 544.618,565.435"/>
<polygon fill="#45FF28" points="395.312,658.594 544.618,565.435 545.662,555.36"/>
<polygon fill="#45FF28" points="395.312,658.594 545.662,555.36 546.594,545.132"/>
<polygon fill="#45FF28" points="395.312,658.594 546.594,545.132 547.416,534.739"/>
<polygon fill="#45FF28" points="395.312,658.594 547.416,534.739 548.127,524.194"/>
<polygon fill="#45FF28" points="395.312,658.594 548.127,524.194 548.731,513.512"/>
<polygon fill="#45FF28" points="395.312,658.594 548.731,513.512 549.219,502.686"/>
<polygon fill="#45FF28" points="395.312,658.594 549.219,502.686 549.575,491.699"/>
<polygon fill="#45FF28" points="395.312,658.594 549.575,491.699 549.828,480.589"/>
<polygon fill="#45FF28" points="395.312,658.594 549.828,480.589 550.001,469.385"/>
<polygon fill="#45FF28" points="395.312,658.594 550,412.5 550.043,423.934"/>
<polygon fill="#45FF28" points="395.312,658.594 550.001,469.385 550.098,458.099"/>
<polygon fill="#45FF28" points="395.312,658.594 550.043,423.934 550.098,435.36"/>
<polygon fill="#45FF28" points="395.312,658.594 550.098,435.36 550.121,446.753"/>
<polygon fill="#45FF28" points="395.312,658.594 550.098,458.099 550.121,446.753"/>
<polygon fill="#45FF28" points="402.724,87.4091 410.111,85.9501 542.188,235.938"/>
<polygon fill="#45FF28" points="402.724,663.953 410.111,669.106 542.188,585.156"/>
<polygon fill="#45FF28" points="410.111,85.9501 417.44,84.7264 542.188,235.938"/>
<polygon fill="#45FF28" points="410.111,669.106 417.44,673.993 542.188,585.156"/>
<polygon fill="#45FF28" points="417.44,84.7264 424.689,83.7677 542.188,235.938"/>
<polygon fill="#45FF28" points="417.44,673.993 424.689,678.577 542.188,585.156"/>
<polygon fill="#45FF28" points="424.689,83.7677 431.824,83.1201 542.188,235.938"/>
<polygon fill="#45FF28" points="424.689,678.577 431.824,682.792 542.188,585.156"/>
<polygon fill="#45FF28" points="431.824,83.1201 438.849,82.7745 542.188,235.938"/>
<polygon fill="#45FF28" points="431.824,682.792 438.849,686.65 542.188,585.156"/>
<polygon fill="#45FF28" points="438.849,82.7745 445.755,82.7397 542.188,235.938"/>
<polygon fill="#45FF28" points="438.849,686.65 445.755,690.138 542.188,585.156"/>
<polygon fill="#45FF28" points="445.755,82.7397 452.539,83.0078 542.188,235.938"/>
<polygon fill="#45FF28" points="445.755,690.138 452.539,693.262 542.188,585.156"/>
<polygon fill="#45FF28" points="452.539,83.0078 459.208,83.5451 527.148,157.617"/>
<polygon fill="#45FF28" points="452.539,83.0078 527.148,157.617 529.588,166.573"/>
<polygon fill="#45FF28" points="452.539,83.0078 529.588,166.573 531.867,175.793"/>
<polygon fill="#45FF28" points="452.539,83.0078 531.867,175.793 533.978,185.274"/>
<polygon fill="#45FF28" points="452.539,83.0078 533.978,185.274 535.925,195.004"/>
<polygon fill="#45FF28" points="452.539,83.0078 535.925,195.004 537.702,204.989"/>
<polygon fill="#45FF28" points="452.539,83.0078 537.702,204.989 539.33,215.168"/>
<polygon fill="#45FF28" points="452.539,83.0078 539.33,215.168 540.819,225.505"/>
<polygon fill="#45FF28" points="452.539,83.0078 540.819,225.505 542.188,235.938"/>
<polygon fill="#45FF28" points="452.539,693.262 459.208,696.059 527.148,655.957"/>
<polygon fill="#45FF28" points="452.539,693.262 527.148,655.957 529.588,648.222"/>
<polygon fill="#45FF28" points="452.539,693.262 529.588,648.222 531.867,640.141"/>
<polygon fill="#45FF28" points="452.539,693.262 531.867,640.141 533.978,631.715"/>
<polygon fill="#45FF28" points="452.539,693.262 533.978,631.715 535.925,622.958"/>
<polygon fill="#45FF28" points="452.539,693.262 535.925,622.958 537.702,613.862"/>
<polygon fill="#45FF28" points="452.539,693.262 537.702,613.862 539.33,604.496"/>
<polygon fill="#45FF28" points="452.539,693.262 539.33,604.496 540.819,594.905"/>
<polygon fill="#45FF28" points="452.539,693.262 540.819,594.905 542.188,585.156"/>
<polygon fill="#45FF28" points="459.208,83.5451 465.719,84.4389 527.148,157.617"/>
<polygon fill="#45FF28" points="459.208,696.059 465.719,698.421 527.148,655.957"/>
<polygon fill="#45FF28" points="465.719,84.4389 472.036,85.7612 527.148,157.617"/>
<polygon fill="#45FF28" points="465.719,698.421 472.036,700.257 527.148,655.957"/>
<polygon fill="#45FF28" points="472.036,85.7612 478.149,87.5244 527.148,157.617"/>
<polygon fill="#45FF28" points="472.036,700.257 478.149,701.55 527.148,655.957"/>
<polygon fill="#45FF28" points="478.149,87.5244 484.058,89.727 515.601,124.976"/>
<polygon fill="#45FF28" points="478.149,87.5244 515.601,124.976 518.814,132.539"/>
<polygon fill="#45FF28" points="478.149,87.5244 518.814,132.539 521.801,140.521"/>
<polygon fill="#45FF28" points="478.149,87.5244 521.801,140.521 524.567,148.905"/>
<polygon fill="#45FF28" points="478.149,87.5244 524.567,148.905 527.148,157.617"/>
<polygon fill="#45FF28" points="478.149,701.55 484.058,702.302 515.601,682.825"/>
<polygon fill="#45FF28" points="478.149,701.55 515.601,682.825 518.814,676.868"/>
<polygon fill="#45FF28" points="478.149,701.55 518.814,676.868 521.801,670.38"/>
<polygon fill="#45FF28" points="478.149,701.55 521.801,670.38 524.567,663.379"/>
<polygon fill="#45FF28" points="478.149,701.55 524.567,663.379 527.148,655.957"/>
<polygon fill="#45FF28" points="484.058,89.727 489.7,92.4835 515.601,124.976"/>
<polygon fill="#45FF28" points="484.058,702.302 489.7,702.367 515.601,682.825"/>

<polygon fill="#45FF28" points="489.7,92.4835 495.044,95.85 508.444,111.227"/>
<polygon fill="#45FF28" points="489.7,92.4835 508.444,111.227 512.163,117.832"/>

<polygon fill="#45FF28" points="489.7,92.4835 512.163,117.832 515.601,124.976"/>

<polygon fill="#45FF28" points="489.7,702.367 495.044,701.672 508.444,692.995"/>

<polygon fill="#45FF28" points="489.7,702.367 508.444,692.995 512.163,688.25"/>
<polygon fill="#45FF28" points="489.7,702.367 512.163,688.25 515.601,682.825"/>
<polygon fill="#45FF28" points="495.044,95.85 500,100 504.419,105.224"/>
<polygon fill="#45FF28" points="495.044,95.85 504.419,105.224 508.444,111.227"/>

<polygon fill="#45FF28" points="495.044,701.672 500,700 504.419,696.985"/>
<polygon fill="#45FF28" points="495.044,701.672 504.419,696.985 508.444,692.995"/>

</svg>
