<?xml version="1.0" encoding="utf-8"?>
<!-- Generator: Adobe Illustrator 16.0.4, SVG Export Plug-In . SVG Version: 6.00 Build 0)  -->
<!DOCTYPE svg PUBLIC "-//W3C//DTD SVG 1.1//EN" "http://www.w3.org/Graphics/SVG/1.1/DTD/svg11.dtd">
<svg version="1.1" id="Layer_1" xmlns="http://www.w3.org/2000/svg" xmlns:xlink="http://www.w3.org/1999/xlink" x="0px" y="0px"
width="500.0px"
height="500.0px"
viewBox="0 0 500.0 500.0" enable-background="new 0 0 500.0 500.0"
xml:space="preserve">
<polygon fill="#000000" points="0.0,0.0 0.0,500.0 10.0,500.0 "/>
<polygon fill="#001DFF" points="0.0,0.0 10.0,500.0 20.0,500.0 "/>
<polygon fill="#000000" points="0.0,0.0 20.0,500.0 30.0,500.0 "/>
<polygon fill="#001DFF" points="0.0,0.0 30.0,500.0 40.0,500.0 "/>
<polygon fill="#000000" points="0.0,0.0 40.0,500.0 50.0,500.0 "/>
<polygon fill="#001DFF" points="0.0,0.0 50.0,500.0 60.0,500.0 "/>
<polygon fill="#000000" points="0.0,0.0 60.0,500.0 70.0,500.0 "/>
<polygon fill="#001DFF" points="0.0,0.0 70.0,500.0 80.0,500.0 "/>
<polygon fill="#000000" points="0.0,0.0 80.0,500.0 90.0,500.0 "/>
<polygon fill="#001DFF" points="0.0,0.0 90.0,500.0 100.0,500.0 "/>
<polygon fill="#000000" points="0.0,0.0 100.0,500.0 110.0,500.0 "/>
<polygon fill="#001DFF" points="0.0,0.0 110.0,500.0 120.0,500.0 "/>
<polygon fill="#000000" points="0.0,0.0 120.0,500.0 130.0,500.0 "/>
<polygon fill="#001DFF" points="0.0,0.0 130.0,500.0 140.0,500.0 "/>
<polygon fill="#000000" points="0.0,0.0 140.0,500.0 150.0,500.0 "/>
<polygon fill="#001DFF" points="0.0,0.0 150.0,500.0 160.0,500.0 "/>
<polygon fill="#000000" points="0.0,0.0 160.0,500.0 170.0,500.0 "/>
<polygon fill="#001DFF" points="0.0,0.0 170.0,500.0 180.0,500.0 "/>
<polygon fill="#000000" points="0.0,0.0 180.0,500.0 190.0,500.0 "/>
<polygon fill="#001DFF" points="0.0,0.0 190.0,500.0 200.0,500.0 "/>
<polygon fill="#000000" points="0.0,0.0 200.0,500.0 210.0,500.0 "/>
<polygon fill="#001DFF" points="0.0,0.0 210.0,500.0 220.0,500.0 "/>
<polygon fill="#000000" points="0.0,0.0 220.0,500.0 230.0,500.0 "/>
<polygon fill="#001DFF" points="0.0,0.0 230.0,500.0 240.0,500.0 "/>
<polygon fill="#000000" points="0.0,0.0 240.0,500.0 250.0,500.0 "/>
<polygon fill="#001DFF" points="0.0,0.0 250.0,500.0 260.0,500.0 "/>
<polygon fill="#000000" points="0.0,0.0 260.0,500.0 270.0,500.0 "/>
<polygon fill="#001DFF" points="0.0,0.0 270.0,500.0 280.0,500.0 "/>
<polygon fill="#000000" points="0.0,0.0 280.0,500.0 290.0,500.0 "/>
<polygon fill="#001DFF" points="0.0,0.0 290.0,500.0 300.0,500.0 "/>
<polygon fill="#000000" points="0.0,0.0 300.0,500.0 310.0,500.0 "/>
<polygon fill="#001DFF" points="0.0,0.0 310.0,500.0 320.0,500.0 "/>
<polygon fill="#000000" points="0.0,0.0 320.0,500.0 330.0,500.0 "/>
<polygon fill="#001DFF" points="0.0,0.0 330.0,500.0 340.0,500.0 "/>
<polygon fill="#000000" points="0.0,0.0 340.0,500.0 350.0,500.0 "/>
<polygon fill="#001DFF" points="0.0,0.0 350.0,500.0 360.0,500.0 "/>
<polygon fill="#000000" points="0.0,0.0 360.0,500.0 370.0,500.0 "/>
<polygon fill="#001DFF" points="0.0,0.0 370.0,500.0 380.0,500.0 "/>
<polygon fill="#000000" points="0.0,0.0 380.0,500.0 390.0,500.0 "/>
<polygon fill="#001DFF" points="0.0,0.0 390.0,500.0 400.0,500.0 "/>
<polygon fill="#000000" points="0.0,0.0 400.0,500.0 410.0,500.0 "/>
<polygon fill="#001DFF" points="0.0,0.0 410.0,500.0 420.0,500.0 "/>
<polygon fill="#000000" points="0.0,0.0 420.0,500.0 430.0,500.0 "/>
<polygon fill="#001DFF" points="0.0,0.0 430.0,500.0 440.0,500.0 "/>
<polygon fill="#000000" points="0.0,0.0 440.0,500.0 450.0,500.0 "/>
<polygon fill="#001DFF" points="0.0,0.0 450.0,500.0 460.0,500.0 "/>
<polygon fill="#000000" points="0.0,0.0 460.0,500.0 470.0,500.0 "/>
<polygon fill="#001DFF" points="0.0,0.0 470.0,500.0 480.0,500.0 "/>
<polygon fill="#000000" points="0.0,0.0 480.0,500.0 490.0,500.0 "/>
<polygon fill="#001DFF" points="0.0,0.0 490.0,500.0 500.0,500.0 "/>
<polygon fill="#001DFF" points="0.0,0.0 500.0,0.0 500.0,10.0 "/>
<polygon fill="#000000" points="0.0,0.0 500.0,10.0 500.0,20.0 "/>
<polygon fill="#001DFF" points="0.0,0.0 500.0,20.0 500.0,30.0 "/>
<polygon fill="#000000" points="0.0,0.0 500.0,30.0 500.0,40.0 "/>
<polygon fill="#001DFF" points="0.0,0.0 500.0,40.0 500.0,50.0 "/>
<polygon fill="#000000" points="0.0,0.0 500.0,50.0 500.0,60.0 "/>
<polygon fill="#001DFF" points="0.0,0.0 500.0,60.0 500.0,70.0 "/>
<polygon fill="#000000" points="0.0,0.0 500.0,70.0 500.0,80.0 "/>
<polygon fill="#001DFF" points="0.0,0.0 500.0,80.0 500.0,90.0 "/>
<polygon fill="#000000" points="0.0,0.0 500.0,90.0 500.0,100.0 "/>
<polygon fill="#001DFF" points="0.0,0.0 500.0,100.0 500.0,110.0 "/>
<polygon fill="#000000" points="0.0,0.0 500.0,110.0 500.0,120.0 "/>
<polygon fill="#001DFF" points="0.0,0.0 500.0,120.0 500.0,130.0 "/>
<polygon fill="#000000" points="0.0,0.0 500.0,130.0 500.0,140.0 "/>
<polygon fill="#001DFF" points="0.0,0.0 500.0,140.0 500.0,150.0 "/>
<polygon fill="#000000" points="0.0,0.0 500.0,150.0 500.0,160.0 "/>
<polygon fill="#001DFF" points="0.0,0.0 500.0,160.0 500.0,170.0 "/>
<polygon fill="#000000" points="0.0,0.0 500.0,170.0 500.0,180.0 "/>
<polygon fill="#001DFF" points="0.0,0.0 500.0,180.0 500.0,190.0 "/>
<polygon fill="#000000" points="0.0,0.0 500.0,190.0 500.0,200.0 "/>
<polygon fill="#001DFF" points="0.0,0.0 500.0,200.0 500.0,210.0 "/>
<polygon fill="#000000" points="0.0,0.0 500.0,210.0 500.0,220.0 "/>
<polygon fill="#001DFF" points="0.0,0.0 500.0,220.0 500.0,230.0 "/>
<polygon fill="#000000" points="0.0,0.0 500.0,230.0 500.0,240.0 "/>
<polygon fill="#001DFF" points="0.0,0.0 500.0,240.0 500.0,250.0 "/>
<polygon fill="#000000" points="0.0,0.0 500.0,250.0 500.0,260.0 "/>
<polygon fill="#001DFF" points="0.0,0.0 500.0,260.0 500.0,270.0 "/>
<polygon fill="#000000" points="0.0,0.0 500.0,270.0 500.0,280.0 "/>
<polygon fill="#001DFF" points="0.0,0.0 500.0,280.0 500.0,290.0 "/>
<polygon fill="#000000" points="0.0,0.0 500.0,290.0 500.0,300.0 "/>
<polygon fill="#001DFF" points="0.0,0.0 500.0,300.0 500.0,310.0 "/>
<polygon fill="#000000" points="0.0,0.0 500.0,310.0 500.0,320.0 "/>
<polygon fill="#001DFF" points="0.0,0.0 500.0,320.0 500.0,330.0 "/>
<polygon fill="#000000" points="0.0,0.0 500.0,330.0 500.0,340.0 "/>
<polygon fill="#001DFF" points="0.0,0.0 500.0,340.0 500.0,350.0 "/>
<polygon fill="#000000" points="0.0,0.0 500.0,350.0 500.0,360.0 "/>
<polygon fill="#001DFF" points="0.0,0.0 500.0,360.0 500.0,370.0 "/>
<polygon fill="#000000" points="0.0,0.0 500.0,370.0 500.0,380.0 "/>
<polygon fill="#001DFF" points="0.0,0.0 500.0,380.0 500.0,390.0 "/>
<polygon fill="#000000" points="0.0,0.0 500.0,390.0 500.0,400.0 "/>
<polygon fill="#001DFF" points="0.0,0.0 500.0,400.0 500.0,410.0 "/>
<polygon fill="#000000" points="0.0,0.0 500.0,410.0 500.0,420.0 "/>
<polygon fill="#001DFF" points="0.0,0.0 500.0,420.0 500.0,430.0 "/>
<polygon fill="#000000" points="0.0,0.0 500.0,430.0 500.0,440.0 "/>
<polygon fill="#001DFF" points="0.0,0.0 500.0,440.0 500.0,450.0 "/>
<polygon fill="#000000" points="0.0,0.0 500.0,450.0 500.0,460.0 "/>
<polygon fill="#001DFF" points="0.0,0.0 500.0,460.0 500.0,470.0 "/>
<polygon fill="#000000" points="0.0,0.0 500.0,470.0 500.0,480.0 "/>
<polygon fill="#001DFF" points="0.0,0.0 500.0,480.0 500.0,490.0 "/>
<polygon fill="#000000" points="0.0,0.0 500.0,490.0 500.0,500.0 "/>
</svg>
