<?xml version="1.0" encoding="utf-8"?>
<!-- Generator: Adobe Illustrator 16.0.4, SVG Export Plug-In . SVG Version: 6.00 Build 0)  -->
<!DOCTYPE svg PUBLIC "-//W3C//DTD SVG 1.1//EN" "http://www.w3.org/Graphics/SVG/1.1/DTD/svg11.dtd">
<svg version="1.1" id="Layer_1" xmlns="http://www.w3.org/2000/svg" xmlns:xlink="http://www.w3.org/1999/xlink" x="0px" y="0px"
width="500px"
height="500px"
viewBox="0 0 500 500" enable-background="new 0 0 500 500"
xml:space="preserve">
<polygon fill="#000000" points="0.0,0.0 0.0,500.0 1.0,500.0 "/>
<polygon fill="#001DFF" points="0.0,0.0 1.0,500.0 2.0,500.0 "/>
<polygon fill="#000000" points="0.0,0.0 2.0,500.0 3.0,500.0 "/>
<polygon fill="#001DFF" points="0.0,0.0 3.0,500.0 4.0,500.0 "/>
<polygon fill="#000000" points="0.0,0.0 4.0,500.0 5.0,500.0 "/>
<polygon fill="#001DFF" points="0.0,0.0 5.0,500.0 6.0,500.0 "/>
<polygon fill="#000000" points="0.0,0.0 6.0,500.0 7.0,500.0 "/>
<polygon fill="#001DFF" points="0.0,0.0 7.0,500.0 8.0,500.0 "/>
<polygon fill="#000000" points="0.0,0.0 8.0,500.0 9.0,500.0 "/>
<polygon fill="#001DFF" points="0.0,0.0 9.0,500.0 10.0,500.0 "/>
<polygon fill="#000000" points="0.0,0.0 10.0,500.0 11.0,500.0 "/>
<polygon fill="#001DFF" points="0.0,0.0 11.0,500.0 12.0,500.0 "/>
<polygon fill="#000000" points="0.0,0.0 12.0,500.0 13.0,500.0 "/>
<polygon fill="#001DFF" points="0.0,0.0 13.0,500.0 14.0,500.0 "/>
<polygon fill="#000000" points="0.0,0.0 14.0,500.0 15.0,500.0 "/>
<polygon fill="#001DFF" points="0.0,0.0 15.0,500.0 16.0,500.0 "/>
<polygon fill="#000000" points="0.0,0.0 16.0,500.0 17.0,500.0 "/>
<polygon fill="#001DFF" points="0.0,0.0 17.0,500.0 18.0,500.0 "/>
<polygon fill="#000000" points="0.0,0.0 18.0,500.0 19.0,500.0 "/>
<polygon fill="#001DFF" points="0.0,0.0 19.0,500.0 20.0,500.0 "/>
<polygon fill="#000000" points="0.0,0.0 20.0,500.0 21.0,500.0 "/>
<polygon fill="#001DFF" points="0.0,0.0 21.0,500.0 22.0,500.0 "/>
<polygon fill="#000000" points="0.0,0.0 22.0,500.0 23.0,500.0 "/>
<polygon fill="#001DFF" points="0.0,0.0 23.0,500.0 24.0,500.0 "/>
<polygon fill="#000000" points="0.0,0.0 24.0,500.0 25.0,500.0 "/>
<polygon fill="#001DFF" points="0.0,0.0 25.0,500.0 26.0,500.0 "/>
<polygon fill="#000000" points="0.0,0.0 26.0,500.0 27.0,500.0 "/>
<polygon fill="#001DFF" points="0.0,0.0 27.0,500.0 28.0,500.0 "/>
<polygon fill="#000000" points="0.0,0.0 28.0,500.0 29.0,500.0 "/>
<polygon fill="#001DFF" points="0.0,0.0 29.0,500.0 30.0,500.0 "/>
<polygon fill="#000000" points="0.0,0.0 30.0,500.0 31.0,500.0 "/>
<polygon fill="#001DFF" points="0.0,0.0 31.0,500.0 32.0,500.0 "/>
<polygon fill="#000000" points="0.0,0.0 32.0,500.0 33.0,500.0 "/>
<polygon fill="#001DFF" points="0.0,0.0 33.0,500.0 34.0,500.0 "/>
<polygon fill="#000000" points="0.0,0.0 34.0,500.0 35.0,500.0 "/>
<polygon fill="#001DFF" points="0.0,0.0 35.0,500.0 36.0,500.0 "/>
<polygon fill="#000000" points="0.0,0.0 36.0,500.0 37.0,500.0 "/>
<polygon fill="#001DFF" points="0.0,0.0 37.0,500.0 38.0,500.0 "/>
<polygon fill="#000000" points="0.0,0.0 38.0,500.0 39.0,500.0 "/>
<polygon fill="#001DFF" points="0.0,0.0 39.0,500.0 40.0,500.0 "/>
<polygon fill="#000000" points="0.0,0.0 40.0,500.0 41.0,500.0 "/>
<polygon fill="#001DFF" points="0.0,0.0 41.0,500.0 42.0,500.0 "/>
<polygon fill="#000000" points="0.0,0.0 42.0,500.0 43.0,500.0 "/>
<polygon fill="#001DFF" points="0.0,0.0 43.0,500.0 44.0,500.0 "/>
<polygon fill="#000000" points="0.0,0.0 44.0,500.0 45.0,500.0 "/>
<polygon fill="#001DFF" points="0.0,0.0 45.0,500.0 46.0,500.0 "/>
<polygon fill="#000000" points="0.0,0.0 46.0,500.0 47.0,500.0 "/>
<polygon fill="#001DFF" points="0.0,0.0 47.0,500.0 48.0,500.0 "/>
<polygon fill="#000000" points="0.0,0.0 48.0,500.0 49.0,500.0 "/>
<polygon fill="#001DFF" points="0.0,0.0 49.0,500.0 50.0,500.0 "/>
<polygon fill="#000000" points="0.0,0.0 50.0,500.0 51.0,500.0 "/>
<polygon fill="#001DFF" points="0.0,0.0 51.0,500.0 52.0,500.0 "/>
<polygon fill="#000000" points="0.0,0.0 52.0,500.0 53.0,500.0 "/>
<polygon fill="#001DFF" points="0.0,0.0 53.0,500.0 54.0,500.0 "/>
<polygon fill="#000000" points="0.0,0.0 54.0,500.0 55.0,500.0 "/>
<polygon fill="#001DFF" points="0.0,0.0 55.0,500.0 56.0,500.0 "/>
<polygon fill="#000000" points="0.0,0.0 56.0,500.0 57.0,500.0 "/>
<polygon fill="#001DFF" points="0.0,0.0 57.0,500.0 58.0,500.0 "/>
<polygon fill="#000000" points="0.0,0.0 58.0,500.0 59.0,500.0 "/>
<polygon fill="#001DFF" points="0.0,0.0 59.0,500.0 60.0,500.0 "/>
<polygon fill="#000000" points="0.0,0.0 60.0,500.0 61.0,500.0 "/>
<polygon fill="#001DFF" points="0.0,0.0 61.0,500.0 62.0,500.0 "/>
<polygon fill="#000000" points="0.0,0.0 62.0,500.0 63.0,500.0 "/>
<polygon fill="#001DFF" points="0.0,0.0 63.0,500.0 64.0,500.0 "/>
<polygon fill="#000000" points="0.0,0.0 64.0,500.0 65.0,500.0 "/>
<polygon fill="#001DFF" points="0.0,0.0 65.0,500.0 66.0,500.0 "/>
<polygon fill="#000000" points="0.0,0.0 66.0,500.0 67.0,500.0 "/>
<polygon fill="#001DFF" points="0.0,0.0 67.0,500.0 68.0,500.0 "/>
<polygon fill="#000000" points="0.0,0.0 68.0,500.0 69.0,500.0 "/>
<polygon fill="#001DFF" points="0.0,0.0 69.0,500.0 70.0,500.0 "/>
<polygon fill="#000000" points="0.0,0.0 70.0,500.0 71.0,500.0 "/>
<polygon fill="#001DFF" points="0.0,0.0 71.0,500.0 72.0,500.0 "/>
<polygon fill="#000000" points="0.0,0.0 72.0,500.0 73.0,500.0 "/>
<polygon fill="#001DFF" points="0.0,0.0 73.0,500.0 74.0,500.0 "/>
<polygon fill="#000000" points="0.0,0.0 74.0,500.0 75.0,500.0 "/>
<polygon fill="#001DFF" points="0.0,0.0 75.0,500.0 76.0,500.0 "/>
<polygon fill="#000000" points="0.0,0.0 76.0,500.0 77.0,500.0 "/>
<polygon fill="#001DFF" points="0.0,0.0 77.0,500.0 78.0,500.0 "/>
<polygon fill="#000000" points="0.0,0.0 78.0,500.0 79.0,500.0 "/>
<polygon fill="#001DFF" points="0.0,0.0 79.0,500.0 80.0,500.0 "/>
<polygon fill="#000000" points="0.0,0.0 80.0,500.0 81.0,500.0 "/>
<polygon fill="#001DFF" points="0.0,0.0 81.0,500.0 82.0,500.0 "/>
<polygon fill="#000000" points="0.0,0.0 82.0,500.0 83.0,500.0 "/>
<polygon fill="#001DFF" points="0.0,0.0 83.0,500.0 84.0,500.0 "/>
<polygon fill="#000000" points="0.0,0.0 84.0,500.0 85.0,500.0 "/>
<polygon fill="#001DFF" points="0.0,0.0 85.0,500.0 86.0,500.0 "/>
<polygon fill="#000000" points="0.0,0.0 86.0,500.0 87.0,500.0 "/>
<polygon fill="#001DFF" points="0.0,0.0 87.0,500.0 88.0,500.0 "/>
<polygon fill="#000000" points="0.0,0.0 88.0,500.0 89.0,500.0 "/>
<polygon fill="#001DFF" points="0.0,0.0 89.0,500.0 90.0,500.0 "/>
<polygon fill="#000000" points="0.0,0.0 90.0,500.0 91.0,500.0 "/>
<polygon fill="#001DFF" points="0.0,0.0 91.0,500.0 92.0,500.0 "/>
<polygon fill="#000000" points="0.0,0.0 92.0,500.0 93.0,500.0 "/>
<polygon fill="#001DFF" points="0.0,0.0 93.0,500.0 94.0,500.0 "/>
<polygon fill="#000000" points="0.0,0.0 94.0,500.0 95.0,500.0 "/>
<polygon fill="#001DFF" points="0.0,0.0 95.0,500.0 96.0,500.0 "/>
<polygon fill="#000000" points="0.0,0.0 96.0,500.0 97.0,500.0 "/>
<polygon fill="#001DFF" points="0.0,0.0 97.0,500.0 98.0,500.0 "/>
<polygon fill="#000000" points="0.0,0.0 98.0,500.0 99.0,500.0 "/>
<polygon fill="#001DFF" points="0.0,0.0 99.0,500.0 100.0,500.0 "/>
<polygon fill="#000000" points="0.0,0.0 100.0,500.0 101.0,500.0 "/>
<polygon fill="#001DFF" points="0.0,0.0 101.0,500.0 102.0,500.0 "/>
<polygon fill="#000000" points="0.0,0.0 102.0,500.0 103.0,500.0 "/>
<polygon fill="#001DFF" points="0.0,0.0 103.0,500.0 104.0,500.0 "/>
<polygon fill="#000000" points="0.0,0.0 104.0,500.0 105.0,500.0 "/>
<polygon fill="#001DFF" points="0.0,0.0 105.0,500.0 106.0,500.0 "/>
<polygon fill="#000000" points="0.0,0.0 106.0,500.0 107.0,500.0 "/>
<polygon fill="#001DFF" points="0.0,0.0 107.0,500.0 108.0,500.0 "/>
<polygon fill="#000000" points="0.0,0.0 108.0,500.0 109.0,500.0 "/>
<polygon fill="#001DFF" points="0.0,0.0 109.0,500.0 110.0,500.0 "/>
<polygon fill="#000000" points="0.0,0.0 110.0,500.0 111.0,500.0 "/>
<polygon fill="#001DFF" points="0.0,0.0 111.0,500.0 112.0,500.0 "/>
<polygon fill="#000000" points="0.0,0.0 112.0,500.0 113.0,500.0 "/>
<polygon fill="#001DFF" points="0.0,0.0 113.0,500.0 114.0,500.0 "/>
<polygon fill="#000000" points="0.0,0.0 114.0,500.0 115.0,500.0 "/>
<polygon fill="#001DFF" points="0.0,0.0 115.0,500.0 116.0,500.0 "/>
<polygon fill="#000000" points="0.0,0.0 116.0,500.0 117.0,500.0 "/>
<polygon fill="#001DFF" points="0.0,0.0 117.0,500.0 118.0,500.0 "/>
<polygon fill="#000000" points="0.0,0.0 118.0,500.0 119.0,500.0 "/>
<polygon fill="#001DFF" points="0.0,0.0 119.0,500.0 120.0,500.0 "/>
<polygon fill="#000000" points="0.0,0.0 120.0,500.0 121.0,500.0 "/>
<polygon fill="#001DFF" points="0.0,0.0 121.0,500.0 122.0,500.0 "/>
<polygon fill="#000000" points="0.0,0.0 122.0,500.0 123.0,500.0 "/>
<polygon fill="#001DFF" points="0.0,0.0 123.0,500.0 124.0,500.0 "/>
<polygon fill="#000000" points="0.0,0.0 124.0,500.0 125.0,500.0 "/>
<polygon fill="#001DFF" points="0.0,0.0 125.0,500.0 126.0,500.0 "/>
<polygon fill="#000000" points="0.0,0.0 126.0,500.0 127.0,500.0 "/>
<polygon fill="#001DFF" points="0.0,0.0 127.0,500.0 128.0,500.0 "/>
<polygon fill="#000000" points="0.0,0.0 128.0,500.0 129.0,500.0 "/>
<polygon fill="#001DFF" points="0.0,0.0 129.0,500.0 130.0,500.0 "/>
<polygon fill="#000000" points="0.0,0.0 130.0,500.0 131.0,500.0 "/>
<polygon fill="#001DFF" points="0.0,0.0 131.0,500.0 132.0,500.0 "/>
<polygon fill="#000000" points="0.0,0.0 132.0,500.0 133.0,500.0 "/>
<polygon fill="#001DFF" points="0.0,0.0 133.0,500.0 134.0,500.0 "/>
<polygon fill="#000000" points="0.0,0.0 134.0,500.0 135.0,500.0 "/>
<polygon fill="#001DFF" points="0.0,0.0 135.0,500.0 136.0,500.0 "/>
<polygon fill="#000000" points="0.0,0.0 136.0,500.0 137.0,500.0 "/>
<polygon fill="#001DFF" points="0.0,0.0 137.0,500.0 138.0,500.0 "/>
<polygon fill="#000000" points="0.0,0.0 138.0,500.0 139.0,500.0 "/>
<polygon fill="#001DFF" points="0.0,0.0 139.0,500.0 140.0,500.0 "/>
<polygon fill="#000000" points="0.0,0.0 140.0,500.0 141.0,500.0 "/>
<polygon fill="#001DFF" points="0.0,0.0 141.0,500.0 142.0,500.0 "/>
<polygon fill="#000000" points="0.0,0.0 142.0,500.0 143.0,500.0 "/>
<polygon fill="#001DFF" points="0.0,0.0 143.0,500.0 144.0,500.0 "/>
<polygon fill="#000000" points="0.0,0.0 144.0,500.0 145.0,500.0 "/>
<polygon fill="#001DFF" points="0.0,0.0 145.0,500.0 146.0,500.0 "/>
<polygon fill="#000000" points="0.0,0.0 146.0,500.0 147.0,500.0 "/>
<polygon fill="#001DFF" points="0.0,0.0 147.0,500.0 148.0,500.0 "/>
<polygon fill="#000000" points="0.0,0.0 148.0,500.0 149.0,500.0 "/>
<polygon fill="#001DFF" points="0.0,0.0 149.0,500.0 150.0,500.0 "/>
<polygon fill="#000000" points="0.0,0.0 150.0,500.0 151.0,500.0 "/>
<polygon fill="#001DFF" points="0.0,0.0 151.0,500.0 152.0,500.0 "/>
<polygon fill="#000000" points="0.0,0.0 152.0,500.0 153.0,500.0 "/>
<polygon fill="#001DFF" points="0.0,0.0 153.0,500.0 154.0,500.0 "/>
<polygon fill="#000000" points="0.0,0.0 154.0,500.0 155.0,500.0 "/>
<polygon fill="#001DFF" points="0.0,0.0 155.0,500.0 156.0,500.0 "/>
<polygon fill="#000000" points="0.0,0.0 156.0,500.0 157.0,500.0 "/>
<polygon fill="#001DFF" points="0.0,0.0 157.0,500.0 158.0,500.0 "/>
<polygon fill="#000000" points="0.0,0.0 158.0,500.0 159.0,500.0 "/>
<polygon fill="#001DFF" points="0.0,0.0 159.0,500.0 160.0,500.0 "/>
<polygon fill="#000000" points="0.0,0.0 160.0,500.0 161.0,500.0 "/>
<polygon fill="#001DFF" points="0.0,0.0 161.0,500.0 162.0,500.0 "/>
<polygon fill="#000000" points="0.0,0.0 162.0,500.0 163.0,500.0 "/>
<polygon fill="#001DFF" points="0.0,0.0 163.0,500.0 164.0,500.0 "/>
<polygon fill="#000000" points="0.0,0.0 164.0,500.0 165.0,500.0 "/>
<polygon fill="#001DFF" points="0.0,0.0 165.0,500.0 166.0,500.0 "/>
<polygon fill="#000000" points="0.0,0.0 166.0,500.0 167.0,500.0 "/>
<polygon fill="#001DFF" points="0.0,0.0 167.0,500.0 168.0,500.0 "/>
<polygon fill="#000000" points="0.0,0.0 168.0,500.0 169.0,500.0 "/>
<polygon fill="#001DFF" points="0.0,0.0 169.0,500.0 170.0,500.0 "/>
<polygon fill="#000000" points="0.0,0.0 170.0,500.0 171.0,500.0 "/>
<polygon fill="#001DFF" points="0.0,0.0 171.0,500.0 172.0,500.0 "/>
<polygon fill="#000000" points="0.0,0.0 172.0,500.0 173.0,500.0 "/>
<polygon fill="#001DFF" points="0.0,0.0 173.0,500.0 174.0,500.0 "/>
<polygon fill="#000000" points="0.0,0.0 174.0,500.0 175.0,500.0 "/>
<polygon fill="#001DFF" points="0.0,0.0 175.0,500.0 176.0,500.0 "/>
<polygon fill="#000000" points="0.0,0.0 176.0,500.0 177.0,500.0 "/>
<polygon fill="#001DFF" points="0.0,0.0 177.0,500.0 178.0,500.0 "/>
<polygon fill="#000000" points="0.0,0.0 178.0,500.0 179.0,500.0 "/>
<polygon fill="#001DFF" points="0.0,0.0 179.0,500.0 180.0,500.0 "/>
<polygon fill="#000000" points="0.0,0.0 180.0,500.0 181.0,500.0 "/>
<polygon fill="#001DFF" points="0.0,0.0 181.0,500.0 182.0,500.0 "/>
<polygon fill="#000000" points="0.0,0.0 182.0,500.0 183.0,500.0 "/>
<polygon fill="#001DFF" points="0.0,0.0 183.0,500.0 184.0,500.0 "/>
<polygon fill="#000000" points="0.0,0.0 184.0,500.0 185.0,500.0 "/>
<polygon fill="#001DFF" points="0.0,0.0 185.0,500.0 186.0,500.0 "/>
<polygon fill="#000000" points="0.0,0.0 186.0,500.0 187.0,500.0 "/>
<polygon fill="#001DFF" points="0.0,0.0 187.0,500.0 188.0,500.0 "/>
<polygon fill="#000000" points="0.0,0.0 188.0,500.0 189.0,500.0 "/>
<polygon fill="#001DFF" points="0.0,0.0 189.0,500.0 190.0,500.0 "/>
<polygon fill="#000000" points="0.0,0.0 190.0,500.0 191.0,500.0 "/>
<polygon fill="#001DFF" points="0.0,0.0 191.0,500.0 192.0,500.0 "/>
<polygon fill="#000000" points="0.0,0.0 192.0,500.0 193.0,500.0 "/>
<polygon fill="#001DFF" points="0.0,0.0 193.0,500.0 194.0,500.0 "/>
<polygon fill="#000000" points="0.0,0.0 194.0,500.0 195.0,500.0 "/>
<polygon fill="#001DFF" points="0.0,0.0 195.0,500.0 196.0,500.0 "/>
<polygon fill="#000000" points="0.0,0.0 196.0,500.0 197.0,500.0 "/>
<polygon fill="#001DFF" points="0.0,0.0 197.0,500.0 198.0,500.0 "/>
<polygon fill="#000000" points="0.0,0.0 198.0,500.0 199.0,500.0 "/>
<polygon fill="#001DFF" points="0.0,0.0 199.0,500.0 200.0,500.0 "/>
<polygon fill="#000000" points="0.0,0.0 200.0,500.0 201.0,500.0 "/>
<polygon fill="#001DFF" points="0.0,0.0 201.0,500.0 202.0,500.0 "/>
<polygon fill="#000000" points="0.0,0.0 202.0,500.0 203.0,500.0 "/>
<polygon fill="#001DFF" points="0.0,0.0 203.0,500.0 204.0,500.0 "/>
<polygon fill="#000000" points="0.0,0.0 204.0,500.0 205.0,500.0 "/>
<polygon fill="#001DFF" points="0.0,0.0 205.0,500.0 206.0,500.0 "/>
<polygon fill="#000000" points="0.0,0.0 206.0,500.0 207.0,500.0 "/>
<polygon fill="#001DFF" points="0.0,0.0 207.0,500.0 208.0,500.0 "/>
<polygon fill="#000000" points="0.0,0.0 208.0,500.0 209.0,500.0 "/>
<polygon fill="#001DFF" points="0.0,0.0 209.0,500.0 210.0,500.0 "/>
<polygon fill="#000000" points="0.0,0.0 210.0,500.0 211.0,500.0 "/>
<polygon fill="#001DFF" points="0.0,0.0 211.0,500.0 212.0,500.0 "/>
<polygon fill="#000000" points="0.0,0.0 212.0,500.0 213.0,500.0 "/>
<polygon fill="#001DFF" points="0.0,0.0 213.0,500.0 214.0,500.0 "/>
<polygon fill="#000000" points="0.0,0.0 214.0,500.0 215.0,500.0 "/>
<polygon fill="#001DFF" points="0.0,0.0 215.0,500.0 216.0,500.0 "/>
<polygon fill="#000000" points="0.0,0.0 216.0,500.0 217.0,500.0 "/>
<polygon fill="#001DFF" points="0.0,0.0 217.0,500.0 218.0,500.0 "/>
<polygon fill="#000000" points="0.0,0.0 218.0,500.0 219.0,500.0 "/>
<polygon fill="#001DFF" points="0.0,0.0 219.0,500.0 220.0,500.0 "/>
<polygon fill="#000000" points="0.0,0.0 220.0,500.0 221.0,500.0 "/>
<polygon fill="#001DFF" points="0.0,0.0 221.0,500.0 222.0,500.0 "/>
<polygon fill="#000000" points="0.0,0.0 222.0,500.0 223.0,500.0 "/>
<polygon fill="#001DFF" points="0.0,0.0 223.0,500.0 224.0,500.0 "/>
<polygon fill="#000000" points="0.0,0.0 224.0,500.0 225.0,500.0 "/>
<polygon fill="#001DFF" points="0.0,0.0 225.0,500.0 226.0,500.0 "/>
<polygon fill="#000000" points="0.0,0.0 226.0,500.0 227.0,500.0 "/>
<polygon fill="#001DFF" points="0.0,0.0 227.0,500.0 228.0,500.0 "/>
<polygon fill="#000000" points="0.0,0.0 228.0,500.0 229.0,500.0 "/>
<polygon fill="#001DFF" points="0.0,0.0 229.0,500.0 230.0,500.0 "/>
<polygon fill="#000000" points="0.0,0.0 230.0,500.0 231.0,500.0 "/>
<polygon fill="#001DFF" points="0.0,0.0 231.0,500.0 232.0,500.0 "/>
<polygon fill="#000000" points="0.0,0.0 232.0,500.0 233.0,500.0 "/>
<polygon fill="#001DFF" points="0.0,0.0 233.0,500.0 234.0,500.0 "/>
<polygon fill="#000000" points="0.0,0.0 234.0,500.0 235.0,500.0 "/>
<polygon fill="#001DFF" points="0.0,0.0 235.0,500.0 236.0,500.0 "/>
<polygon fill="#000000" points="0.0,0.0 236.0,500.0 237.0,500.0 "/>
<polygon fill="#001DFF" points="0.0,0.0 237.0,500.0 238.0,500.0 "/>
<polygon fill="#000000" points="0.0,0.0 238.0,500.0 239.0,500.0 "/>
<polygon fill="#001DFF" points="0.0,0.0 239.0,500.0 240.0,500.0 "/>
<polygon fill="#000000" points="0.0,0.0 240.0,500.0 241.0,500.0 "/>
<polygon fill="#001DFF" points="0.0,0.0 241.0,500.0 242.0,500.0 "/>
<polygon fill="#000000" points="0.0,0.0 242.0,500.0 243.0,500.0 "/>
<polygon fill="#001DFF" points="0.0,0.0 243.0,500.0 244.0,500.0 "/>
<polygon fill="#000000" points="0.0,0.0 244.0,500.0 245.0,500.0 "/>
<polygon fill="#001DFF" points="0.0,0.0 245.0,500.0 246.0,500.0 "/>
<polygon fill="#000000" points="0.0,0.0 246.0,500.0 247.0,500.0 "/>
<polygon fill="#001DFF" points="0.0,0.0 247.0,500.0 248.0,500.0 "/>
<polygon fill="#000000" points="0.0,0.0 248.0,500.0 249.0,500.0 "/>
<polygon fill="#001DFF" points="0.0,0.0 249.0,500.0 250.0,500.0 "/>
<polygon fill="#000000" points="0.0,0.0 250.0,500.0 251.0,500.0 "/>
<polygon fill="#001DFF" points="0.0,0.0 251.0,500.0 252.0,500.0 "/>
<polygon fill="#000000" points="0.0,0.0 252.0,500.0 253.0,500.0 "/>
<polygon fill="#001DFF" points="0.0,0.0 253.0,500.0 254.0,500.0 "/>
<polygon fill="#000000" points="0.0,0.0 254.0,500.0 255.0,500.0 "/>
<polygon fill="#001DFF" points="0.0,0.0 255.0,500.0 256.0,500.0 "/>
<polygon fill="#000000" points="0.0,0.0 256.0,500.0 257.0,500.0 "/>
<polygon fill="#001DFF" points="0.0,0.0 257.0,500.0 258.0,500.0 "/>
<polygon fill="#000000" points="0.0,0.0 258.0,500.0 259.0,500.0 "/>
<polygon fill="#001DFF" points="0.0,0.0 259.0,500.0 260.0,500.0 "/>
<polygon fill="#000000" points="0.0,0.0 260.0,500.0 261.0,500.0 "/>
<polygon fill="#001DFF" points="0.0,0.0 261.0,500.0 262.0,500.0 "/>
<polygon fill="#000000" points="0.0,0.0 262.0,500.0 263.0,500.0 "/>
<polygon fill="#001DFF" points="0.0,0.0 263.0,500.0 264.0,500.0 "/>
<polygon fill="#000000" points="0.0,0.0 264.0,500.0 265.0,500.0 "/>
<polygon fill="#001DFF" points="0.0,0.0 265.0,500.0 266.0,500.0 "/>
<polygon fill="#000000" points="0.0,0.0 266.0,500.0 267.0,500.0 "/>
<polygon fill="#001DFF" points="0.0,0.0 267.0,500.0 268.0,500.0 "/>
<polygon fill="#000000" points="0.0,0.0 268.0,500.0 269.0,500.0 "/>
<polygon fill="#001DFF" points="0.0,0.0 269.0,500.0 270.0,500.0 "/>
<polygon fill="#000000" points="0.0,0.0 270.0,500.0 271.0,500.0 "/>
<polygon fill="#001DFF" points="0.0,0.0 271.0,500.0 272.0,500.0 "/>
<polygon fill="#000000" points="0.0,0.0 272.0,500.0 273.0,500.0 "/>
<polygon fill="#001DFF" points="0.0,0.0 273.0,500.0 274.0,500.0 "/>
<polygon fill="#000000" points="0.0,0.0 274.0,500.0 275.0,500.0 "/>
<polygon fill="#001DFF" points="0.0,0.0 275.0,500.0 276.0,500.0 "/>
<polygon fill="#000000" points="0.0,0.0 276.0,500.0 277.0,500.0 "/>
<polygon fill="#001DFF" points="0.0,0.0 277.0,500.0 278.0,500.0 "/>
<polygon fill="#000000" points="0.0,0.0 278.0,500.0 279.0,500.0 "/>
<polygon fill="#001DFF" points="0.0,0.0 279.0,500.0 280.0,500.0 "/>
<polygon fill="#000000" points="0.0,0.0 280.0,500.0 281.0,500.0 "/>
<polygon fill="#001DFF" points="0.0,0.0 281.0,500.0 282.0,500.0 "/>
<polygon fill="#000000" points="0.0,0.0 282.0,500.0 283.0,500.0 "/>
<polygon fill="#001DFF" points="0.0,0.0 283.0,500.0 284.0,500.0 "/>
<polygon fill="#000000" points="0.0,0.0 284.0,500.0 285.0,500.0 "/>
<polygon fill="#001DFF" points="0.0,0.0 285.0,500.0 286.0,500.0 "/>
<polygon fill="#000000" points="0.0,0.0 286.0,500.0 287.0,500.0 "/>
<polygon fill="#001DFF" points="0.0,0.0 287.0,500.0 288.0,500.0 "/>
<polygon fill="#000000" points="0.0,0.0 288.0,500.0 289.0,500.0 "/>
<polygon fill="#001DFF" points="0.0,0.0 289.0,500.0 290.0,500.0 "/>
<polygon fill="#000000" points="0.0,0.0 290.0,500.0 291.0,500.0 "/>
<polygon fill="#001DFF" points="0.0,0.0 291.0,500.0 292.0,500.0 "/>
<polygon fill="#000000" points="0.0,0.0 292.0,500.0 293.0,500.0 "/>
<polygon fill="#001DFF" points="0.0,0.0 293.0,500.0 294.0,500.0 "/>
<polygon fill="#000000" points="0.0,0.0 294.0,500.0 295.0,500.0 "/>
<polygon fill="#001DFF" points="0.0,0.0 295.0,500.0 296.0,500.0 "/>
<polygon fill="#000000" points="0.0,0.0 296.0,500.0 297.0,500.0 "/>
<polygon fill="#001DFF" points="0.0,0.0 297.0,500.0 298.0,500.0 "/>
<polygon fill="#000000" points="0.0,0.0 298.0,500.0 299.0,500.0 "/>
<polygon fill="#001DFF" points="0.0,0.0 299.0,500.0 300.0,500.0 "/>
<polygon fill="#000000" points="0.0,0.0 300.0,500.0 301.0,500.0 "/>
<polygon fill="#001DFF" points="0.0,0.0 301.0,500.0 302.0,500.0 "/>
<polygon fill="#000000" points="0.0,0.0 302.0,500.0 303.0,500.0 "/>
<polygon fill="#001DFF" points="0.0,0.0 303.0,500.0 304.0,500.0 "/>
<polygon fill="#000000" points="0.0,0.0 304.0,500.0 305.0,500.0 "/>
<polygon fill="#001DFF" points="0.0,0.0 305.0,500.0 306.0,500.0 "/>
<polygon fill="#000000" points="0.0,0.0 306.0,500.0 307.0,500.0 "/>
<polygon fill="#001DFF" points="0.0,0.0 307.0,500.0 308.0,500.0 "/>
<polygon fill="#000000" points="0.0,0.0 308.0,500.0 309.0,500.0 "/>
<polygon fill="#001DFF" points="0.0,0.0 309.0,500.0 310.0,500.0 "/>
<polygon fill="#000000" points="0.0,0.0 310.0,500.0 311.0,500.0 "/>
<polygon fill="#001DFF" points="0.0,0.0 311.0,500.0 312.0,500.0 "/>
<polygon fill="#000000" points="0.0,0.0 312.0,500.0 313.0,500.0 "/>
<polygon fill="#001DFF" points="0.0,0.0 313.0,500.0 314.0,500.0 "/>
<polygon fill="#000000" points="0.0,0.0 314.0,500.0 315.0,500.0 "/>
<polygon fill="#001DFF" points="0.0,0.0 315.0,500.0 316.0,500.0 "/>
<polygon fill="#000000" points="0.0,0.0 316.0,500.0 317.0,500.0 "/>
<polygon fill="#001DFF" points="0.0,0.0 317.0,500.0 318.0,500.0 "/>
<polygon fill="#000000" points="0.0,0.0 318.0,500.0 319.0,500.0 "/>
<polygon fill="#001DFF" points="0.0,0.0 319.0,500.0 320.0,500.0 "/>
<polygon fill="#000000" points="0.0,0.0 320.0,500.0 321.0,500.0 "/>
<polygon fill="#001DFF" points="0.0,0.0 321.0,500.0 322.0,500.0 "/>
<polygon fill="#000000" points="0.0,0.0 322.0,500.0 323.0,500.0 "/>
<polygon fill="#001DFF" points="0.0,0.0 323.0,500.0 324.0,500.0 "/>
<polygon fill="#000000" points="0.0,0.0 324.0,500.0 325.0,500.0 "/>
<polygon fill="#001DFF" points="0.0,0.0 325.0,500.0 326.0,500.0 "/>
<polygon fill="#000000" points="0.0,0.0 326.0,500.0 327.0,500.0 "/>
<polygon fill="#001DFF" points="0.0,0.0 327.0,500.0 328.0,500.0 "/>
<polygon fill="#000000" points="0.0,0.0 328.0,500.0 329.0,500.0 "/>
<polygon fill="#001DFF" points="0.0,0.0 329.0,500.0 330.0,500.0 "/>
<polygon fill="#000000" points="0.0,0.0 330.0,500.0 331.0,500.0 "/>
<polygon fill="#001DFF" points="0.0,0.0 331.0,500.0 332.0,500.0 "/>
<polygon fill="#000000" points="0.0,0.0 332.0,500.0 333.0,500.0 "/>
<polygon fill="#001DFF" points="0.0,0.0 333.0,500.0 334.0,500.0 "/>
<polygon fill="#000000" points="0.0,0.0 334.0,500.0 335.0,500.0 "/>
<polygon fill="#001DFF" points="0.0,0.0 335.0,500.0 336.0,500.0 "/>
<polygon fill="#000000" points="0.0,0.0 336.0,500.0 337.0,500.0 "/>
<polygon fill="#001DFF" points="0.0,0.0 337.0,500.0 338.0,500.0 "/>
<polygon fill="#000000" points="0.0,0.0 338.0,500.0 339.0,500.0 "/>
<polygon fill="#001DFF" points="0.0,0.0 339.0,500.0 340.0,500.0 "/>
<polygon fill="#000000" points="0.0,0.0 340.0,500.0 341.0,500.0 "/>
<polygon fill="#001DFF" points="0.0,0.0 341.0,500.0 342.0,500.0 "/>
<polygon fill="#000000" points="0.0,0.0 342.0,500.0 343.0,500.0 "/>
<polygon fill="#001DFF" points="0.0,0.0 343.0,500.0 344.0,500.0 "/>
<polygon fill="#000000" points="0.0,0.0 344.0,500.0 345.0,500.0 "/>
<polygon fill="#001DFF" points="0.0,0.0 345.0,500.0 346.0,500.0 "/>
<polygon fill="#000000" points="0.0,0.0 346.0,500.0 347.0,500.0 "/>
<polygon fill="#001DFF" points="0.0,0.0 347.0,500.0 348.0,500.0 "/>
<polygon fill="#000000" points="0.0,0.0 348.0,500.0 349.0,500.0 "/>
<polygon fill="#001DFF" points="0.0,0.0 349.0,500.0 350.0,500.0 "/>
<polygon fill="#000000" points="0.0,0.0 350.0,500.0 351.0,500.0 "/>
<polygon fill="#001DFF" points="0.0,0.0 351.0,500.0 352.0,500.0 "/>
<polygon fill="#000000" points="0.0,0.0 352.0,500.0 353.0,500.0 "/>
<polygon fill="#001DFF" points="0.0,0.0 353.0,500.0 354.0,500.0 "/>
<polygon fill="#000000" points="0.0,0.0 354.0,500.0 355.0,500.0 "/>
<polygon fill="#001DFF" points="0.0,0.0 355.0,500.0 356.0,500.0 "/>
<polygon fill="#000000" points="0.0,0.0 356.0,500.0 357.0,500.0 "/>
<polygon fill="#001DFF" points="0.0,0.0 357.0,500.0 358.0,500.0 "/>
<polygon fill="#000000" points="0.0,0.0 358.0,500.0 359.0,500.0 "/>
<polygon fill="#001DFF" points="0.0,0.0 359.0,500.0 360.0,500.0 "/>
<polygon fill="#000000" points="0.0,0.0 360.0,500.0 361.0,500.0 "/>
<polygon fill="#001DFF" points="0.0,0.0 361.0,500.0 362.0,500.0 "/>
<polygon fill="#000000" points="0.0,0.0 362.0,500.0 363.0,500.0 "/>
<polygon fill="#001DFF" points="0.0,0.0 363.0,500.0 364.0,500.0 "/>
<polygon fill="#000000" points="0.0,0.0 364.0,500.0 365.0,500.0 "/>
<polygon fill="#001DFF" points="0.0,0.0 365.0,500.0 366.0,500.0 "/>
<polygon fill="#000000" points="0.0,0.0 366.0,500.0 367.0,500.0 "/>
<polygon fill="#001DFF" points="0.0,0.0 367.0,500.0 368.0,500.0 "/>
<polygon fill="#000000" points="0.0,0.0 368.0,500.0 369.0,500.0 "/>
<polygon fill="#001DFF" points="0.0,0.0 369.0,500.0 370.0,500.0 "/>
<polygon fill="#000000" points="0.0,0.0 370.0,500.0 371.0,500.0 "/>
<polygon fill="#001DFF" points="0.0,0.0 371.0,500.0 372.0,500.0 "/>
<polygon fill="#000000" points="0.0,0.0 372.0,500.0 373.0,500.0 "/>
<polygon fill="#001DFF" points="0.0,0.0 373.0,500.0 374.0,500.0 "/>
<polygon fill="#000000" points="0.0,0.0 374.0,500.0 375.0,500.0 "/>
<polygon fill="#001DFF" points="0.0,0.0 375.0,500.0 376.0,500.0 "/>
<polygon fill="#000000" points="0.0,0.0 376.0,500.0 377.0,500.0 "/>
<polygon fill="#001DFF" points="0.0,0.0 377.0,500.0 378.0,500.0 "/>
<polygon fill="#000000" points="0.0,0.0 378.0,500.0 379.0,500.0 "/>
<polygon fill="#001DFF" points="0.0,0.0 379.0,500.0 380.0,500.0 "/>
<polygon fill="#000000" points="0.0,0.0 380.0,500.0 381.0,500.0 "/>
<polygon fill="#001DFF" points="0.0,0.0 381.0,500.0 382.0,500.0 "/>
<polygon fill="#000000" points="0.0,0.0 382.0,500.0 383.0,500.0 "/>
<polygon fill="#001DFF" points="0.0,0.0 383.0,500.0 384.0,500.0 "/>
<polygon fill="#000000" points="0.0,0.0 384.0,500.0 385.0,500.0 "/>
<polygon fill="#001DFF" points="0.0,0.0 385.0,500.0 386.0,500.0 "/>
<polygon fill="#000000" points="0.0,0.0 386.0,500.0 387.0,500.0 "/>
<polygon fill="#001DFF" points="0.0,0.0 387.0,500.0 388.0,500.0 "/>
<polygon fill="#000000" points="0.0,0.0 388.0,500.0 389.0,500.0 "/>
<polygon fill="#001DFF" points="0.0,0.0 389.0,500.0 390.0,500.0 "/>
<polygon fill="#000000" points="0.0,0.0 390.0,500.0 391.0,500.0 "/>
<polygon fill="#001DFF" points="0.0,0.0 391.0,500.0 392.0,500.0 "/>
<polygon fill="#000000" points="0.0,0.0 392.0,500.0 393.0,500.0 "/>
<polygon fill="#001DFF" points="0.0,0.0 393.0,500.0 394.0,500.0 "/>
<polygon fill="#000000" points="0.0,0.0 394.0,500.0 395.0,500.0 "/>
<polygon fill="#001DFF" points="0.0,0.0 395.0,500.0 396.0,500.0 "/>
<polygon fill="#000000" points="0.0,0.0 396.0,500.0 397.0,500.0 "/>
<polygon fill="#001DFF" points="0.0,0.0 397.0,500.0 398.0,500.0 "/>
<polygon fill="#000000" points="0.0,0.0 398.0,500.0 399.0,500.0 "/>
<polygon fill="#001DFF" points="0.0,0.0 399.0,500.0 400.0,500.0 "/>
<polygon fill="#000000" points="0.0,0.0 400.0,500.0 401.0,500.0 "/>
<polygon fill="#001DFF" points="0.0,0.0 401.0,500.0 402.0,500.0 "/>
<polygon fill="#000000" points="0.0,0.0 402.0,500.0 403.0,500.0 "/>
<polygon fill="#001DFF" points="0.0,0.0 403.0,500.0 404.0,500.0 "/>
<polygon fill="#000000" points="0.0,0.0 404.0,500.0 405.0,500.0 "/>
<polygon fill="#001DFF" points="0.0,0.0 405.0,500.0 406.0,500.0 "/>
<polygon fill="#000000" points="0.0,0.0 406.0,500.0 407.0,500.0 "/>
<polygon fill="#001DFF" points="0.0,0.0 407.0,500.0 408.0,500.0 "/>
<polygon fill="#000000" points="0.0,0.0 408.0,500.0 409.0,500.0 "/>
<polygon fill="#001DFF" points="0.0,0.0 409.0,500.0 410.0,500.0 "/>
<polygon fill="#000000" points="0.0,0.0 410.0,500.0 411.0,500.0 "/>
<polygon fill="#001DFF" points="0.0,0.0 411.0,500.0 412.0,500.0 "/>
<polygon fill="#000000" points="0.0,0.0 412.0,500.0 413.0,500.0 "/>
<polygon fill="#001DFF" points="0.0,0.0 413.0,500.0 414.0,500.0 "/>
<polygon fill="#000000" points="0.0,0.0 414.0,500.0 415.0,500.0 "/>
<polygon fill="#001DFF" points="0.0,0.0 415.0,500.0 416.0,500.0 "/>
<polygon fill="#000000" points="0.0,0.0 416.0,500.0 417.0,500.0 "/>
<polygon fill="#001DFF" points="0.0,0.0 417.0,500.0 418.0,500.0 "/>
<polygon fill="#000000" points="0.0,0.0 418.0,500.0 419.0,500.0 "/>
<polygon fill="#001DFF" points="0.0,0.0 419.0,500.0 420.0,500.0 "/>
<polygon fill="#000000" points="0.0,0.0 420.0,500.0 421.0,500.0 "/>
<polygon fill="#001DFF" points="0.0,0.0 421.0,500.0 422.0,500.0 "/>
<polygon fill="#000000" points="0.0,0.0 422.0,500.0 423.0,500.0 "/>
<polygon fill="#001DFF" points="0.0,0.0 423.0,500.0 424.0,500.0 "/>
<polygon fill="#000000" points="0.0,0.0 424.0,500.0 425.0,500.0 "/>
<polygon fill="#001DFF" points="0.0,0.0 425.0,500.0 426.0,500.0 "/>
<polygon fill="#000000" points="0.0,0.0 426.0,500.0 427.0,500.0 "/>
<polygon fill="#001DFF" points="0.0,0.0 427.0,500.0 428.0,500.0 "/>
<polygon fill="#000000" points="0.0,0.0 428.0,500.0 429.0,500.0 "/>
<polygon fill="#001DFF" points="0.0,0.0 429.0,500.0 430.0,500.0 "/>
<polygon fill="#000000" points="0.0,0.0 430.0,500.0 431.0,500.0 "/>
<polygon fill="#001DFF" points="0.0,0.0 431.0,500.0 432.0,500.0 "/>
<polygon fill="#000000" points="0.0,0.0 432.0,500.0 433.0,500.0 "/>
<polygon fill="#001DFF" points="0.0,0.0 433.0,500.0 434.0,500.0 "/>
<polygon fill="#000000" points="0.0,0.0 434.0,500.0 435.0,500.0 "/>
<polygon fill="#001DFF" points="0.0,0.0 435.0,500.0 436.0,500.0 "/>
<polygon fill="#000000" points="0.0,0.0 436.0,500.0 437.0,500.0 "/>
<polygon fill="#001DFF" points="0.0,0.0 437.0,500.0 438.0,500.0 "/>
<polygon fill="#000000" points="0.0,0.0 438.0,500.0 439.0,500.0 "/>
<polygon fill="#001DFF" points="0.0,0.0 439.0,500.0 440.0,500.0 "/>
<polygon fill="#000000" points="0.0,0.0 440.0,500.0 441.0,500.0 "/>
<polygon fill="#001DFF" points="0.0,0.0 441.0,500.0 442.0,500.0 "/>
<polygon fill="#000000" points="0.0,0.0 442.0,500.0 443.0,500.0 "/>
<polygon fill="#001DFF" points="0.0,0.0 443.0,500.0 444.0,500.0 "/>
<polygon fill="#000000" points="0.0,0.0 444.0,500.0 445.0,500.0 "/>
<polygon fill="#001DFF" points="0.0,0.0 445.0,500.0 446.0,500.0 "/>
<polygon fill="#000000" points="0.0,0.0 446.0,500.0 447.0,500.0 "/>
<polygon fill="#001DFF" points="0.0,0.0 447.0,500.0 448.0,500.0 "/>
<polygon fill="#000000" points="0.0,0.0 448.0,500.0 449.0,500.0 "/>
<polygon fill="#001DFF" points="0.0,0.0 449.0,500.0 450.0,500.0 "/>
<polygon fill="#000000" points="0.0,0.0 450.0,500.0 451.0,500.0 "/>
<polygon fill="#001DFF" points="0.0,0.0 451.0,500.0 452.0,500.0 "/>
<polygon fill="#000000" points="0.0,0.0 452.0,500.0 453.0,500.0 "/>
<polygon fill="#001DFF" points="0.0,0.0 453.0,500.0 454.0,500.0 "/>
<polygon fill="#000000" points="0.0,0.0 454.0,500.0 455.0,500.0 "/>
<polygon fill="#001DFF" points="0.0,0.0 455.0,500.0 456.0,500.0 "/>
<polygon fill="#000000" points="0.0,0.0 456.0,500.0 457.0,500.0 "/>
<polygon fill="#001DFF" points="0.0,0.0 457.0,500.0 458.0,500.0 "/>
<polygon fill="#000000" points="0.0,0.0 458.0,500.0 459.0,500.0 "/>
<polygon fill="#001DFF" points="0.0,0.0 459.0,500.0 460.0,500.0 "/>
<polygon fill="#000000" points="0.0,0.0 460.0,500.0 461.0,500.0 "/>
<polygon fill="#001DFF" points="0.0,0.0 461.0,500.0 462.0,500.0 "/>
<polygon fill="#000000" points="0.0,0.0 462.0,500.0 463.0,500.0 "/>
<polygon fill="#001DFF" points="0.0,0.0 463.0,500.0 464.0,500.0 "/>
<polygon fill="#000000" points="0.0,0.0 464.0,500.0 465.0,500.0 "/>
<polygon fill="#001DFF" points="0.0,0.0 465.0,500.0 466.0,500.0 "/>
<polygon fill="#000000" points="0.0,0.0 466.0,500.0 467.0,500.0 "/>
<polygon fill="#001DFF" points="0.0,0.0 467.0,500.0 468.0,500.0 "/>
<polygon fill="#000000" points="0.0,0.0 468.0,500.0 469.0,500.0 "/>
<polygon fill="#001DFF" points="0.0,0.0 469.0,500.0 470.0,500.0 "/>
<polygon fill="#000000" points="0.0,0.0 470.0,500.0 471.0,500.0 "/>
<polygon fill="#001DFF" points="0.0,0.0 471.0,500.0 472.0,500.0 "/>
<polygon fill="#000000" points="0.0,0.0 472.0,500.0 473.0,500.0 "/>
<polygon fill="#001DFF" points="0.0,0.0 473.0,500.0 474.0,500.0 "/>
<polygon fill="#000000" points="0.0,0.0 474.0,500.0 475.0,500.0 "/>
<polygon fill="#001DFF" points="0.0,0.0 475.0,500.0 476.0,500.0 "/>
<polygon fill="#000000" points="0.0,0.0 476.0,500.0 477.0,500.0 "/>
<polygon fill="#001DFF" points="0.0,0.0 477.0,500.0 478.0,500.0 "/>
<polygon fill="#000000" points="0.0,0.0 478.0,500.0 479.0,500.0 "/>
<polygon fill="#001DFF" points="0.0,0.0 479.0,500.0 480.0,500.0 "/>
<polygon fill="#000000" points="0.0,0.0 480.0,500.0 481.0,500.0 "/>
<polygon fill="#001DFF" points="0.0,0.0 481.0,500.0 482.0,500.0 "/>
<polygon fill="#000000" points="0.0,0.0 482.0,500.0 483.0,500.0 "/>
<polygon fill="#001DFF" points="0.0,0.0 483.0,500.0 484.0,500.0 "/>
<polygon fill="#000000" points="0.0,0.0 484.0,500.0 485.0,500.0 "/>
<polygon fill="#001DFF" points="0.0,0.0 485.0,500.0 486.0,500.0 "/>
<polygon fill="#000000" points="0.0,0.0 486.0,500.0 487.0,500.0 "/>
<polygon fill="#001DFF" points="0.0,0.0 487.0,500.0 488.0,500.0 "/>
<polygon fill="#000000" points="0.0,0.0 488.0,500.0 489.0,500.0 "/>
<polygon fill="#001DFF" points="0.0,0.0 489.0,500.0 490.0,500.0 "/>
<polygon fill="#000000" points="0.0,0.0 490.0,500.0 491.0,500.0 "/>
<polygon fill="#001DFF" points="0.0,0.0 491.0,500.0 492.0,500.0 "/>
<polygon fill="#000000" points="0.0,0.0 492.0,500.0 493.0,500.0 "/>
<polygon fill="#001DFF" points="0.0,0.0 493.0,500.0 494.0,500.0 "/>
<polygon fill="#000000" points="0.0,0.0 494.0,500.0 495.0,500.0 "/>
<polygon fill="#001DFF" points="0.0,0.0 495.0,500.0 496.0,500.0 "/>
<polygon fill="#000000" points="0.0,0.0 496.0,500.0 497.0,500.0 "/>
<polygon fill="#001DFF" points="0.0,0.0 497.0,500.0 498.0,500.0 "/>
<polygon fill="#000000" points="0.0,0.0 498.0,500.0 499.0,500.0 "/>
<polygon fill="#001DFF" points="0.0,0.0 499.0,500.0 500.0,500.0 "/>
<polygon fill="#001DFF" points="0.0,0.0 500.0,0.0 500.0,1.0 "/>
<polygon fill="#000000" points="0.0,0.0 500.0,1.0 500.0,2.0 "/>
<polygon fill="#001DFF" points="0.0,0.0 500.0,2.0 500.0,3.0 "/>
<polygon fill="#000000" points="0.0,0.0 500.0,3.0 500.0,4.0 "/>
<polygon fill="#001DFF" points="0.0,0.0 500.0,4.0 500.0,5.0 "/>
<polygon fill="#000000" points="0.0,0.0 500.0,5.0 500.0,6.0 "/>
<polygon fill="#001DFF" points="0.0,0.0 500.0,6.0 500.0,7.0 "/>
<polygon fill="#000000" points="0.0,0.0 500.0,7.0 500.0,8.0 "/>
<polygon fill="#001DFF" points="0.0,0.0 500.0,8.0 500.0,9.0 "/>
<polygon fill="#000000" points="0.0,0.0 500.0,9.0 500.0,10.0 "/>
<polygon fill="#001DFF" points="0.0,0.0 500.0,10.0 500.0,11.0 "/>
<polygon fill="#000000" points="0.0,0.0 500.0,11.0 500.0,12.0 "/>
<polygon fill="#001DFF" points="0.0,0.0 500.0,12.0 500.0,13.0 "/>
<polygon fill="#000000" points="0.0,0.0 500.0,13.0 500.0,14.0 "/>
<polygon fill="#001DFF" points="0.0,0.0 500.0,14.0 500.0,15.0 "/>
<polygon fill="#000000" points="0.0,0.0 500.0,15.0 500.0,16.0 "/>
<polygon fill="#001DFF" points="0.0,0.0 500.0,16.0 500.0,17.0 "/>
<polygon fill="#000000" points="0.0,0.0 500.0,17.0 500.0,18.0 "/>
<polygon fill="#001DFF" points="0.0,0.0 500.0,18.0 500.0,19.0 "/>
<polygon fill="#000000" points="0.0,0.0 500.0,19.0 500.0,20.0 "/>
<polygon fill="#001DFF" points="0.0,0.0 500.0,20.0 500.0,21.0 "/>
<polygon fill="#000000" points="0.0,0.0 500.0,21.0 500.0,22.0 "/>
<polygon fill="#001DFF" points="0.0,0.0 500.0,22.0 500.0,23.0 "/>
<polygon fill="#000000" points="0.0,0.0 500.0,23.0 500.0,24.0 "/>
<polygon fill="#001DFF" points="0.0,0.0 500.0,24.0 500.0,25.0 "/>
<polygon fill="#000000" points="0.0,0.0 500.0,25.0 500.0,26.0 "/>
<polygon fill="#001DFF" points="0.0,0.0 500.0,26.0 500.0,27.0 "/>
<polygon fill="#000000" points="0.0,0.0 500.0,27.0 500.0,28.0 "/>
<polygon fill="#001DFF" points="0.0,0.0 500.0,28.0 500.0,29.0 "/>
<polygon fill="#000000" points="0.0,0.0 500.0,29.0 500.0,30.0 "/>
<polygon fill="#001DFF" points="0.0,0.0 500.0,30.0 500.0,31.0 "/>
<polygon fill="#000000" points="0.0,0.0 500.0,31.0 500.0,32.0 "/>
<polygon fill="#001DFF" points="0.0,0.0 500.0,32.0 500.0,33.0 "/>
<polygon fill="#000000" points="0.0,0.0 500.0,33.0 500.0,34.0 "/>
<polygon fill="#001DFF" points="0.0,0.0 500.0,34.0 500.0,35.0 "/>
<polygon fill="#000000" points="0.0,0.0 500.0,35.0 500.0,36.0 "/>
<polygon fill="#001DFF" points="0.0,0.0 500.0,36.0 500.0,37.0 "/>
<polygon fill="#000000" points="0.0,0.0 500.0,37.0 500.0,38.0 "/>
<polygon fill="#001DFF" points="0.0,0.0 500.0,38.0 500.0,39.0 "/>
<polygon fill="#000000" points="0.0,0.0 500.0,39.0 500.0,40.0 "/>
<polygon fill="#001DFF" points="0.0,0.0 500.0,40.0 500.0,41.0 "/>
<polygon fill="#000000" points="0.0,0.0 500.0,41.0 500.0,42.0 "/>
<polygon fill="#001DFF" points="0.0,0.0 500.0,42.0 500.0,43.0 "/>
<polygon fill="#000000" points="0.0,0.0 500.0,43.0 500.0,44.0 "/>
<polygon fill="#001DFF" points="0.0,0.0 500.0,44.0 500.0,45.0 "/>
<polygon fill="#000000" points="0.0,0.0 500.0,45.0 500.0,46.0 "/>
<polygon fill="#001DFF" points="0.0,0.0 500.0,46.0 500.0,47.0 "/>
<polygon fill="#000000" points="0.0,0.0 500.0,47.0 500.0,48.0 "/>
<polygon fill="#001DFF" points="0.0,0.0 500.0,48.0 500.0,49.0 "/>
<polygon fill="#000000" points="0.0,0.0 500.0,49.0 500.0,50.0 "/>
<polygon fill="#001DFF" points="0.0,0.0 500.0,50.0 500.0,51.0 "/>
<polygon fill="#000000" points="0.0,0.0 500.0,51.0 500.0,52.0 "/>
<polygon fill="#001DFF" points="0.0,0.0 500.0,52.0 500.0,53.0 "/>
<polygon fill="#000000" points="0.0,0.0 500.0,53.0 500.0,54.0 "/>
<polygon fill="#001DFF" points="0.0,0.0 500.0,54.0 500.0,55.0 "/>
<polygon fill="#000000" points="0.0,0.0 500.0,55.0 500.0,56.0 "/>
<polygon fill="#001DFF" points="0.0,0.0 500.0,56.0 500.0,57.0 "/>
<polygon fill="#000000" points="0.0,0.0 500.0,57.0 500.0,58.0 "/>
<polygon fill="#001DFF" points="0.0,0.0 500.0,58.0 500.0,59.0 "/>
<polygon fill="#000000" points="0.0,0.0 500.0,59.0 500.0,60.0 "/>
<polygon fill="#001DFF" points="0.0,0.0 500.0,60.0 500.0,61.0 "/>
<polygon fill="#000000" points="0.0,0.0 500.0,61.0 500.0,62.0 "/>
<polygon fill="#001DFF" points="0.0,0.0 500.0,62.0 500.0,63.0 "/>
<polygon fill="#000000" points="0.0,0.0 500.0,63.0 500.0,64.0 "/>
<polygon fill="#001DFF" points="0.0,0.0 500.0,64.0 500.0,65.0 "/>
<polygon fill="#000000" points="0.0,0.0 500.0,65.0 500.0,66.0 "/>
<polygon fill="#001DFF" points="0.0,0.0 500.0,66.0 500.0,67.0 "/>
<polygon fill="#000000" points="0.0,0.0 500.0,67.0 500.0,68.0 "/>
<polygon fill="#001DFF" points="0.0,0.0 500.0,68.0 500.0,69.0 "/>
<polygon fill="#000000" points="0.0,0.0 500.0,69.0 500.0,70.0 "/>
<polygon fill="#001DFF" points="0.0,0.0 500.0,70.0 500.0,71.0 "/>
<polygon fill="#000000" points="0.0,0.0 500.0,71.0 500.0,72.0 "/>
<polygon fill="#001DFF" points="0.0,0.0 500.0,72.0 500.0,73.0 "/>
<polygon fill="#000000" points="0.0,0.0 500.0,73.0 500.0,74.0 "/>
<polygon fill="#001DFF" points="0.0,0.0 500.0,74.0 500.0,75.0 "/>
<polygon fill="#000000" points="0.0,0.0 500.0,75.0 500.0,76.0 "/>
<polygon fill="#001DFF" points="0.0,0.0 500.0,76.0 500.0,77.0 "/>
<polygon fill="#000000" points="0.0,0.0 500.0,77.0 500.0,78.0 "/>
<polygon fill="#001DFF" points="0.0,0.0 500.0,78.0 500.0,79.0 "/>
<polygon fill="#000000" points="0.0,0.0 500.0,79.0 500.0,80.0 "/>
<polygon fill="#001DFF" points="0.0,0.0 500.0,80.0 500.0,81.0 "/>
<polygon fill="#000000" points="0.0,0.0 500.0,81.0 500.0,82.0 "/>
<polygon fill="#001DFF" points="0.0,0.0 500.0,82.0 500.0,83.0 "/>
<polygon fill="#000000" points="0.0,0.0 500.0,83.0 500.0,84.0 "/>
<polygon fill="#001DFF" points="0.0,0.0 500.0,84.0 500.0,85.0 "/>
<polygon fill="#000000" points="0.0,0.0 500.0,85.0 500.0,86.0 "/>
<polygon fill="#001DFF" points="0.0,0.0 500.0,86.0 500.0,87.0 "/>
<polygon fill="#000000" points="0.0,0.0 500.0,87.0 500.0,88.0 "/>
<polygon fill="#001DFF" points="0.0,0.0 500.0,88.0 500.0,89.0 "/>
<polygon fill="#000000" points="0.0,0.0 500.0,89.0 500.0,90.0 "/>
<polygon fill="#001DFF" points="0.0,0.0 500.0,90.0 500.0,91.0 "/>
<polygon fill="#000000" points="0.0,0.0 500.0,91.0 500.0,92.0 "/>
<polygon fill="#001DFF" points="0.0,0.0 500.0,92.0 500.0,93.0 "/>
<polygon fill="#000000" points="0.0,0.0 500.0,93.0 500.0,94.0 "/>
<polygon fill="#001DFF" points="0.0,0.0 500.0,94.0 500.0,95.0 "/>
<polygon fill="#000000" points="0.0,0.0 500.0,95.0 500.0,96.0 "/>
<polygon fill="#001DFF" points="0.0,0.0 500.0,96.0 500.0,97.0 "/>
<polygon fill="#000000" points="0.0,0.0 500.0,97.0 500.0,98.0 "/>
<polygon fill="#001DFF" points="0.0,0.0 500.0,98.0 500.0,99.0 "/>
<polygon fill="#000000" points="0.0,0.0 500.0,99.0 500.0,100.0 "/>
<polygon fill="#001DFF" points="0.0,0.0 500.0,100.0 500.0,101.0 "/>
<polygon fill="#000000" points="0.0,0.0 500.0,101.0 500.0,102.0 "/>
<polygon fill="#001DFF" points="0.0,0.0 500.0,102.0 500.0,103.0 "/>
<polygon fill="#000000" points="0.0,0.0 500.0,103.0 500.0,104.0 "/>
<polygon fill="#001DFF" points="0.0,0.0 500.0,104.0 500.0,105.0 "/>
<polygon fill="#000000" points="0.0,0.0 500.0,105.0 500.0,106.0 "/>
<polygon fill="#001DFF" points="0.0,0.0 500.0,106.0 500.0,107.0 "/>
<polygon fill="#000000" points="0.0,0.0 500.0,107.0 500.0,108.0 "/>
<polygon fill="#001DFF" points="0.0,0.0 500.0,108.0 500.0,109.0 "/>
<polygon fill="#000000" points="0.0,0.0 500.0,109.0 500.0,110.0 "/>
<polygon fill="#001DFF" points="0.0,0.0 500.0,110.0 500.0,111.0 "/>
<polygon fill="#000000" points="0.0,0.0 500.0,111.0 500.0,112.0 "/>
<polygon fill="#001DFF" points="0.0,0.0 500.0,112.0 500.0,113.0 "/>
<polygon fill="#000000" points="0.0,0.0 500.0,113.0 500.0,114.0 "/>
<polygon fill="#001DFF" points="0.0,0.0 500.0,114.0 500.0,115.0 "/>
<polygon fill="#000000" points="0.0,0.0 500.0,115.0 500.0,116.0 "/>
<polygon fill="#001DFF" points="0.0,0.0 500.0,116.0 500.0,117.0 "/>
<polygon fill="#000000" points="0.0,0.0 500.0,117.0 500.0,118.0 "/>
<polygon fill="#001DFF" points="0.0,0.0 500.0,118.0 500.0,119.0 "/>
<polygon fill="#000000" points="0.0,0.0 500.0,119.0 500.0,120.0 "/>
<polygon fill="#001DFF" points="0.0,0.0 500.0,120.0 500.0,121.0 "/>
<polygon fill="#000000" points="0.0,0.0 500.0,121.0 500.0,122.0 "/>
<polygon fill="#001DFF" points="0.0,0.0 500.0,122.0 500.0,123.0 "/>
<polygon fill="#000000" points="0.0,0.0 500.0,123.0 500.0,124.0 "/>
<polygon fill="#001DFF" points="0.0,0.0 500.0,124.0 500.0,125.0 "/>
<polygon fill="#000000" points="0.0,0.0 500.0,125.0 500.0,126.0 "/>
<polygon fill="#001DFF" points="0.0,0.0 500.0,126.0 500.0,127.0 "/>
<polygon fill="#000000" points="0.0,0.0 500.0,127.0 500.0,128.0 "/>
<polygon fill="#001DFF" points="0.0,0.0 500.0,128.0 500.0,129.0 "/>
<polygon fill="#000000" points="0.0,0.0 500.0,129.0 500.0,130.0 "/>
<polygon fill="#001DFF" points="0.0,0.0 500.0,130.0 500.0,131.0 "/>
<polygon fill="#000000" points="0.0,0.0 500.0,131.0 500.0,132.0 "/>
<polygon fill="#001DFF" points="0.0,0.0 500.0,132.0 500.0,133.0 "/>
<polygon fill="#000000" points="0.0,0.0 500.0,133.0 500.0,134.0 "/>
<polygon fill="#001DFF" points="0.0,0.0 500.0,134.0 500.0,135.0 "/>
<polygon fill="#000000" points="0.0,0.0 500.0,135.0 500.0,136.0 "/>
<polygon fill="#001DFF" points="0.0,0.0 500.0,136.0 500.0,137.0 "/>
<polygon fill="#000000" points="0.0,0.0 500.0,137.0 500.0,138.0 "/>
<polygon fill="#001DFF" points="0.0,0.0 500.0,138.0 500.0,139.0 "/>
<polygon fill="#000000" points="0.0,0.0 500.0,139.0 500.0,140.0 "/>
<polygon fill="#001DFF" points="0.0,0.0 500.0,140.0 500.0,141.0 "/>
<polygon fill="#000000" points="0.0,0.0 500.0,141.0 500.0,142.0 "/>
<polygon fill="#001DFF" points="0.0,0.0 500.0,142.0 500.0,143.0 "/>
<polygon fill="#000000" points="0.0,0.0 500.0,143.0 500.0,144.0 "/>
<polygon fill="#001DFF" points="0.0,0.0 500.0,144.0 500.0,145.0 "/>
<polygon fill="#000000" points="0.0,0.0 500.0,145.0 500.0,146.0 "/>
<polygon fill="#001DFF" points="0.0,0.0 500.0,146.0 500.0,147.0 "/>
<polygon fill="#000000" points="0.0,0.0 500.0,147.0 500.0,148.0 "/>
<polygon fill="#001DFF" points="0.0,0.0 500.0,148.0 500.0,149.0 "/>
<polygon fill="#000000" points="0.0,0.0 500.0,149.0 500.0,150.0 "/>
<polygon fill="#001DFF" points="0.0,0.0 500.0,150.0 500.0,151.0 "/>
<polygon fill="#000000" points="0.0,0.0 500.0,151.0 500.0,152.0 "/>
<polygon fill="#001DFF" points="0.0,0.0 500.0,152.0 500.0,153.0 "/>
<polygon fill="#000000" points="0.0,0.0 500.0,153.0 500.0,154.0 "/>
<polygon fill="#001DFF" points="0.0,0.0 500.0,154.0 500.0,155.0 "/>
<polygon fill="#000000" points="0.0,0.0 500.0,155.0 500.0,156.0 "/>
<polygon fill="#001DFF" points="0.0,0.0 500.0,156.0 500.0,157.0 "/>
<polygon fill="#000000" points="0.0,0.0 500.0,157.0 500.0,158.0 "/>
<polygon fill="#001DFF" points="0.0,0.0 500.0,158.0 500.0,159.0 "/>
<polygon fill="#000000" points="0.0,0.0 500.0,159.0 500.0,160.0 "/>
<polygon fill="#001DFF" points="0.0,0.0 500.0,160.0 500.0,161.0 "/>
<polygon fill="#000000" points="0.0,0.0 500.0,161.0 500.0,162.0 "/>
<polygon fill="#001DFF" points="0.0,0.0 500.0,162.0 500.0,163.0 "/>
<polygon fill="#000000" points="0.0,0.0 500.0,163.0 500.0,164.0 "/>
<polygon fill="#001DFF" points="0.0,0.0 500.0,164.0 500.0,165.0 "/>
<polygon fill="#000000" points="0.0,0.0 500.0,165.0 500.0,166.0 "/>
<polygon fill="#001DFF" points="0.0,0.0 500.0,166.0 500.0,167.0 "/>
<polygon fill="#000000" points="0.0,0.0 500.0,167.0 500.0,168.0 "/>
<polygon fill="#001DFF" points="0.0,0.0 500.0,168.0 500.0,169.0 "/>
<polygon fill="#000000" points="0.0,0.0 500.0,169.0 500.0,170.0 "/>
<polygon fill="#001DFF" points="0.0,0.0 500.0,170.0 500.0,171.0 "/>
<polygon fill="#000000" points="0.0,0.0 500.0,171.0 500.0,172.0 "/>
<polygon fill="#001DFF" points="0.0,0.0 500.0,172.0 500.0,173.0 "/>
<polygon fill="#000000" points="0.0,0.0 500.0,173.0 500.0,174.0 "/>
<polygon fill="#001DFF" points="0.0,0.0 500.0,174.0 500.0,175.0 "/>
<polygon fill="#000000" points="0.0,0.0 500.0,175.0 500.0,176.0 "/>
<polygon fill="#001DFF" points="0.0,0.0 500.0,176.0 500.0,177.0 "/>
<polygon fill="#000000" points="0.0,0.0 500.0,177.0 500.0,178.0 "/>
<polygon fill="#001DFF" points="0.0,0.0 500.0,178.0 500.0,179.0 "/>
<polygon fill="#000000" points="0.0,0.0 500.0,179.0 500.0,180.0 "/>
<polygon fill="#001DFF" points="0.0,0.0 500.0,180.0 500.0,181.0 "/>
<polygon fill="#000000" points="0.0,0.0 500.0,181.0 500.0,182.0 "/>
<polygon fill="#001DFF" points="0.0,0.0 500.0,182.0 500.0,183.0 "/>
<polygon fill="#000000" points="0.0,0.0 500.0,183.0 500.0,184.0 "/>
<polygon fill="#001DFF" points="0.0,0.0 500.0,184.0 500.0,185.0 "/>
<polygon fill="#000000" points="0.0,0.0 500.0,185.0 500.0,186.0 "/>
<polygon fill="#001DFF" points="0.0,0.0 500.0,186.0 500.0,187.0 "/>
<polygon fill="#000000" points="0.0,0.0 500.0,187.0 500.0,188.0 "/>
<polygon fill="#001DFF" points="0.0,0.0 500.0,188.0 500.0,189.0 "/>
<polygon fill="#000000" points="0.0,0.0 500.0,189.0 500.0,190.0 "/>
<polygon fill="#001DFF" points="0.0,0.0 500.0,190.0 500.0,191.0 "/>
<polygon fill="#000000" points="0.0,0.0 500.0,191.0 500.0,192.0 "/>
<polygon fill="#001DFF" points="0.0,0.0 500.0,192.0 500.0,193.0 "/>
<polygon fill="#000000" points="0.0,0.0 500.0,193.0 500.0,194.0 "/>
<polygon fill="#001DFF" points="0.0,0.0 500.0,194.0 500.0,195.0 "/>
<polygon fill="#000000" points="0.0,0.0 500.0,195.0 500.0,196.0 "/>
<polygon fill="#001DFF" points="0.0,0.0 500.0,196.0 500.0,197.0 "/>
<polygon fill="#000000" points="0.0,0.0 500.0,197.0 500.0,198.0 "/>
<polygon fill="#001DFF" points="0.0,0.0 500.0,198.0 500.0,199.0 "/>
<polygon fill="#000000" points="0.0,0.0 500.0,199.0 500.0,200.0 "/>
<polygon fill="#001DFF" points="0.0,0.0 500.0,200.0 500.0,201.0 "/>
<polygon fill="#000000" points="0.0,0.0 500.0,201.0 500.0,202.0 "/>
<polygon fill="#001DFF" points="0.0,0.0 500.0,202.0 500.0,203.0 "/>
<polygon fill="#000000" points="0.0,0.0 500.0,203.0 500.0,204.0 "/>
<polygon fill="#001DFF" points="0.0,0.0 500.0,204.0 500.0,205.0 "/>
<polygon fill="#000000" points="0.0,0.0 500.0,205.0 500.0,206.0 "/>
<polygon fill="#001DFF" points="0.0,0.0 500.0,206.0 500.0,207.0 "/>
<polygon fill="#000000" points="0.0,0.0 500.0,207.0 500.0,208.0 "/>
<polygon fill="#001DFF" points="0.0,0.0 500.0,208.0 500.0,209.0 "/>
<polygon fill="#000000" points="0.0,0.0 500.0,209.0 500.0,210.0 "/>
<polygon fill="#001DFF" points="0.0,0.0 500.0,210.0 500.0,211.0 "/>
<polygon fill="#000000" points="0.0,0.0 500.0,211.0 500.0,212.0 "/>
<polygon fill="#001DFF" points="0.0,0.0 500.0,212.0 500.0,213.0 "/>
<polygon fill="#000000" points="0.0,0.0 500.0,213.0 500.0,214.0 "/>
<polygon fill="#001DFF" points="0.0,0.0 500.0,214.0 500.0,215.0 "/>
<polygon fill="#000000" points="0.0,0.0 500.0,215.0 500.0,216.0 "/>
<polygon fill="#001DFF" points="0.0,0.0 500.0,216.0 500.0,217.0 "/>
<polygon fill="#000000" points="0.0,0.0 500.0,217.0 500.0,218.0 "/>
<polygon fill="#001DFF" points="0.0,0.0 500.0,218.0 500.0,219.0 "/>
<polygon fill="#000000" points="0.0,0.0 500.0,219.0 500.0,220.0 "/>
<polygon fill="#001DFF" points="0.0,0.0 500.0,220.0 500.0,221.0 "/>
<polygon fill="#000000" points="0.0,0.0 500.0,221.0 500.0,222.0 "/>
<polygon fill="#001DFF" points="0.0,0.0 500.0,222.0 500.0,223.0 "/>
<polygon fill="#000000" points="0.0,0.0 500.0,223.0 500.0,224.0 "/>
<polygon fill="#001DFF" points="0.0,0.0 500.0,224.0 500.0,225.0 "/>
<polygon fill="#000000" points="0.0,0.0 500.0,225.0 500.0,226.0 "/>
<polygon fill="#001DFF" points="0.0,0.0 500.0,226.0 500.0,227.0 "/>
<polygon fill="#000000" points="0.0,0.0 500.0,227.0 500.0,228.0 "/>
<polygon fill="#001DFF" points="0.0,0.0 500.0,228.0 500.0,229.0 "/>
<polygon fill="#000000" points="0.0,0.0 500.0,229.0 500.0,230.0 "/>
<polygon fill="#001DFF" points="0.0,0.0 500.0,230.0 500.0,231.0 "/>
<polygon fill="#000000" points="0.0,0.0 500.0,231.0 500.0,232.0 "/>
<polygon fill="#001DFF" points="0.0,0.0 500.0,232.0 500.0,233.0 "/>
<polygon fill="#000000" points="0.0,0.0 500.0,233.0 500.0,234.0 "/>
<polygon fill="#001DFF" points="0.0,0.0 500.0,234.0 500.0,235.0 "/>
<polygon fill="#000000" points="0.0,0.0 500.0,235.0 500.0,236.0 "/>
<polygon fill="#001DFF" points="0.0,0.0 500.0,236.0 500.0,237.0 "/>
<polygon fill="#000000" points="0.0,0.0 500.0,237.0 500.0,238.0 "/>
<polygon fill="#001DFF" points="0.0,0.0 500.0,238.0 500.0,239.0 "/>
<polygon fill="#000000" points="0.0,0.0 500.0,239.0 500.0,240.0 "/>
<polygon fill="#001DFF" points="0.0,0.0 500.0,240.0 500.0,241.0 "/>
<polygon fill="#000000" points="0.0,0.0 500.0,241.0 500.0,242.0 "/>
<polygon fill="#001DFF" points="0.0,0.0 500.0,242.0 500.0,243.0 "/>
<polygon fill="#000000" points="0.0,0.0 500.0,243.0 500.0,244.0 "/>
<polygon fill="#001DFF" points="0.0,0.0 500.0,244.0 500.0,245.0 "/>
<polygon fill="#000000" points="0.0,0.0 500.0,245.0 500.0,246.0 "/>
<polygon fill="#001DFF" points="0.0,0.0 500.0,246.0 500.0,247.0 "/>
<polygon fill="#000000" points="0.0,0.0 500.0,247.0 500.0,248.0 "/>
<polygon fill="#001DFF" points="0.0,0.0 500.0,248.0 500.0,249.0 "/>
<polygon fill="#000000" points="0.0,0.0 500.0,249.0 500.0,250.0 "/>
<polygon fill="#001DFF" points="0.0,0.0 500.0,250.0 500.0,251.0 "/>
<polygon fill="#000000" points="0.0,0.0 500.0,251.0 500.0,252.0 "/>
<polygon fill="#001DFF" points="0.0,0.0 500.0,252.0 500.0,253.0 "/>
<polygon fill="#000000" points="0.0,0.0 500.0,253.0 500.0,254.0 "/>
<polygon fill="#001DFF" points="0.0,0.0 500.0,254.0 500.0,255.0 "/>
<polygon fill="#000000" points="0.0,0.0 500.0,255.0 500.0,256.0 "/>
<polygon fill="#001DFF" points="0.0,0.0 500.0,256.0 500.0,257.0 "/>
<polygon fill="#000000" points="0.0,0.0 500.0,257.0 500.0,258.0 "/>
<polygon fill="#001DFF" points="0.0,0.0 500.0,258.0 500.0,259.0 "/>
<polygon fill="#000000" points="0.0,0.0 500.0,259.0 500.0,260.0 "/>
<polygon fill="#001DFF" points="0.0,0.0 500.0,260.0 500.0,261.0 "/>
<polygon fill="#000000" points="0.0,0.0 500.0,261.0 500.0,262.0 "/>
<polygon fill="#001DFF" points="0.0,0.0 500.0,262.0 500.0,263.0 "/>
<polygon fill="#000000" points="0.0,0.0 500.0,263.0 500.0,264.0 "/>
<polygon fill="#001DFF" points="0.0,0.0 500.0,264.0 500.0,265.0 "/>
<polygon fill="#000000" points="0.0,0.0 500.0,265.0 500.0,266.0 "/>
<polygon fill="#001DFF" points="0.0,0.0 500.0,266.0 500.0,267.0 "/>
<polygon fill="#000000" points="0.0,0.0 500.0,267.0 500.0,268.0 "/>
<polygon fill="#001DFF" points="0.0,0.0 500.0,268.0 500.0,269.0 "/>
<polygon fill="#000000" points="0.0,0.0 500.0,269.0 500.0,270.0 "/>
<polygon fill="#001DFF" points="0.0,0.0 500.0,270.0 500.0,271.0 "/>
<polygon fill="#000000" points="0.0,0.0 500.0,271.0 500.0,272.0 "/>
<polygon fill="#001DFF" points="0.0,0.0 500.0,272.0 500.0,273.0 "/>
<polygon fill="#000000" points="0.0,0.0 500.0,273.0 500.0,274.0 "/>
<polygon fill="#001DFF" points="0.0,0.0 500.0,274.0 500.0,275.0 "/>
<polygon fill="#000000" points="0.0,0.0 500.0,275.0 500.0,276.0 "/>
<polygon fill="#001DFF" points="0.0,0.0 500.0,276.0 500.0,277.0 "/>
<polygon fill="#000000" points="0.0,0.0 500.0,277.0 500.0,278.0 "/>
<polygon fill="#001DFF" points="0.0,0.0 500.0,278.0 500.0,279.0 "/>
<polygon fill="#000000" points="0.0,0.0 500.0,279.0 500.0,280.0 "/>
<polygon fill="#001DFF" points="0.0,0.0 500.0,280.0 500.0,281.0 "/>
<polygon fill="#000000" points="0.0,0.0 500.0,281.0 500.0,282.0 "/>
<polygon fill="#001DFF" points="0.0,0.0 500.0,282.0 500.0,283.0 "/>
<polygon fill="#000000" points="0.0,0.0 500.0,283.0 500.0,284.0 "/>
<polygon fill="#001DFF" points="0.0,0.0 500.0,284.0 500.0,285.0 "/>
<polygon fill="#000000" points="0.0,0.0 500.0,285.0 500.0,286.0 "/>
<polygon fill="#001DFF" points="0.0,0.0 500.0,286.0 500.0,287.0 "/>
<polygon fill="#000000" points="0.0,0.0 500.0,287.0 500.0,288.0 "/>
<polygon fill="#001DFF" points="0.0,0.0 500.0,288.0 500.0,289.0 "/>
<polygon fill="#000000" points="0.0,0.0 500.0,289.0 500.0,290.0 "/>
<polygon fill="#001DFF" points="0.0,0.0 500.0,290.0 500.0,291.0 "/>
<polygon fill="#000000" points="0.0,0.0 500.0,291.0 500.0,292.0 "/>
<polygon fill="#001DFF" points="0.0,0.0 500.0,292.0 500.0,293.0 "/>
<polygon fill="#000000" points="0.0,0.0 500.0,293.0 500.0,294.0 "/>
<polygon fill="#001DFF" points="0.0,0.0 500.0,294.0 500.0,295.0 "/>
<polygon fill="#000000" points="0.0,0.0 500.0,295.0 500.0,296.0 "/>
<polygon fill="#001DFF" points="0.0,0.0 500.0,296.0 500.0,297.0 "/>
<polygon fill="#000000" points="0.0,0.0 500.0,297.0 500.0,298.0 "/>
<polygon fill="#001DFF" points="0.0,0.0 500.0,298.0 500.0,299.0 "/>
<polygon fill="#000000" points="0.0,0.0 500.0,299.0 500.0,300.0 "/>
<polygon fill="#001DFF" points="0.0,0.0 500.0,300.0 500.0,301.0 "/>
<polygon fill="#000000" points="0.0,0.0 500.0,301.0 500.0,302.0 "/>
<polygon fill="#001DFF" points="0.0,0.0 500.0,302.0 500.0,303.0 "/>
<polygon fill="#000000" points="0.0,0.0 500.0,303.0 500.0,304.0 "/>
<polygon fill="#001DFF" points="0.0,0.0 500.0,304.0 500.0,305.0 "/>
<polygon fill="#000000" points="0.0,0.0 500.0,305.0 500.0,306.0 "/>
<polygon fill="#001DFF" points="0.0,0.0 500.0,306.0 500.0,307.0 "/>
<polygon fill="#000000" points="0.0,0.0 500.0,307.0 500.0,308.0 "/>
<polygon fill="#001DFF" points="0.0,0.0 500.0,308.0 500.0,309.0 "/>
<polygon fill="#000000" points="0.0,0.0 500.0,309.0 500.0,310.0 "/>
<polygon fill="#001DFF" points="0.0,0.0 500.0,310.0 500.0,311.0 "/>
<polygon fill="#000000" points="0.0,0.0 500.0,311.0 500.0,312.0 "/>
<polygon fill="#001DFF" points="0.0,0.0 500.0,312.0 500.0,313.0 "/>
<polygon fill="#000000" points="0.0,0.0 500.0,313.0 500.0,314.0 "/>
<polygon fill="#001DFF" points="0.0,0.0 500.0,314.0 500.0,315.0 "/>
<polygon fill="#000000" points="0.0,0.0 500.0,315.0 500.0,316.0 "/>
<polygon fill="#001DFF" points="0.0,0.0 500.0,316.0 500.0,317.0 "/>
<polygon fill="#000000" points="0.0,0.0 500.0,317.0 500.0,318.0 "/>
<polygon fill="#001DFF" points="0.0,0.0 500.0,318.0 500.0,319.0 "/>
<polygon fill="#000000" points="0.0,0.0 500.0,319.0 500.0,320.0 "/>
<polygon fill="#001DFF" points="0.0,0.0 500.0,320.0 500.0,321.0 "/>
<polygon fill="#000000" points="0.0,0.0 500.0,321.0 500.0,322.0 "/>
<polygon fill="#001DFF" points="0.0,0.0 500.0,322.0 500.0,323.0 "/>
<polygon fill="#000000" points="0.0,0.0 500.0,323.0 500.0,324.0 "/>
<polygon fill="#001DFF" points="0.0,0.0 500.0,324.0 500.0,325.0 "/>
<polygon fill="#000000" points="0.0,0.0 500.0,325.0 500.0,326.0 "/>
<polygon fill="#001DFF" points="0.0,0.0 500.0,326.0 500.0,327.0 "/>
<polygon fill="#000000" points="0.0,0.0 500.0,327.0 500.0,328.0 "/>
<polygon fill="#001DFF" points="0.0,0.0 500.0,328.0 500.0,329.0 "/>
<polygon fill="#000000" points="0.0,0.0 500.0,329.0 500.0,330.0 "/>
<polygon fill="#001DFF" points="0.0,0.0 500.0,330.0 500.0,331.0 "/>
<polygon fill="#000000" points="0.0,0.0 500.0,331.0 500.0,332.0 "/>
<polygon fill="#001DFF" points="0.0,0.0 500.0,332.0 500.0,333.0 "/>
<polygon fill="#000000" points="0.0,0.0 500.0,333.0 500.0,334.0 "/>
<polygon fill="#001DFF" points="0.0,0.0 500.0,334.0 500.0,335.0 "/>
<polygon fill="#000000" points="0.0,0.0 500.0,335.0 500.0,336.0 "/>
<polygon fill="#001DFF" points="0.0,0.0 500.0,336.0 500.0,337.0 "/>
<polygon fill="#000000" points="0.0,0.0 500.0,337.0 500.0,338.0 "/>
<polygon fill="#001DFF" points="0.0,0.0 500.0,338.0 500.0,339.0 "/>
<polygon fill="#000000" points="0.0,0.0 500.0,339.0 500.0,340.0 "/>
<polygon fill="#001DFF" points="0.0,0.0 500.0,340.0 500.0,341.0 "/>
<polygon fill="#000000" points="0.0,0.0 500.0,341.0 500.0,342.0 "/>
<polygon fill="#001DFF" points="0.0,0.0 500.0,342.0 500.0,343.0 "/>
<polygon fill="#000000" points="0.0,0.0 500.0,343.0 500.0,344.0 "/>
<polygon fill="#001DFF" points="0.0,0.0 500.0,344.0 500.0,345.0 "/>
<polygon fill="#000000" points="0.0,0.0 500.0,345.0 500.0,346.0 "/>
<polygon fill="#001DFF" points="0.0,0.0 500.0,346.0 500.0,347.0 "/>
<polygon fill="#000000" points="0.0,0.0 500.0,347.0 500.0,348.0 "/>
<polygon fill="#001DFF" points="0.0,0.0 500.0,348.0 500.0,349.0 "/>
<polygon fill="#000000" points="0.0,0.0 500.0,349.0 500.0,350.0 "/>
<polygon fill="#001DFF" points="0.0,0.0 500.0,350.0 500.0,351.0 "/>
<polygon fill="#000000" points="0.0,0.0 500.0,351.0 500.0,352.0 "/>
<polygon fill="#001DFF" points="0.0,0.0 500.0,352.0 500.0,353.0 "/>
<polygon fill="#000000" points="0.0,0.0 500.0,353.0 500.0,354.0 "/>
<polygon fill="#001DFF" points="0.0,0.0 500.0,354.0 500.0,355.0 "/>
<polygon fill="#000000" points="0.0,0.0 500.0,355.0 500.0,356.0 "/>
<polygon fill="#001DFF" points="0.0,0.0 500.0,356.0 500.0,357.0 "/>
<polygon fill="#000000" points="0.0,0.0 500.0,357.0 500.0,358.0 "/>
<polygon fill="#001DFF" points="0.0,0.0 500.0,358.0 500.0,359.0 "/>
<polygon fill="#000000" points="0.0,0.0 500.0,359.0 500.0,360.0 "/>
<polygon fill="#001DFF" points="0.0,0.0 500.0,360.0 500.0,361.0 "/>
<polygon fill="#000000" points="0.0,0.0 500.0,361.0 500.0,362.0 "/>
<polygon fill="#001DFF" points="0.0,0.0 500.0,362.0 500.0,363.0 "/>
<polygon fill="#000000" points="0.0,0.0 500.0,363.0 500.0,364.0 "/>
<polygon fill="#001DFF" points="0.0,0.0 500.0,364.0 500.0,365.0 "/>
<polygon fill="#000000" points="0.0,0.0 500.0,365.0 500.0,366.0 "/>
<polygon fill="#001DFF" points="0.0,0.0 500.0,366.0 500.0,367.0 "/>
<polygon fill="#000000" points="0.0,0.0 500.0,367.0 500.0,368.0 "/>
<polygon fill="#001DFF" points="0.0,0.0 500.0,368.0 500.0,369.0 "/>
<polygon fill="#000000" points="0.0,0.0 500.0,369.0 500.0,370.0 "/>
<polygon fill="#001DFF" points="0.0,0.0 500.0,370.0 500.0,371.0 "/>
<polygon fill="#000000" points="0.0,0.0 500.0,371.0 500.0,372.0 "/>
<polygon fill="#001DFF" points="0.0,0.0 500.0,372.0 500.0,373.0 "/>
<polygon fill="#000000" points="0.0,0.0 500.0,373.0 500.0,374.0 "/>
<polygon fill="#001DFF" points="0.0,0.0 500.0,374.0 500.0,375.0 "/>
<polygon fill="#000000" points="0.0,0.0 500.0,375.0 500.0,376.0 "/>
<polygon fill="#001DFF" points="0.0,0.0 500.0,376.0 500.0,377.0 "/>
<polygon fill="#000000" points="0.0,0.0 500.0,377.0 500.0,378.0 "/>
<polygon fill="#001DFF" points="0.0,0.0 500.0,378.0 500.0,379.0 "/>
<polygon fill="#000000" points="0.0,0.0 500.0,379.0 500.0,380.0 "/>
<polygon fill="#001DFF" points="0.0,0.0 500.0,380.0 500.0,381.0 "/>
<polygon fill="#000000" points="0.0,0.0 500.0,381.0 500.0,382.0 "/>
<polygon fill="#001DFF" points="0.0,0.0 500.0,382.0 500.0,383.0 "/>
<polygon fill="#000000" points="0.0,0.0 500.0,383.0 500.0,384.0 "/>
<polygon fill="#001DFF" points="0.0,0.0 500.0,384.0 500.0,385.0 "/>
<polygon fill="#000000" points="0.0,0.0 500.0,385.0 500.0,386.0 "/>
<polygon fill="#001DFF" points="0.0,0.0 500.0,386.0 500.0,387.0 "/>
<polygon fill="#000000" points="0.0,0.0 500.0,387.0 500.0,388.0 "/>
<polygon fill="#001DFF" points="0.0,0.0 500.0,388.0 500.0,389.0 "/>
<polygon fill="#000000" points="0.0,0.0 500.0,389.0 500.0,390.0 "/>
<polygon fill="#001DFF" points="0.0,0.0 500.0,390.0 500.0,391.0 "/>
<polygon fill="#000000" points="0.0,0.0 500.0,391.0 500.0,392.0 "/>
<polygon fill="#001DFF" points="0.0,0.0 500.0,392.0 500.0,393.0 "/>
<polygon fill="#000000" points="0.0,0.0 500.0,393.0 500.0,394.0 "/>
<polygon fill="#001DFF" points="0.0,0.0 500.0,394.0 500.0,395.0 "/>
<polygon fill="#000000" points="0.0,0.0 500.0,395.0 500.0,396.0 "/>
<polygon fill="#001DFF" points="0.0,0.0 500.0,396.0 500.0,397.0 "/>
<polygon fill="#000000" points="0.0,0.0 500.0,397.0 500.0,398.0 "/>
<polygon fill="#001DFF" points="0.0,0.0 500.0,398.0 500.0,399.0 "/>
<polygon fill="#000000" points="0.0,0.0 500.0,399.0 500.0,400.0 "/>
<polygon fill="#001DFF" points="0.0,0.0 500.0,400.0 500.0,401.0 "/>
<polygon fill="#000000" points="0.0,0.0 500.0,401.0 500.0,402.0 "/>
<polygon fill="#001DFF" points="0.0,0.0 500.0,402.0 500.0,403.0 "/>
<polygon fill="#000000" points="0.0,0.0 500.0,403.0 500.0,404.0 "/>
<polygon fill="#001DFF" points="0.0,0.0 500.0,404.0 500.0,405.0 "/>
<polygon fill="#000000" points="0.0,0.0 500.0,405.0 500.0,406.0 "/>
<polygon fill="#001DFF" points="0.0,0.0 500.0,406.0 500.0,407.0 "/>
<polygon fill="#000000" points="0.0,0.0 500.0,407.0 500.0,408.0 "/>
<polygon fill="#001DFF" points="0.0,0.0 500.0,408.0 500.0,409.0 "/>
<polygon fill="#000000" points="0.0,0.0 500.0,409.0 500.0,410.0 "/>
<polygon fill="#001DFF" points="0.0,0.0 500.0,410.0 500.0,411.0 "/>
<polygon fill="#000000" points="0.0,0.0 500.0,411.0 500.0,412.0 "/>
<polygon fill="#001DFF" points="0.0,0.0 500.0,412.0 500.0,413.0 "/>
<polygon fill="#000000" points="0.0,0.0 500.0,413.0 500.0,414.0 "/>
<polygon fill="#001DFF" points="0.0,0.0 500.0,414.0 500.0,415.0 "/>
<polygon fill="#000000" points="0.0,0.0 500.0,415.0 500.0,416.0 "/>
<polygon fill="#001DFF" points="0.0,0.0 500.0,416.0 500.0,417.0 "/>
<polygon fill="#000000" points="0.0,0.0 500.0,417.0 500.0,418.0 "/>
<polygon fill="#001DFF" points="0.0,0.0 500.0,418.0 500.0,419.0 "/>
<polygon fill="#000000" points="0.0,0.0 500.0,419.0 500.0,420.0 "/>
<polygon fill="#001DFF" points="0.0,0.0 500.0,420.0 500.0,421.0 "/>
<polygon fill="#000000" points="0.0,0.0 500.0,421.0 500.0,422.0 "/>
<polygon fill="#001DFF" points="0.0,0.0 500.0,422.0 500.0,423.0 "/>
<polygon fill="#000000" points="0.0,0.0 500.0,423.0 500.0,424.0 "/>
<polygon fill="#001DFF" points="0.0,0.0 500.0,424.0 500.0,425.0 "/>
<polygon fill="#000000" points="0.0,0.0 500.0,425.0 500.0,426.0 "/>
<polygon fill="#001DFF" points="0.0,0.0 500.0,426.0 500.0,427.0 "/>
<polygon fill="#000000" points="0.0,0.0 500.0,427.0 500.0,428.0 "/>
<polygon fill="#001DFF" points="0.0,0.0 500.0,428.0 500.0,429.0 "/>
<polygon fill="#000000" points="0.0,0.0 500.0,429.0 500.0,430.0 "/>
<polygon fill="#001DFF" points="0.0,0.0 500.0,430.0 500.0,431.0 "/>
<polygon fill="#000000" points="0.0,0.0 500.0,431.0 500.0,432.0 "/>
<polygon fill="#001DFF" points="0.0,0.0 500.0,432.0 500.0,433.0 "/>
<polygon fill="#000000" points="0.0,0.0 500.0,433.0 500.0,434.0 "/>
<polygon fill="#001DFF" points="0.0,0.0 500.0,434.0 500.0,435.0 "/>
<polygon fill="#000000" points="0.0,0.0 500.0,435.0 500.0,436.0 "/>
<polygon fill="#001DFF" points="0.0,0.0 500.0,436.0 500.0,437.0 "/>
<polygon fill="#000000" points="0.0,0.0 500.0,437.0 500.0,438.0 "/>
<polygon fill="#001DFF" points="0.0,0.0 500.0,438.0 500.0,439.0 "/>
<polygon fill="#000000" points="0.0,0.0 500.0,439.0 500.0,440.0 "/>
<polygon fill="#001DFF" points="0.0,0.0 500.0,440.0 500.0,441.0 "/>
<polygon fill="#000000" points="0.0,0.0 500.0,441.0 500.0,442.0 "/>
<polygon fill="#001DFF" points="0.0,0.0 500.0,442.0 500.0,443.0 "/>
<polygon fill="#000000" points="0.0,0.0 500.0,443.0 500.0,444.0 "/>
<polygon fill="#001DFF" points="0.0,0.0 500.0,444.0 500.0,445.0 "/>
<polygon fill="#000000" points="0.0,0.0 500.0,445.0 500.0,446.0 "/>
<polygon fill="#001DFF" points="0.0,0.0 500.0,446.0 500.0,447.0 "/>
<polygon fill="#000000" points="0.0,0.0 500.0,447.0 500.0,448.0 "/>
<polygon fill="#001DFF" points="0.0,0.0 500.0,448.0 500.0,449.0 "/>
<polygon fill="#000000" points="0.0,0.0 500.0,449.0 500.0,450.0 "/>
<polygon fill="#001DFF" points="0.0,0.0 500.0,450.0 500.0,451.0 "/>
<polygon fill="#000000" points="0.0,0.0 500.0,451.0 500.0,452.0 "/>
<polygon fill="#001DFF" points="0.0,0.0 500.0,452.0 500.0,453.0 "/>
<polygon fill="#000000" points="0.0,0.0 500.0,453.0 500.0,454.0 "/>
<polygon fill="#001DFF" points="0.0,0.0 500.0,454.0 500.0,455.0 "/>
<polygon fill="#000000" points="0.0,0.0 500.0,455.0 500.0,456.0 "/>
<polygon fill="#001DFF" points="0.0,0.0 500.0,456.0 500.0,457.0 "/>
<polygon fill="#000000" points="0.0,0.0 500.0,457.0 500.0,458.0 "/>
<polygon fill="#001DFF" points="0.0,0.0 500.0,458.0 500.0,459.0 "/>
<polygon fill="#000000" points="0.0,0.0 500.0,459.0 500.0,460.0 "/>
<polygon fill="#001DFF" points="0.0,0.0 500.0,460.0 500.0,461.0 "/>
<polygon fill="#000000" points="0.0,0.0 500.0,461.0 500.0,462.0 "/>
<polygon fill="#001DFF" points="0.0,0.0 500.0,462.0 500.0,463.0 "/>
<polygon fill="#000000" points="0.0,0.0 500.0,463.0 500.0,464.0 "/>
<polygon fill="#001DFF" points="0.0,0.0 500.0,464.0 500.0,465.0 "/>
<polygon fill="#000000" points="0.0,0.0 500.0,465.0 500.0,466.0 "/>
<polygon fill="#001DFF" points="0.0,0.0 500.0,466.0 500.0,467.0 "/>
<polygon fill="#000000" points="0.0,0.0 500.0,467.0 500.0,468.0 "/>
<polygon fill="#001DFF" points="0.0,0.0 500.0,468.0 500.0,469.0 "/>
<polygon fill="#000000" points="0.0,0.0 500.0,469.0 500.0,470.0 "/>
<polygon fill="#001DFF" points="0.0,0.0 500.0,470.0 500.0,471.0 "/>
<polygon fill="#000000" points="0.0,0.0 500.0,471.0 500.0,472.0 "/>
<polygon fill="#001DFF" points="0.0,0.0 500.0,472.0 500.0,473.0 "/>
<polygon fill="#000000" points="0.0,0.0 500.0,473.0 500.0,474.0 "/>
<polygon fill="#001DFF" points="0.0,0.0 500.0,474.0 500.0,475.0 "/>
<polygon fill="#000000" points="0.0,0.0 500.0,475.0 500.0,476.0 "/>
<polygon fill="#001DFF" points="0.0,0.0 500.0,476.0 500.0,477.0 "/>
<polygon fill="#000000" points="0.0,0.0 500.0,477.0 500.0,478.0 "/>
<polygon fill="#001DFF" points="0.0,0.0 500.0,478.0 500.0,479.0 "/>
<polygon fill="#000000" points="0.0,0.0 500.0,479.0 500.0,480.0 "/>
<polygon fill="#001DFF" points="0.0,0.0 500.0,480.0 500.0,481.0 "/>
<polygon fill="#000000" points="0.0,0.0 500.0,481.0 500.0,482.0 "/>
<polygon fill="#001DFF" points="0.0,0.0 500.0,482.0 500.0,483.0 "/>
<polygon fill="#000000" points="0.0,0.0 500.0,483.0 500.0,484.0 "/>
<polygon fill="#001DFF" points="0.0,0.0 500.0,484.0 500.0,485.0 "/>
<polygon fill="#000000" points="0.0,0.0 500.0,485.0 500.0,486.0 "/>
<polygon fill="#001DFF" points="0.0,0.0 500.0,486.0 500.0,487.0 "/>
<polygon fill="#000000" points="0.0,0.0 500.0,487.0 500.0,488.0 "/>
<polygon fill="#001DFF" points="0.0,0.0 500.0,488.0 500.0,489.0 "/>
<polygon fill="#000000" points="0.0,0.0 500.0,489.0 500.0,490.0 "/>
<polygon fill="#001DFF" points="0.0,0.0 500.0,490.0 500.0,491.0 "/>
<polygon fill="#000000" points="0.0,0.0 500.0,491.0 500.0,492.0 "/>
<polygon fill="#001DFF" points="0.0,0.0 500.0,492.0 500.0,493.0 "/>
<polygon fill="#000000" points="0.0,0.0 500.0,493.0 500.0,494.0 "/>
<polygon fill="#001DFF" points="0.0,0.0 500.0,494.0 500.0,495.0 "/>
<polygon fill="#000000" points="0.0,0.0 500.0,495.0 500.0,496.0 "/>
<polygon fill="#001DFF" points="0.0,0.0 500.0,496.0 500.0,497.0 "/>
<polygon fill="#000000" points="0.0,0.0 500.0,497.0 500.0,498.0 "/>
<polygon fill="#001DFF" points="0.0,0.0 500.0,498.0 500.0,499.0 "/>
<polygon fill="#000000" points="0.0,0.0 500.0,499.0 500.0,500.0 "/>
</svg>
