<?xml version="1.0" encoding="utf-8"?>
<!-- Generator: Adobe Illustrator 16.0.4, SVG Export Plug-In . SVG Version: 6.00 Build 0)  -->
<!DOCTYPE svg PUBLIC "-//W3C//DTD SVG 1.1//EN" "http://www.w3.org/Graphics/SVG/1.1/DTD/svg11.dtd">
<svg version="1.1" id="Layer_1" xmlns="http://www.w3.org/2000/svg" xmlns:xlink="http://www.w3.org/1999/xlink" x="0px" y="0px"
	 width="612px" height="792px" viewBox="0 0 612 792" enable-background="new 0 0 612 792" xml:space="preserve">
<g id="skK4vo_1_">
	<g>
		
			<polyline fill="none" stroke="#000000" stroke-width="2" stroke-linecap="round" stroke-linejoin="round" stroke-miterlimit="10" points="
			503.75,276 507.473,279.521 511.365,282.931 514.303,286.513 516.75,290.75 519.486,294.698 521.916,298.79 523.987,304.075 
			525.734,309.505 527.742,316.003 529.77,322.494 532.401,329.993 534.91,337.527 535.128,340.216 534.707,342.991 
			532.812,352.015 530.676,360.98 529.431,363.937 527.725,366.734 524.543,371.653 521.236,376.49 515.882,384.005 
			510.504,391.503 506.158,398.957 502.953,406.984 501.342,410.908 499.486,414.743 498.525,417.445 498.689,420.393 
			500.693,427.794 502.478,435.256 505.868,441.821 511.078,446.912 518.901,453.241 527.021,459.222 533.271,463.476 
			539.425,467.844 541.604,470.417 543.195,473.523 546.605,481.759 550.049,489.979 553.269,496.554 556.785,502.98 
			560.771,509.49 564.689,516.033 567.062,521.215 569.266,526.492 572.397,534.466 575.904,542.305 576.732,545.143 
			576.971,548.252 577.395,554.874 577.752,561.5 577.962,565.504 578.283,569.496 577.941,572.366 576.809,575.026 
			570.804,588.823 565.744,602.998 564.882,605.752 564.006,608.502 563.502,610.846 563.968,613.266 566.64,619.056 
			569.258,624.871 570.311,628.711 569.863,632.781 568.412,638.728 565.796,644.285 564.478,645.502 562.76,646.062 
			552.622,647.857 542.497,649.734 540.881,649.908 539.25,649.999 539.114,650.013 539.01,649.99 538.989,649.887 539,649.75 		"/>
		
			<polyline fill-rule="evenodd" clip-rule="evenodd" fill="none" stroke="#000000" stroke-width="2" stroke-linecap="round" stroke-linejoin="round" stroke-miterlimit="10" points="
			214.25,275.25 213.671,274.894 213.285,274.491 212.417,270.488 211.467,266.509 209.76,260.727 209,254.75 207.217,251.118 
			206.019,247.239 204.062,243.782 202.271,240.24 195.155,227.831 187.464,215.771 186.468,214.689 185.242,213.76 
			183.965,212.904 182.774,211.977 180.242,209.133 177.743,206.256 175.993,204.035 175.166,201.253 174.624,199.248 
			173.754,197.249 172.792,194.355 172.665,191.234 172.554,188.894 172.316,186.505 172.708,184.566 173.565,182.794 
			174.93,181.457 176.496,180.245 181.012,174.861 184.527,168.765 186.969,164.608 189.482,160.49 189.978,159.225 
			190.539,158.031 191.807,156.674 193.266,155.523 198.592,152.343 203.543,148.541 207.413,144.784 211.55,141.313 
			213.401,140.479 215.503,140.014 225.316,137.265 234.702,133.404 242.227,130.926 250.004,130.065 252.421,130.266 
			254.722,131.056 261.623,132.868 268.775,132.106 276.762,130.004 285.001,128.938 293.264,128.656 301.487,128.645 
			309.361,129.186 316.986,131.277 319.26,132.729 321.511,134.231 325.424,135.08 328.992,133.242 332.735,129.731 
			336.537,126.295 338.291,125.171 340.258,124.563 346.963,123.074 353.522,121.078 357.213,120.452 361.001,120.279 
			369.124,120.086 377.25,120.048 379.123,120.414 381.002,120.993 387.642,122.442 394.235,124.052 400.393,126.063 
			406.501,128.247 409.486,129.406 412.506,130.174 422.498,133.683 431.746,138.759 435.759,140.48 439.742,142.267 
			440.41,142.696 440.992,143.258 445.994,148.755 451.006,154.244 455.177,158.584 459.189,163.049 461.585,166.681 463.751,170.5 
			468.795,179.055 474.068,187.453 478.389,195.401 481.719,203.762 483.715,209.767 485.817,215.722 488.541,221.286 
			491.502,226.749 492.475,229.529 490.504,231.755 486.73,234.979 483.033,238.286 482.275,239.417 481.768,240.756 
			480.34,244.864 479.028,249.008 477.887,251.633 476,253.75 		"/>
		
			<polyline fill-rule="evenodd" clip-rule="evenodd" fill="none" stroke="#000000" stroke-width="2" stroke-linecap="round" stroke-linejoin="round" stroke-miterlimit="10" points="
			171.75,186.25 170.35,187.223 169.013,188.265 165.093,192.154 160.917,195.616 157.467,199.042 155.429,203.075 152.014,209.814 
			147.773,216.018 141.818,221.807 134.973,226.457 131.579,228.805 127.814,230.703 126.485,232.492 125.822,235.258 
			123.273,246.215 117.765,256.011 114.727,260.106 111.749,264.249 108.883,267.975 105.286,271.06 103.395,272.614 
			101.773,274.518 95.884,282.132 89.958,289.716 88.13,291.531 85.973,292.948 82.682,296.065 81.708,300.5 81.412,309 
			81.003,317.5 81.057,318.402 80.971,319.238 80.296,324.627 82.033,329.734 82.834,332.047 82.782,334.507 80.514,345.878 
			78.212,357.242 77.049,362.06 75.438,366.723 70.897,376.671 64.794,385.789 62.843,390.148 62.234,394.998 61.199,402.265 
			59.953,409.49 58.189,417.139 56.23,424.745 55.628,426.944 54.704,428.969 52.638,435.46 52.709,442.251 52.675,448.999 
			52.5,455.75 		"/>
		
			<polyline fill-rule="evenodd" clip-rule="evenodd" fill="none" stroke="#000000" stroke-width="2" stroke-linecap="round" stroke-linejoin="round" stroke-miterlimit="10" points="
			100.25,374.75 99.216,382.747 98.283,390.753 97.839,396.996 97.493,403.25 96.173,408.771 93.418,413.859 90.275,419.305 
			88.224,425.37 85.747,438.312 83.28,451.256 81.189,457.562 78.292,463.52 74.217,472.609 70.241,481.746 68.314,485.73 
			66.55,489.768 64.37,496.623 62.203,503.483 60.547,507.265 58.785,511.014 57.852,513.032 58.25,515.25 		"/>
		
			<polyline fill-rule="evenodd" clip-rule="evenodd" fill="none" stroke="#000000" stroke-width="2" stroke-linecap="round" stroke-linejoin="round" stroke-miterlimit="10" points="
			467.25,403.25 467.271,406.751 467.236,410.25 467.034,416.127 466.726,421.998 466.975,425.945 467.99,429.754 470.082,436.329 
			472.295,442.857 474.476,448.48 477.916,453.585 482.303,458.816 486.544,464.211 490.475,468.146 494.472,472.026 
			498.207,476.182 501.715,480.527 505.725,486.271 509.806,491.955 513.933,496.553 518.242,501.007 519.776,502.727 
			521.243,504.506 526.888,511.615 532.493,518.756 540.506,529.12 548.506,539.496 549.328,540.558 550.268,541.477 
			552.826,544.795 553.314,549.004 553.512,553.127 553.689,557.246 553.058,564.129 552.246,571 551.254,579.626 550.25,588.25 		
			"/>
		
			<polyline fill-rule="evenodd" clip-rule="evenodd" fill="none" stroke="#000000" stroke-width="2" stroke-linecap="round" stroke-linejoin="round" stroke-miterlimit="10" points="
			209,254 210.9,251.625 211.641,248.706 214.383,240.879 217.077,233.03 218.838,229.803 221.02,226.764 224.101,222.607 
			227.266,218.512 227.953,217.827 228.756,217.259 237.241,211.86 245.758,206.514 252.417,202.588 259.511,199.535 
			262.226,198.893 265.002,198.522 273.487,196.991 281.786,194.615 286.694,193.826 291.75,193.495 298.381,192.793 
			304.995,191.964 309.998,192.509 314.732,194.066 324.016,196.689 333.246,199.513 337.363,200.942 341.516,202.177 
			345.764,203.091 350.297,202.619 358.195,200.282 366.496,199.354 373.128,198.442 379.754,197.025 381.241,196.938 
			382.75,197.005 396.256,197.424 409.74,198.119 414.998,199.387 420.262,200.939 429.294,204.809 437.262,210.482 
			438.709,211.337 440.258,211.976 446.469,216.052 451.31,221.697 456.025,226.47 461.042,230.952 462.471,232.606 
			463.607,234.433 468.779,243.967 474.799,252.956 475.772,255.026 475.214,256.98 471.818,263.053 467.867,268.845 
			463.992,274.766 460.484,280.99 459.122,283.27 457.44,285.169 455.049,288.066 453.743,291.498 451.336,299.238 448.33,306.658 
			445.652,313.86 443.968,321.242 442.521,326.255 441.018,331.255 440.485,338.257 441.252,345.25 441.876,351.375 
			442.473,357.502 442.312,358.12 442,358.75 		"/>
		
			<polyline fill-rule="evenodd" clip-rule="evenodd" fill="none" stroke="#000000" stroke-width="2" stroke-linecap="round" stroke-linejoin="round" stroke-miterlimit="10" points="
			221.75,603.5 214.397,599.217 207.542,594.193 202.023,589.747 196.811,584.938 194.683,582.078 192.729,579.016 188.188,573.072 
			183.454,567.29 180.267,562.662 177.164,558.073 172.982,550.415 170.404,542.198 168.2,533.309 166.493,524.252 165.547,520.128 
			164.643,515.996 163.412,509.255 162.259,502.498 161.349,496.879 160.513,491.248 159.859,486.127 159.25,481 158.747,477.598 
			157.389,474.457 157.03,474.407 156.672,474.357 155.738,478.686 154.733,482.996 152.791,491.896 149.778,500.516 
			146.031,507.524 141.445,513.949 135.772,521.185 130.195,528.451 126.678,531.667 123.022,534.773 116.358,540.666 
			109.231,545.973 106.525,547.535 103.755,549.009 95.771,553.788 87.722,558.449 82.919,560.706 78,562.75 		"/>
		
			<polyline fill-rule="evenodd" clip-rule="evenodd" fill="none" stroke="#000000" stroke-width="2" stroke-linecap="round" stroke-linejoin="round" stroke-miterlimit="10" points="
			155.25,377.25 155.727,376.526 156.26,376.042 163.333,373.606 169.976,370.207 173.893,367.66 177.767,365.027 181.283,363.167 
			184.719,361.206 192.654,354.884 198.808,346.779 199.738,345.938 201.002,345.554 209.252,345.408 217.499,345.214 
			225.875,344.602 234.252,344.061 241.248,344.166 248.25,344.502 258.657,345.917 268.999,347.762 275.702,349.653 
			282.268,351.925 292.241,356.474 301.477,362.292 303.49,365.2 304.166,368.775 306.564,377.606 308.72,386.507 309.117,388.861 
			309.22,391.25 309.001,398.625 308.764,406 308.398,411.738 306.639,417.323 305.308,421.646 304.492,426.248 303.952,428.654 
			303.22,430.987 298.374,442.374 293.551,453.771 293.282,455.581 293.239,457.498 292.491,463.249 291.789,469.004 
			291.855,470.398 292.284,471.734 294.493,476.095 297.749,479.752 299.908,480.757 302.209,481.386 310.06,481.359 
			317.521,479.223 321.213,479.018 325,479.253 329.768,479.503 334.484,479.387 338.65,478.287 342.746,476.739 349.77,475.577 
			356.25,478.5 		"/>
		
			<polyline fill-rule="evenodd" clip-rule="evenodd" fill="none" stroke="#000000" stroke-width="2" stroke-linecap="round" stroke-linejoin="round" stroke-miterlimit="10" points="
			450.75,376 450.453,377.5 450.272,379 450.315,386.129 450.178,393.246 449.467,398.505 448.507,403.751 447.612,409.623 
			446.753,415.5 445.417,425.133 443.965,434.744 442.023,445.129 440.031,455.506 439.729,459.295 439.162,462.969 437.12,472.457 
			435.517,482.004 434.044,488.109 432.805,494.26 432.326,498.99 431.979,503.748 431.256,509.25 430.517,514.752 430.031,518.997 
			429.791,523.25 428.496,532.299 425.756,541.002 423.524,547.884 421.221,554.739 418.833,560.528 415.77,566.013 
			411.232,573.114 406.737,580.242 406.034,581.148 405.247,581.998 399.027,588.776 392.701,595.453 390.201,597.319 
			387.508,599.012 381.785,603.306 375.966,607.447 370.064,611.231 363.506,613.781 362.736,614.179 362,614.75 		"/>
		
			<polyline fill-rule="evenodd" clip-rule="evenodd" fill="none" stroke="#000000" stroke-width="2" stroke-linecap="round" stroke-linejoin="round" stroke-miterlimit="10" points="
			392.75,596 395.648,601.613 398.485,607.258 405.577,615.812 414.822,621.879 418.997,623.332 423.498,624.256 431.738,626.552 
			440.012,628.698 447.11,630.061 454.246,631.274 455.539,631.652 456.736,632.27 465.244,637.884 473.758,643.486 
			479.733,647.276 485.763,650.979 487.244,651.634 488.74,652.268 494.163,655.316 499.479,658.533 507.85,664.294 
			516.297,669.923 522.433,673.109 528.746,676.008 530.632,676.986 532.5,678 		"/>
		
			<polyline fill-rule="evenodd" clip-rule="evenodd" fill="none" stroke="#000000" stroke-width="2" stroke-linecap="round" stroke-linejoin="round" stroke-miterlimit="10" points="
			198,667.75 196.359,661.004 194.771,654.246 194.133,650.841 193.574,647.362 183.429,651.271 173.487,654.965 163.535,658.363 
			153.484,661.445 142.022,664.456 130.494,667.227 123.381,668.774 116.253,670.264 112.248,671.241 108.247,672.237 
			105.629,672.769 103,673.25 		"/>
		
			<polyline fill-rule="evenodd" clip-rule="evenodd" fill="none" stroke="#000000" stroke-width="2" stroke-linecap="round" stroke-linejoin="round" stroke-miterlimit="10" points="
			478.25,309.75 476.592,312.86 475.02,316.009 472.085,322.922 468.923,329.708 464.584,336.92 460.007,344.004 458.959,346.595 
			459.404,349.54 461.445,355.47 463.283,361.489 463.874,362.729 464.776,363.712 471.187,368.241 477.829,372.351 
			481.508,373.284 485.491,373.167 497.13,372.544 508.75,373.25 		"/>
		
			<polyline fill-rule="evenodd" clip-rule="evenodd" fill="none" stroke="#000000" stroke-width="2" stroke-linecap="round" stroke-linejoin="round" stroke-miterlimit="10" points="
			413.25,339.75 412.63,340.192 411.998,340.471 404.246,340.969 396.508,341.58 394.629,342.395 392.74,343.471 386.249,345.748 
			379.762,348.031 377.816,349.201 376.16,350.924 371.905,355.683 367.155,359.87 363.811,363.109 360.758,366.508 
			358.328,368.833 356.041,371.285 354.912,373.061 354.014,375.006 351.615,380.155 348.307,384.806 347.488,386.383 
			347.012,388.253 345.647,401.123 346.977,414.003 347.311,417.493 347.492,421 348.792,430.303 351.611,439.205 354.058,446.416 
			356.061,453.733 357.766,458.249 359.398,462.774 359.77,466.592 359.726,470.5 359.489,471.13 359.276,471.748 356.853,478.737 
			349.96,482.385 347.171,482.573 344.271,481.929 340.229,481.208 336.5,479.5 		"/>
		
			<polyline fill-rule="evenodd" clip-rule="evenodd" fill="none" stroke="#000000" stroke-width="2" stroke-linecap="round" stroke-linejoin="round" stroke-miterlimit="10" points="
			406,371.25 406.35,372.759 406.764,374.246 407.802,379.221 407.635,384.233 406.626,387.2 404.958,389.972 399.988,394.729 
			393.51,397.289 380.336,395.293 372.684,385.188 372.143,379.86 372.579,374.254 372.778,372.979 372.221,372.08 370.987,372.054 
			369.776,372.54 365.701,375.305 361.277,377.574 357.151,381.409 355.05,387.065 362.064,393.073 370.494,397.021 
			374.877,398.365 379.258,399.723 382.361,400.526 385.501,400.94 394.533,400.336 403.273,397.804 408.011,396.268 
			412.716,394.676 418.679,391.607 424.471,388.203 426.8,386.394 429,384.375 		"/>
		
			<polyline fill-rule="evenodd" clip-rule="evenodd" fill="none" stroke="#000000" stroke-width="2" stroke-linecap="round" stroke-linejoin="round" stroke-miterlimit="10" points="
			267,526.75 267.508,528.729 268.305,530.451 274.664,537.588 281.326,544.42 286.119,548.146 291.261,551.483 299.529,555.125 
			308.27,557.429 314.348,558.942 320.498,559.592 328.152,559.599 335.77,558.307 342.377,556.379 348.973,554.424 
			353.809,552.268 358.488,549.729 369.512,542.832 379.5,534.5 		"/>
		
			<polyline fill-rule="evenodd" clip-rule="evenodd" fill="none" stroke="#000000" stroke-width="2" stroke-linecap="round" stroke-linejoin="round" stroke-miterlimit="10" points="
			162.75,250.25 163.641,252.745 164.492,255.252 167.479,264.882 170.54,274.487 172.008,278.235 173.783,281.857 175.156,286.851 
			175.012,292.001 174.383,300.126 173.694,308.244 173.209,309.984 172.205,311.453 166.629,316.504 161.014,321.515 
			157.378,323.175 153.485,323.956 152.383,323.884 151.26,323.787 145.011,325.555 138.729,327.151 135.975,327.188 
			133.287,326.417 128.472,323.938 123.75,321.25 		"/>
		
			<polyline fill-rule="evenodd" clip-rule="evenodd" fill="none" stroke="#000000" stroke-width="2" stroke-linecap="round" stroke-linejoin="round" stroke-miterlimit="10" points="
			99.75,334.75 100.693,340.842 100.719,346.998 101.071,349.646 102.248,352.001 106.821,358.959 111.179,366.04 114.893,369.703 
			119.528,371.675 125.326,373.569 131.264,374.919 139.358,376.024 147.505,376.636 149.591,377.097 150.292,378.997 
			151.485,393.626 152.751,408.25 153.753,419.75 154.737,431.251 154.9,434.248 155,437.25 		"/>
		
			<polyline fill-rule="evenodd" clip-rule="evenodd" fill="none" stroke="#000000" stroke-width="2" stroke-linecap="round" stroke-linejoin="round" stroke-miterlimit="10" points="
			384.25,531.75 384.114,531.594 384.004,531.513 380.824,532.152 377.66,530.855 375.021,529.539 371.992,528.779 364.855,525.483 
			358.223,521.3 354.941,519.771 351.488,518.83 342.776,517.703 333.991,518.47 329.896,519.537 325.744,520.145 322.507,519.775 
			319.25,518.997 311.638,517.945 304.004,518.763 301.871,519.483 299.749,520.245 294.726,521.815 289.773,523.558 
			285.733,524.776 281.497,525.105 275.754,525.403 269.999,525.978 267.878,525.979 265.75,525.875 		"/>
		
			<polyline fill-rule="evenodd" clip-rule="evenodd" fill="none" stroke="#000000" stroke-width="2" stroke-linecap="round" stroke-linejoin="round" stroke-miterlimit="10" points="
			51.75,455.75 53.087,457.211 52.592,459.005 52.508,466.498 52.272,474 52.212,487.375 52.271,500.75 52.4,509.256 52.81,517.746 
			53.677,525.381 54.748,533 56.053,543.763 57.567,554.488 60.121,563.283 64.278,571.483 66.235,574.259 68.199,577.031 
			68.697,578.577 69.008,580.248 70.319,583.518 70.717,586.992 70.794,588.171 69.79,589.15 68.959,590.352 68.557,592.254 
			68.517,595.752 68.467,599.247 67.641,607.626 66.763,616.001 66.652,618.506 66.473,620.996 65.178,628.244 64.099,635.51 
			64.167,639.994 64.791,644.494 65.808,650.137 67.027,655.744 67.959,659.135 69,662.5 		"/>
		
			<polyline fill-rule="evenodd" clip-rule="evenodd" fill="none" stroke="#000000" stroke-width="2" stroke-linecap="round" stroke-linejoin="round" stroke-miterlimit="10" points="
			555,589.125 551.848,596.802 548.778,604.511 547.079,609.797 545.105,614.926 542.899,617.321 539.974,619.207 532.521,623.536 
			524.982,627.717 523.543,628.242 521.998,628.477 515.5,629.102 509,629.424 502.516,629.117 496.244,627.26 484.941,621.268 
			474.269,614.227 471.825,612.06 469.525,609.726 468.878,608.806 468.535,607.746 467.865,602.002 467.25,596.25 		"/>
		
			<polyline fill-rule="evenodd" clip-rule="evenodd" fill="none" stroke="#000000" stroke-width="2" stroke-linecap="round" stroke-linejoin="round" stroke-miterlimit="10" points="
			124,389 124.966,392.014 126.018,394.993 129.852,404.51 133.772,413.99 135.356,417.566 137.982,420.527 139.576,422.248 
			140.547,424.484 142.698,430.395 145.02,436.242 147.054,441.507 149.615,446.418 152.556,453.622 153.593,461.237 
			154.17,467.608 156.01,473.744 156.351,474.139 156.75,474.5 		"/>
		
			<polyline fill-rule="evenodd" clip-rule="evenodd" fill="none" stroke="#000000" stroke-width="2" stroke-linecap="round" stroke-linejoin="round" stroke-miterlimit="10" points="
			71,589 73.967,595.142 75.795,601.742 77.846,611.08 81.351,620.077 85.597,627.873 91.078,634.664 100.787,642.849 
			110.784,650.707 113.18,652.089 115.75,653.25 		"/>
		
			<polyline fill-rule="evenodd" clip-rule="evenodd" fill="none" stroke="#000000" stroke-width="2" stroke-linecap="round" stroke-linejoin="round" stroke-miterlimit="10" points="
			492.5,231 498.588,241.985 502.26,253.997 503.742,258.752 505.242,263.502 505.888,267.779 504.786,272.019 502.714,276.481 
			500.703,280.978 500.105,281.3 499.25,281.5 		"/>
		
			<polyline fill-rule="evenodd" clip-rule="evenodd" fill="none" stroke="#000000" stroke-width="2" stroke-linecap="round" stroke-linejoin="round" stroke-miterlimit="10" points="
			213.375,275.5 213.644,281.629 213.68,287.747 213.098,293.505 212.239,299.249 211.717,303.023 210.948,306.735 209.366,311.792 
			207.464,316.735 201.771,329.759 196.01,342.754 195.72,343.629 195.459,344.622 197.228,345.31 199,346 		"/>
		
			<polyline fill-rule="evenodd" clip-rule="evenodd" fill="none" stroke="#000000" stroke-width="2" stroke-linecap="round" stroke-linejoin="round" stroke-miterlimit="10" points="
			378.75,532.25 371.014,534.669 362.996,535.705 346.877,536.901 330.751,538.016 326.123,538.544 321.5,538.918 318.507,538.438 
			315.496,537.783 308.25,537.121 301.002,536.476 297.573,535.947 294.201,534.861 290.292,533.795 286.258,532.971 
			278.49,530.656 270.766,528.201 269.84,527.484 269,526.5 		"/>
		
			<polyline fill-rule="evenodd" clip-rule="evenodd" fill="none" stroke="#000000" stroke-width="2" stroke-linecap="round" stroke-linejoin="round" stroke-miterlimit="10" points="
			428.25,384.25 422.434,379.191 415.535,375.658 412.328,373.761 409.229,371.536 407.917,371.052 406.497,370.762 
			405.979,370.773 405.512,370.731 398.991,368.459 392.219,367.117 389.034,366.965 385.762,367.554 380.36,368.94 
			375.012,370.537 373.853,371.175 372.75,372 		"/>
		
			<polyline fill-rule="evenodd" clip-rule="evenodd" fill="none" stroke="#000000" stroke-width="2" stroke-linecap="round" stroke-linejoin="round" stroke-miterlimit="10" points="
			407.375,158 408.409,167.294 410.084,176.553 410.871,180.651 412.012,184.744 413.483,187.509 415,190.25 		"/>
		
			<polyline fill-rule="evenodd" clip-rule="evenodd" fill="none" stroke="#000000" stroke-width="2" stroke-linecap="round" stroke-linejoin="round" stroke-miterlimit="10" points="
			414.75,622.5 413.593,625.318 412.188,627.955 409.9,631.82 408.149,635.961 405.14,642.812 401.68,649.461 399.621,652.191 
			397.25,654.75 		"/>
		
			<polyline fill-rule="evenodd" clip-rule="evenodd" fill="none" stroke="#000000" stroke-width="2" stroke-linecap="round" stroke-linejoin="round" stroke-miterlimit="10" points="
			218.25,385.75 220.506,387.618 222.747,389.504 230.387,394.225 238.743,397.519 243.033,398.879 247.499,399.534 254.892,400.17 
			262.24,400.373 272.726,395.229 276.824,384.002 276.084,379.469 274.5,375.25 273.999,373.875 273.5,372.5 		"/>
		
			<polyline fill-rule="evenodd" clip-rule="evenodd" fill="none" stroke="#000000" stroke-width="2" stroke-linecap="round" stroke-linejoin="round" stroke-miterlimit="10" points="
			300.5,385.25 293.097,390.776 284.754,394.762 278.978,396.692 273.275,398.812 271.284,399.197 269.5,398.5 		"/>
		
			<polyline fill-rule="evenodd" clip-rule="evenodd" fill="none" stroke="#000000" stroke-width="2" stroke-linecap="round" stroke-linejoin="round" stroke-miterlimit="10" points="
			302.75,385 301.519,384.708 300.546,384.214 293.207,377.668 284,374.247 278.872,373.268 273.759,372.21 272.851,371.715 
			272.002,370.997 267.155,369.124 261.995,368.825 257.629,368.878 253.252,369.272 249.698,369.743 246.439,371.433 
			244.727,372.23 242.752,372.756 240.12,373.737 237.502,374.755 234.119,376.11 230.756,377.515 229.34,378.191 228.012,379.017 
			223.495,382.367 219,385.75 		"/>
		
			<polyline fill-rule="evenodd" clip-rule="evenodd" fill="none" stroke="#000000" stroke-width="2" stroke-linecap="round" stroke-linejoin="round" stroke-miterlimit="10" points="
			413.5,340.5 422.133,344.107 430.719,347.818 431.932,348.987 433.006,350.495 436.121,354.003 439.252,357.498 439.735,358.097 
			440.254,358.458 442.832,359.964 444.203,362.525 447.387,368.743 450.562,374.966 451.63,375.803 452.993,376.51 
			456.372,378.764 459.426,381.316 464.703,384.445 470.753,384.528 476.01,383.942 481.235,383.9 484.755,384.125 488.25,383.997 
			494.127,383.394 499.998,382.736 505.377,382.017 510.75,381.25 		"/>
		
			<polyline fill-rule="evenodd" clip-rule="evenodd" fill="none" stroke="#000000" stroke-width="2" stroke-linecap="round" stroke-linejoin="round" stroke-miterlimit="10" points="
			174.5,555.25 173.756,556.59 173.908,558.273 175.785,566.616 177.502,575 178.734,580.879 180.008,586.748 182.749,598.75 
			185.495,610.751 187.129,618.124 188.753,625.5 190.999,635.5 193.224,645.506 193.188,646.361 193,647.25 		"/>
		
			<polyline fill-rule="evenodd" clip-rule="evenodd" fill="none" stroke="#000000" stroke-width="2" stroke-linecap="round" stroke-linejoin="round" stroke-miterlimit="10" points="
			244.5,373 244.438,374.032 244.223,374.986 242.173,384.075 244.799,392.974 246.149,394.678 247.749,396.251 249.001,397.624 
			250.25,399 		"/>
		
			<polyline fill-rule="evenodd" clip-rule="evenodd" fill="none" stroke="#000000" stroke-width="2" stroke-linecap="round" stroke-linejoin="round" stroke-miterlimit="10" points="
			155.75,437.25 155.134,437.888 154.799,438.494 155.791,446.496 156.716,454.504 157.417,463.496 157.962,472.502 
			157.712,473.369 157.25,474.25 		"/>
		
			<polyline fill-rule="evenodd" clip-rule="evenodd" fill="none" stroke="#000000" stroke-width="2" stroke-linecap="round" stroke-linejoin="round" stroke-miterlimit="10" points="
			318.25,478.5 314.377,476.12 310.48,473.783 309.906,473.773 309.256,474.012 303.625,476.623 298,479.25 		"/>
		
			<polyline fill-rule="evenodd" clip-rule="evenodd" fill="none" stroke="#000000" stroke-width="2" stroke-linecap="round" stroke-linejoin="round" stroke-miterlimit="10" points="
			389.25,385.75 389.984,385.023 390.757,384.548 393.974,383.053 394.75,379.5 393.378,376.813 390.25,375.75 386.279,376.786 
			384.25,380.25 		"/>
		
			<polyline fill-rule="evenodd" clip-rule="evenodd" fill="none" stroke="#000000" stroke-width="2" stroke-linecap="round" stroke-linejoin="round" stroke-miterlimit="10" points="
			318.75,144.25 319.935,146.312 321.285,148.217 323.824,151.623 322.505,155.502 321.882,156.879 321.232,158.24 320.628,159.084 
			319.695,160.211 316.698,157.202 313.739,154.261 313.275,153.975 312.75,153.75 		"/>
		
			<polyline fill-rule="evenodd" clip-rule="evenodd" fill="none" stroke="#000000" stroke-width="2" stroke-linecap="round" stroke-linejoin="round" stroke-miterlimit="10" points="
			411,139.25 409.721,143.024 409.188,146.993 408.428,151.38 407.569,155.76 407.243,156.909 408.25,157.75 		"/>
		
			<polyline fill-rule="evenodd" clip-rule="evenodd" fill="none" stroke="#000000" stroke-width="2" stroke-linecap="round" stroke-linejoin="round" stroke-miterlimit="10" points="
			319,146 317.631,148.003 316.246,149.997 314.881,151.879 313.5,153.75 		"/>
		
			<polyline fill-rule="evenodd" clip-rule="evenodd" fill="none" stroke="#000000" stroke-width="2" stroke-linecap="round" stroke-linejoin="round" stroke-miterlimit="10" points="
			75.25,577.5 73.738,578.15 73.219,579.736 72.156,581.764 71,583.75 		"/>
		
			<polyline fill-rule="evenodd" clip-rule="evenodd" fill="none" stroke="#000000" stroke-width="2" stroke-linecap="round" stroke-linejoin="round" stroke-miterlimit="10" points="
			389.75,379.25 390.125,381.75 390.5,384.25 		"/>
		
			<polyline fill-rule="evenodd" clip-rule="evenodd" fill="none" stroke="#000000" stroke-width="2" stroke-linecap="round" stroke-linejoin="round" stroke-miterlimit="10" points="
			257.75,378.25 254.603,380.941 255.037,385.738 257.757,388.51 261.989,388.716 262.799,388.219 263.488,387.49 264.739,382.36 
			260.75,378.75 259.375,378.501 258,378.25 		"/>
	</g>
</g>
</svg>
