<?xml version="1.0" standalone="no"?>
    <!DOCTYPE svg PUBLIC "-//W3C//DTD SVG 1.1//EN" "http://www.w3.org/Graphics/SVG/1.1/DTD/svg11.dtd">
    <svg width="465px" height="233px" version="1.1" xmlns="http://www.w3.org/2000/svg">
<polygon fill="#FF0000" stroke-width="0" points="60.0,25.9807621135 45.0,51.9615242271 15.0,51.9615242271 0.0,25.9807621135 15.0,7.1054273576e-15 45.0,-1.06581410364e-14" />
<polygon fill="#FFFF00" stroke-width="0" points="105.0,51.9615242271 90.0,77.9422863406 60.0,77.9422863406 45.0,51.9615242271 60.0,25.9807621135 90.0,25.9807621135" />
<polygon fill="#0000FF" stroke-width="0" points="60.0,77.9422863406 45.0,103.923048454 15.0,103.923048454 0.0,77.9422863406 15.0,51.9615242271 45.0,51.9615242271" />
<polygon fill="#00FF00" stroke-width="0" points="105.0,103.923048454 90.0,129.903810568 60.0,129.903810568 45.0,103.923048454 60.0,77.9422863406 90.0,77.9422863406" />
<polygon fill="#FF0000" stroke-width="0" points="60.0,129.903810568 45.0,155.884572681 15.0,155.884572681 0.0,129.903810568 15.0,103.923048454 45.0,103.923048454" />
<polygon fill="#FFFF00" stroke-width="0" points="105.0,155.884572681 90.0,181.865334795 60.0,181.865334795 45.0,155.884572681 60.0,129.903810568 90.0,129.903810568" />
<polygon fill="#0000FF" stroke-width="0" points="60.0,181.865334795 45.0,207.846096908 15.0,207.846096908 0.0,181.865334795 15.0,155.884572681 45.0,155.884572681" />
<polygon fill="#00FF00" stroke-width="0" points="105.0,207.846096908 90.0,233.826859022 60.0,233.826859022 45.0,207.846096908 60.0,181.865334795 90.0,181.865334795" />
<polygon fill="#FF0000" stroke-width="0" points="150.0,25.9807621135 135.0,51.9615242271 105.0,51.9615242271 90.0,25.9807621135 105.0,7.1054273576e-15 135.0,-1.06581410364e-14" />
<polygon fill="#FFFF00" stroke-width="0" points="195.0,51.9615242271 180.0,77.9422863406 150.0,77.9422863406 135.0,51.9615242271 150.0,25.9807621135 180.0,25.9807621135" />
<polygon fill="#0000FF" stroke-width="0" points="150.0,77.9422863406 135.0,103.923048454 105.0,103.923048454 90.0,77.9422863406 105.0,51.9615242271 135.0,51.9615242271" />
<polygon fill="#00FF00" stroke-width="0" points="195.0,103.923048454 180.0,129.903810568 150.0,129.903810568 135.0,103.923048454 150.0,77.9422863406 180.0,77.9422863406" />
<polygon fill="#FF0000" stroke-width="0" points="150.0,129.903810568 135.0,155.884572681 105.0,155.884572681 90.0,129.903810568 105.0,103.923048454 135.0,103.923048454" />
<polygon fill="#FFFF00" stroke-width="0" points="195.0,155.884572681 180.0,181.865334795 150.0,181.865334795 135.0,155.884572681 150.0,129.903810568 180.0,129.903810568" />
<polygon fill="#0000FF" stroke-width="0" points="150.0,181.865334795 135.0,207.846096908 105.0,207.846096908 90.0,181.865334795 105.0,155.884572681 135.0,155.884572681" />
<polygon fill="#00FF00" stroke-width="0" points="195.0,207.846096908 180.0,233.826859022 150.0,233.826859022 135.0,207.846096908 150.0,181.865334795 180.0,181.865334795" />
<polygon fill="#FF0000" stroke-width="0" points="240.0,25.9807621135 225.0,51.9615242271 195.0,51.9615242271 180.0,25.9807621135 195.0,7.1054273576e-15 225.0,-1.06581410364e-14" />
<polygon fill="#FFFF00" stroke-width="0" points="285.0,51.9615242271 270.0,77.9422863406 240.0,77.9422863406 225.0,51.9615242271 240.0,25.9807621135 270.0,25.9807621135" />
<polygon fill="#0000FF" stroke-width="0" points="240.0,77.9422863406 225.0,103.923048454 195.0,103.923048454 180.0,77.9422863406 195.0,51.9615242271 225.0,51.9615242271" />
<polygon fill="#00FF00" stroke-width="0" points="285.0,103.923048454 270.0,129.903810568 240.0,129.903810568 225.0,103.923048454 240.0,77.9422863406 270.0,77.9422863406" />
<polygon fill="#FF0000" stroke-width="0" points="240.0,129.903810568 225.0,155.884572681 195.0,155.884572681 180.0,129.903810568 195.0,103.923048454 225.0,103.923048454" />
<polygon fill="#FFFF00" stroke-width="0" points="285.0,155.884572681 270.0,181.865334795 240.0,181.865334795 225.0,155.884572681 240.0,129.903810568 270.0,129.903810568" />
<polygon fill="#0000FF" stroke-width="0" points="240.0,181.865334795 225.0,207.846096908 195.0,207.846096908 180.0,181.865334795 195.0,155.884572681 225.0,155.884572681" />
<polygon fill="#00FF00" stroke-width="0" points="285.0,207.846096908 270.0,233.826859022 240.0,233.826859022 225.0,207.846096908 240.0,181.865334795 270.0,181.865334795" />
<polygon fill="#FF0000" stroke-width="0" points="330.0,25.9807621135 315.0,51.9615242271 285.0,51.9615242271 270.0,25.9807621135 285.0,7.1054273576e-15 315.0,-1.06581410364e-14" />
<polygon fill="#FFFF00" stroke-width="0" points="375.0,51.9615242271 360.0,77.9422863406 330.0,77.9422863406 315.0,51.9615242271 330.0,25.9807621135 360.0,25.9807621135" />
<polygon fill="#0000FF" stroke-width="0" points="330.0,77.9422863406 315.0,103.923048454 285.0,103.923048454 270.0,77.9422863406 285.0,51.9615242271 315.0,51.9615242271" />
<polygon fill="#00FF00" stroke-width="0" points="375.0,103.923048454 360.0,129.903810568 330.0,129.903810568 315.0,103.923048454 330.0,77.9422863406 360.0,77.9422863406" />
<polygon fill="#FF0000" stroke-width="0" points="330.0,129.903810568 315.0,155.884572681 285.0,155.884572681 270.0,129.903810568 285.0,103.923048454 315.0,103.923048454" />
<polygon fill="#FFFF00" stroke-width="0" points="375.0,155.884572681 360.0,181.865334795 330.0,181.865334795 315.0,155.884572681 330.0,129.903810568 360.0,129.903810568" />
<polygon fill="#0000FF" stroke-width="0" points="330.0,181.865334795 315.0,207.846096908 285.0,207.846096908 270.0,181.865334795 285.0,155.884572681 315.0,155.884572681" />
<polygon fill="#00FF00" stroke-width="0" points="375.0,207.846096908 360.0,233.826859022 330.0,233.826859022 315.0,207.846096908 330.0,181.865334795 360.0,181.865334795" />
<polygon fill="#FF0000" stroke-width="0" points="420.0,25.9807621135 405.0,51.9615242271 375.0,51.9615242271 360.0,25.9807621135 375.0,7.1054273576e-15 405.0,-1.06581410364e-14" />
<polygon fill="#FFFF00" stroke-width="0" points="465.0,51.9615242271 450.0,77.9422863406 420.0,77.9422863406 405.0,51.9615242271 420.0,25.9807621135 450.0,25.9807621135" />
<polygon fill="#0000FF" stroke-width="0" points="420.0,77.9422863406 405.0,103.923048454 375.0,103.923048454 360.0,77.9422863406 375.0,51.9615242271 405.0,51.9615242271" />
<polygon fill="#00FF00" stroke-width="0" points="465.0,103.923048454 450.0,129.903810568 420.0,129.903810568 405.0,103.923048454 420.0,77.9422863406 450.0,77.9422863406" />
<polygon fill="#FF0000" stroke-width="0" points="420.0,129.903810568 405.0,155.884572681 375.0,155.884572681 360.0,129.903810568 375.0,103.923048454 405.0,103.923048454" />
<polygon fill="#FFFF00" stroke-width="0" points="465.0,155.884572681 450.0,181.865334795 420.0,181.865334795 405.0,155.884572681 420.0,129.903810568 450.0,129.903810568" />
<polygon fill="#0000FF" stroke-width="0" points="420.0,181.865334795 405.0,207.846096908 375.0,207.846096908 360.0,181.865334795 375.0,155.884572681 405.0,155.884572681" />
<polygon fill="#00FF00" stroke-width="0" points="465.0,207.846096908 450.0,233.826859022 420.0,233.826859022 405.0,207.846096908 420.0,181.865334795 450.0,181.865334795" />
</svg>
