<?xml version="1.0" encoding="utf-8"?>
<!-- Generator: Adobe Illustrator 16.0.4, SVG Export Plug-In . SVG Version: 6.00 Build 0)  -->
<!DOCTYPE svg PUBLIC "-//W3C//DTD SVG 1.1//EN" "http://www.w3.org/Graphics/SVG/1.1/DTD/svg11.dtd">
<svg version="1.1" id="Layer_1" xmlns="http://www.w3.org/2000/svg" xmlns:xlink="http://www.w3.org/1999/xlink" x="0px" y="0px"
width="100.0px"
height="100.0px"
viewBox="0 0 100.0 100.0" enable-background="new 0 0 100.0 100.0"
xml:space="preserve">
<polygon fill="#1865ED" points="100.0,50.0 99.90133642141357,53.13952597646567 99.60573506572389,56.266661678215215 99.11436253643444,59.369065729286234 98.42915805643156,62.43449435824274 97.55282581475768,65.45084971874736 96.48882429441258,68.4062276342339 95.24135262330097,71.28896457825363 93.81533400219318,74.08768370508577 92.21639627510075,76.79133974894984 90.45084971874738,79.38926261462366 88.52566213878947,81.87119948743448 86.44843137107057,84.22735529643444 84.22735529643444,86.44843137107057 81.8711994874345,88.52566213878947 79.38926261462366,90.45084971874736 76.79133974894982,92.21639627510075 74.08768370508577,93.81533400219318 71.28896457825363,95.24135262330097 68.4062276342339,96.48882429441257 65.45084971874738,97.55282581475768 62.43449435824274,98.42915805643156 59.369065729286234,99.11436253643443 56.26666167821522,99.60573506572389 53.13952597646568,99.90133642141357 50.0,100.0 46.86047402353433,99.90133642141357 43.73333832178479,99.60573506572389 40.630934270713766,99.11436253643444 37.565505641757255,98.42915805643156 34.54915028125264,97.55282581475768 31.593772365766114,96.48882429441258 28.711035421746363,95.24135262330097 25.912316294914227,93.81533400219317 23.208660251050155,92.21639627510075 20.61073738537635,90.45084971874738 18.128800512565512,88.52566213878947 15.772644703565561,86.44843137107057 13.55156862892943,84.22735529643444 11.474337861210543,81.8711994874345 9.549150281252636,79.38926261462366 7.783603724899258,76.79133974894985 6.1846659978068175,74.08768370508577 4.758647376699031,71.28896457825364 3.5111757055874335,68.40622763423391 2.447174185242325,65.45084971874738 1.5708419435684533,62.43449435824276 0.8856374635655655,59.36906572928623 0.39426493427610865,56.26666167821523 0.09866357858642516,53.13952597646568 0.0,50.00000000000001 0.09866357858642516,46.86047402353433 0.39426493427610865,43.733338321784785 0.8856374635655726,40.630934270713766 1.570841943568439,37.56550564175727 2.447174185242318,34.549150281252636 3.5111757055874264,31.593772365766103 4.758647376699017,28.711035421746388 6.1846659978068175,25.91231629491423 7.783603724899244,23.20866025105018 9.549150281252608,20.610737385376364 11.474337861210536,18.12880051256552 13.55156862892941,15.772644703565582 15.772644703565568,13.551568628929424 18.128800512565522,11.474337861210529 20.61073738537634,9.549150281252636 23.208660251050183,7.783603724899237 25.912316294914238,6.1846659978068175 28.71103542174639,4.75864737669901 31.59377236576611,3.5111757055874264 34.54915028125262,2.447174185242325 37.56550564175728,1.570841943568439 40.630934270713766,0.8856374635655655 43.73333832178477,0.39426493427610865 46.86047402353434,0.09866357858642516 49.99999999999999,0.0 53.13952597646564,0.09866357858642516 56.266661678215215,0.39426493427610865 59.36906572928621,0.8856374635655655 62.434494358242745,1.5708419435684462 65.45084971874736,2.447174185242318 68.40622763423387,3.5111757055874193 71.2889645782536,4.7586473766990025 74.0876837050858,6.184665997806832 76.79133974894984,7.783603724899251 79.38926261462365,9.549150281252622 81.87119948743447,11.474337861210522 84.22735529643441,13.551568628929395 86.44843137107057,15.772644703565554 88.52566213878947,18.12880051256552 90.45084971874736,20.610737385376332 92.21639627510073,23.208660251050144 93.81533400219315,25.912316294914195 95.24135262330097,28.71103542174635 96.48882429441258,31.593772365766107 97.55282581475768,34.54915028125262 98.42915805643155,37.565505641757234 99.11436253643444,40.630934270713766 99.60573506572389,43.73333832178477 99.90133642141357,46.86047402353434 "/>
</svg>
