<?xml version="1.0" encoding="utf-8"?>
<!-- Generator: Adobe Illustrator 16.0.4, SVG Export Plug-In . SVG Version: 6.00 Build 0)  -->
<!DOCTYPE svg PUBLIC "-//W3C//DTD SVG 1.1//EN" "http://www.w3.org/Graphics/SVG/1.1/DTD/svg11.dtd">
<svg version="1.1" id="Layer_1" xmlns="http://www.w3.org/2000/svg" xmlns:xlink="http://www.w3.org/1999/xlink" x="0px" y="0px"
width="150.0px"
height="150.0px"
viewBox="0 0 150.0 150.0" enable-background="new 0 0 150.0 150.0"
xml:space="preserve">
<polygon fill="#00FFF2" points="100.0,75.0 124.97532801828658,76.57053795390641 99.9506682107068,76.56976298823284 "/>
<polygon fill="#FFF291" points="100.0,75.0 75.0,75.0 99.9506682107068,76.56976298823284 "/>
<polygon fill="#00FFF2" points="99.9506682107068,76.56976298823284 124.778098230154,79.70541566592571 99.80286753286194,78.1333308391076 "/>
<polygon fill="#FFF291" points="99.9506682107068,76.56976298823284 75.0,75.0 99.80286753286194,78.1333308391076 "/>
<polygon fill="#00FFF2" points="99.80286753286194,78.1333308391076 124.38441702975689,82.82172325201154 99.55718126821722,79.68453286464312 "/>
<polygon fill="#FFF291" points="99.80286753286194,78.1333308391076 75.0,75.0 99.55718126821722,79.68453286464312 "/>
<polygon fill="#00FFF2" points="99.55718126821722,79.68453286464312 123.79583809693737,85.90716206982712 99.21457902821578,81.21724717912137 "/>
<polygon fill="#FFF291" points="99.55718126821722,79.68453286464312 75.0,75.0 99.21457902821578,81.21724717912137 "/>
<polygon fill="#00FFF2" points="99.21457902821578,81.21724717912137 123.01468428384715,88.94955530196147 98.77641290737884,82.72542485937369 "/>
<polygon fill="#FFF291" points="99.21457902821578,81.21724717912137 75.0,75.0 98.77641290737884,82.72542485937369 "/>
<polygon fill="#00FFF2" points="98.77641290737884,82.72542485937369 122.04403844771127,91.93689601226457 98.24441214720629,84.20311381711694 "/>
<polygon fill="#FFF291" points="98.77641290737884,82.72542485937369 75.0,75.0 98.24441214720629,84.20311381711694 "/>
<polygon fill="#00FFF2" points="98.24441214720629,84.20311381711694 120.88773128419905,94.85739453173903 97.62067631165048,85.64448228912681 "/>
<polygon fill="#FFF291" points="98.24441214720629,84.20311381711694 75.0,75.0 97.62067631165048,85.64448228912681 "/>
<polygon fill="#00FFF2" points="97.62067631165048,85.64448228912681 119.55032620941839,97.69952498697734 96.9076670010966,87.04384185254288 "/>
<polygon fill="#FFF291" points="97.62067631165048,85.64448228912681 75.0,75.0 96.9076670010966,87.04384185254288 "/>
<polygon fill="#00FFF2" points="96.9076670010966,87.04384185254288 118.03710135019719,100.45207078751856 96.10819813755037,88.39566987447492 "/>
<polygon fill="#FFF291" points="96.9076670010966,87.04384185254288 75.0,75.0 96.10819813755037,88.39566987447492 "/>
<polygon fill="#00FFF2" points="96.10819813755037,88.39566987447492 116.3540287137281,103.10416889260654 95.22542485937369,89.69463130731182 "/>
<polygon fill="#FFF291" points="96.10819813755037,88.39566987447492 75.0,75.0 95.22542485937369,89.69463130731182 "/>
<polygon fill="#00FFF2" points="95.22542485937369,89.69463130731182 114.50775061878451,105.64535268264882 94.26283106939474,90.93559974371723 "/>
<polygon fill="#FFF291" points="95.22542485937369,89.69463130731182 75.0,75.0 94.26283106939474,90.93559974371723 "/>
<polygon fill="#00FFF2" points="94.26283106939474,90.93559974371723 112.50555348152298,108.06559326618259 93.22421568553528,92.11367764821722 "/>
<polygon fill="#FFF291" points="94.26283106939474,90.93559974371723 75.0,75.0 93.22421568553528,92.11367764821722 "/>
<polygon fill="#00FFF2" points="93.22421568553528,92.11367764821722 110.35533905932738,110.35533905932738 92.11367764821722,93.22421568553528 "/>
<polygon fill="#FFF291" points="93.22421568553528,92.11367764821722 75.0,75.0 92.11367764821722,93.22421568553528 "/>
<polygon fill="#00FFF2" points="92.11367764821722,93.22421568553528 108.06559326618259,112.50555348152298 90.93559974371725,94.26283106939474 "/>
<polygon fill="#FFF291" points="92.11367764821722,93.22421568553528 75.0,75.0 90.93559974371725,94.26283106939474 "/>
<polygon fill="#00FFF2" points="90.93559974371725,94.26283106939474 105.64535268264882,114.50775061878451 89.69463130731182,95.22542485937367 "/>
<polygon fill="#FFF291" points="90.93559974371725,94.26283106939474 75.0,75.0 89.69463130731182,95.22542485937367 "/>
<polygon fill="#00FFF2" points="89.69463130731182,95.22542485937367 103.10416889260654,116.3540287137281 88.39566987447492,96.10819813755037 "/>
<polygon fill="#FFF291" points="89.69463130731182,95.22542485937367 75.0,75.0 88.39566987447492,96.10819813755037 "/>
<polygon fill="#00FFF2" points="88.39566987447492,96.10819813755037 100.45207078751856,118.03710135019719 87.04384185254288,96.9076670010966 "/>
<polygon fill="#FFF291" points="88.39566987447492,96.10819813755037 75.0,75.0 87.04384185254288,96.9076670010966 "/>
<polygon fill="#00FFF2" points="87.04384185254288,96.9076670010966 97.69952498697734,119.55032620941839 85.64448228912681,97.62067631165048 "/>
<polygon fill="#FFF291" points="87.04384185254288,96.9076670010966 75.0,75.0 85.64448228912681,97.62067631165048 "/>
<polygon fill="#00FFF2" points="85.64448228912681,97.62067631165048 94.85739453173903,120.88773128419905 84.20311381711696,98.24441214720628 "/>
<polygon fill="#FFF291" points="85.64448228912681,97.62067631165048 75.0,75.0 84.20311381711696,98.24441214720628 "/>
<polygon fill="#00FFF2" points="84.20311381711696,98.24441214720628 91.93689601226457,122.04403844771127 82.72542485937369,98.77641290737884 "/>
<polygon fill="#FFF291" points="84.20311381711696,98.24441214720628 75.0,75.0 82.72542485937369,98.77641290737884 "/>
<polygon fill="#00FFF2" points="82.72542485937369,98.77641290737884 88.94955530196148,123.01468428384715 81.21724717912137,99.21457902821578 "/>
<polygon fill="#FFF291" points="82.72542485937369,98.77641290737884 75.0,75.0 81.21724717912137,99.21457902821578 "/>
<polygon fill="#00FFF2" points="81.21724717912137,99.21457902821578 85.90716206982714,123.79583809693736 79.68453286464312,99.55718126821722 "/>
<polygon fill="#FFF291" points="81.21724717912137,99.21457902821578 75.0,75.0 79.68453286464312,99.55718126821722 "/>
<polygon fill="#00FFF2" points="79.68453286464312,99.55718126821722 82.82172325201155,124.38441702975689 78.13333083910761,99.80286753286194 "/>
<polygon fill="#FFF291" points="79.68453286464312,99.55718126821722 75.0,75.0 78.13333083910761,99.80286753286194 "/>
<polygon fill="#00FFF2" points="78.13333083910761,99.80286753286194 79.70541566592571,124.778098230154 76.56976298823284,99.9506682107068 "/>
<polygon fill="#FFF291" points="78.13333083910761,99.80286753286194 75.0,75.0 76.56976298823284,99.9506682107068 "/>
<polygon fill="#00FFF2" points="76.56976298823284,99.9506682107068 76.57053795390642,124.97532801828658 75.0,100.0 "/>
<polygon fill="#FFF291" points="76.56976298823284,99.9506682107068 75.0,75.0 75.0,100.0 "/>
<polygon fill="#00FFF2" points="75.0,100.0 73.42946204609359,124.97532801828658 73.43023701176716,99.9506682107068 "/>
<polygon fill="#FFF291" points="75.0,100.0 75.0,75.0 73.43023701176716,99.9506682107068 "/>
<polygon fill="#00FFF2" points="73.43023701176716,99.9506682107068 70.29458433407429,124.778098230154 71.8666691608924,99.80286753286194 "/>
<polygon fill="#FFF291" points="73.43023701176716,99.9506682107068 75.0,75.0 71.8666691608924,99.80286753286194 "/>
<polygon fill="#00FFF2" points="71.8666691608924,99.80286753286194 67.17827674798846,124.38441702975689 70.31546713535688,99.55718126821722 "/>
<polygon fill="#FFF291" points="71.8666691608924,99.80286753286194 75.0,75.0 70.31546713535688,99.55718126821722 "/>
<polygon fill="#00FFF2" points="70.31546713535688,99.55718126821722 64.09283793017288,123.79583809693737 68.78275282087863,99.21457902821578 "/>
<polygon fill="#FFF291" points="70.31546713535688,99.55718126821722 75.0,75.0 68.78275282087863,99.21457902821578 "/>
<polygon fill="#00FFF2" points="68.78275282087863,99.21457902821578 61.05044469803854,123.01468428384715 67.27457514062633,98.77641290737884 "/>
<polygon fill="#FFF291" points="68.78275282087863,99.21457902821578 75.0,75.0 67.27457514062633,98.77641290737884 "/>
<polygon fill="#00FFF2" points="67.27457514062633,98.77641290737884 58.06310398773543,122.04403844771127 65.79688618288306,98.24441214720629 "/>
<polygon fill="#FFF291" points="67.27457514062633,98.77641290737884 75.0,75.0 65.79688618288306,98.24441214720629 "/>
<polygon fill="#00FFF2" points="65.79688618288306,98.24441214720629 55.14260546826097,120.88773128419905 64.35551771087319,97.62067631165048 "/>
<polygon fill="#FFF291" points="65.79688618288306,98.24441214720629 75.0,75.0 64.35551771087319,97.62067631165048 "/>
<polygon fill="#00FFF2" points="64.35551771087319,97.62067631165048 52.30047501302266,119.55032620941839 62.95615814745712,96.90766700109658 "/>
<polygon fill="#FFF291" points="64.35551771087319,97.62067631165048 75.0,75.0 62.95615814745712,96.90766700109658 "/>
<polygon fill="#00FFF2" points="62.95615814745712,96.90766700109658 49.547929212481435,118.03710135019719 61.60433012552508,96.10819813755037 "/>
<polygon fill="#FFF291" points="62.95615814745712,96.90766700109658 75.0,75.0 61.60433012552508,96.10819813755037 "/>
<polygon fill="#00FFF2" points="61.60433012552508,96.10819813755037 46.89583110739346,116.35402871372808 60.30536869268818,95.22542485937369 "/>
<polygon fill="#FFF291" points="61.60433012552508,96.10819813755037 75.0,75.0 60.30536869268818,95.22542485937369 "/>
<polygon fill="#00FFF2" points="60.30536869268818,95.22542485937369 44.354647317351166,114.50775061878451 59.06440025628275,94.26283106939474 "/>
<polygon fill="#FFF291" points="60.30536869268818,95.22542485937369 75.0,75.0 59.06440025628275,94.26283106939474 "/>
<polygon fill="#00FFF2" points="59.06440025628275,94.26283106939474 41.93440673381741,112.50555348152298 57.88632235178278,93.22421568553528 "/>
<polygon fill="#FFF291" points="59.06440025628275,94.26283106939474 75.0,75.0 57.88632235178278,93.22421568553528 "/>
<polygon fill="#00FFF2" points="57.88632235178278,93.22421568553528 39.64466094067263,110.35533905932738 56.775784314464715,92.11367764821722 "/>
<polygon fill="#FFF291" points="57.88632235178278,93.22421568553528 75.0,75.0 56.775784314464715,92.11367764821722 "/>
<polygon fill="#00FFF2" points="56.775784314464715,92.11367764821722 37.49444651847703,108.06559326618259 55.73716893060527,90.93559974371725 "/>
<polygon fill="#FFF291" points="56.775784314464715,92.11367764821722 75.0,75.0 55.73716893060527,90.93559974371725 "/>
<polygon fill="#00FFF2" points="55.73716893060527,90.93559974371725 35.49224938121548,105.64535268264882 54.77457514062632,89.69463130731182 "/>
<polygon fill="#FFF291" points="55.73716893060527,90.93559974371725 75.0,75.0 54.77457514062632,89.69463130731182 "/>
<polygon fill="#00FFF2" points="54.77457514062632,89.69463130731182 33.645971286271916,103.10416889260654 53.891801862449626,88.39566987447492 "/>
<polygon fill="#FFF291" points="54.77457514062632,89.69463130731182 75.0,75.0 53.891801862449626,88.39566987447492 "/>
<polygon fill="#00FFF2" points="53.891801862449626,88.39566987447492 31.96289864980281,100.45207078751855 53.09233299890341,87.04384185254288 "/>
<polygon fill="#FFF291" points="53.891801862449626,88.39566987447492 75.0,75.0 53.09233299890341,87.04384185254288 "/>
<polygon fill="#00FFF2" points="53.09233299890341,87.04384185254288 30.449673790581613,97.69952498697734 52.379323688349515,85.64448228912683 "/>
<polygon fill="#FFF291" points="53.09233299890341,87.04384185254288 75.0,75.0 52.379323688349515,85.64448228912683 "/>
<polygon fill="#00FFF2" points="52.379323688349515,85.64448228912683 29.11226871580095,94.85739453173906 51.75558785279372,84.20311381711696 "/>
<polygon fill="#FFF291" points="52.379323688349515,85.64448228912683 75.0,75.0 51.75558785279372,84.20311381711696 "/>
<polygon fill="#00FFF2" points="51.75558785279372,84.20311381711696 27.955961552288727,91.93689601226457 51.22358709262116,82.72542485937369 "/>
<polygon fill="#FFF291" points="51.75558785279372,84.20311381711696 75.0,75.0 51.22358709262116,82.72542485937369 "/>
<polygon fill="#00FFF2" points="51.22358709262116,82.72542485937369 26.985315716152854,88.94955530196148 50.78542097178423,81.21724717912139 "/>
<polygon fill="#FFF291" points="51.22358709262116,82.72542485937369 75.0,75.0 50.78542097178423,81.21724717912139 "/>
<polygon fill="#00FFF2" points="50.78542097178423,81.21724717912139 26.204161903062634,85.90716206982714 50.44281873178278,79.68453286464312 "/>
<polygon fill="#FFF291" points="50.78542097178423,81.21724717912139 75.0,75.0 50.44281873178278,79.68453286464312 "/>
<polygon fill="#00FFF2" points="50.44281873178278,79.68453286464312 25.615582970243118,82.82172325201155 50.197132467138054,78.13333083910761 "/>
<polygon fill="#FFF291" points="50.44281873178278,79.68453286464312 75.0,75.0 50.197132467138054,78.13333083910761 "/>
<polygon fill="#00FFF2" points="50.197132467138054,78.13333083910761 25.221901769846,79.70541566592571 50.04933178929321,76.56976298823284 "/>
<polygon fill="#FFF291" points="50.197132467138054,78.13333083910761 75.0,75.0 50.04933178929321,76.56976298823284 "/>
<polygon fill="#00FFF2" points="50.04933178929321,76.56976298823284 25.024671981713418,76.57053795390641 50.0,75.0 "/>
<polygon fill="#FFF291" points="50.04933178929321,76.56976298823284 75.0,75.0 50.0,75.0 "/>
<polygon fill="#00FFF2" points="50.0,75.0 25.024671981713418,73.4294620460936 50.04933178929321,73.43023701176716 "/>
<polygon fill="#FFF291" points="50.0,75.0 75.0,75.0 50.04933178929321,73.43023701176716 "/>
<polygon fill="#00FFF2" points="50.04933178929321,73.43023701176716 25.221901769846,70.2945843340743 50.197132467138054,71.8666691608924 "/>
<polygon fill="#FFF291" points="50.04933178929321,73.43023701176716 75.0,75.0 50.197132467138054,71.8666691608924 "/>
<polygon fill="#00FFF2" points="50.197132467138054,71.8666691608924 25.61558297024311,67.17827674798846 50.442818731782786,70.31546713535688 "/>
<polygon fill="#FFF291" points="50.197132467138054,71.8666691608924 75.0,75.0 50.442818731782786,70.31546713535688 "/>
<polygon fill="#00FFF2" points="50.442818731782786,70.31546713535688 26.204161903062626,64.09283793017288 50.78542097178422,68.78275282087864 "/>
<polygon fill="#FFF291" points="50.442818731782786,70.31546713535688 75.0,75.0 50.78542097178422,68.78275282087864 "/>
<polygon fill="#00FFF2" points="50.78542097178422,68.78275282087864 26.98531571615284,61.050444698038554 51.22358709262116,67.27457514062633 "/>
<polygon fill="#FFF291" points="50.78542097178422,68.78275282087864 75.0,75.0 51.22358709262116,67.27457514062633 "/>
<polygon fill="#00FFF2" points="51.22358709262116,67.27457514062633 27.955961552288727,58.06310398773543 51.75558785279371,65.79688618288306 "/>
<polygon fill="#FFF291" points="51.22358709262116,67.27457514062633 75.0,75.0 51.75558785279371,65.79688618288306 "/>
<polygon fill="#00FFF2" points="51.75558785279371,65.79688618288306 29.112268715800937,55.14260546826098 52.37932368834951,64.35551771087319 "/>
<polygon fill="#FFF291" points="51.75558785279371,65.79688618288306 75.0,75.0 52.37932368834951,64.35551771087319 "/>
<polygon fill="#00FFF2" points="52.37932368834951,64.35551771087319 30.449673790581613,52.30047501302265 53.09233299890341,62.95615814745712 "/>
<polygon fill="#FFF291" points="52.37932368834951,64.35551771087319 75.0,75.0 53.09233299890341,62.95615814745712 "/>
<polygon fill="#00FFF2" points="53.09233299890341,62.95615814745712 31.962898649802817,49.547929212481435 53.891801862449626,61.60433012552509 "/>
<polygon fill="#FFF291" points="53.09233299890341,62.95615814745712 75.0,75.0 53.891801862449626,61.60433012552509 "/>
<polygon fill="#00FFF2" points="53.891801862449626,61.60433012552509 33.645971286271894,46.89583110739349 54.774575140626304,60.305368692688184 "/>
<polygon fill="#FFF291" points="53.891801862449626,61.60433012552509 75.0,75.0 54.774575140626304,60.305368692688184 "/>
<polygon fill="#00FFF2" points="54.774575140626304,60.305368692688184 35.49224938121549,44.354647317351166 55.737168930605264,59.06440025628276 "/>
<polygon fill="#FFF291" points="54.774575140626304,60.305368692688184 75.0,75.0 55.737168930605264,59.06440025628276 "/>
<polygon fill="#00FFF2" points="55.737168930605264,59.06440025628276 37.49444651847701,41.93440673381741 56.7757843144647,57.886322351782795 "/>
<polygon fill="#FFF291" points="55.737168930605264,59.06440025628276 75.0,75.0 56.7757843144647,57.886322351782795 "/>
<polygon fill="#00FFF2" points="56.7757843144647,57.886322351782795 39.64466094067261,39.644660940672644 57.88632235178278,56.775784314464715 "/>
<polygon fill="#FFF291" points="56.7757843144647,57.886322351782795 75.0,75.0 57.88632235178278,56.775784314464715 "/>
<polygon fill="#00FFF2" points="57.88632235178278,56.775784314464715 41.934406733817404,37.49444651847703 59.06440025628276,55.737168930605264 "/>
<polygon fill="#FFF291" points="57.88632235178278,56.775784314464715 75.0,75.0 59.06440025628276,55.737168930605264 "/>
<polygon fill="#00FFF2" points="59.06440025628276,55.737168930605264 44.35464731735118,35.49224938121548 60.30536869268817,54.77457514062632 "/>
<polygon fill="#FFF291" points="59.06440025628276,55.737168930605264 75.0,75.0 60.30536869268817,54.77457514062632 "/>
<polygon fill="#00FFF2" points="60.30536869268817,54.77457514062632 46.895831107393455,33.64597128627192 61.604330125525095,53.89180186244962 "/>
<polygon fill="#FFF291" points="60.30536869268817,54.77457514062632 75.0,75.0 61.604330125525095,53.89180186244962 "/>
<polygon fill="#00FFF2" points="61.604330125525095,53.89180186244962 49.54792921248145,31.96289864980281 62.95615814745712,53.09233299890341 "/>
<polygon fill="#FFF291" points="61.604330125525095,53.89180186244962 75.0,75.0 62.95615814745712,53.09233299890341 "/>
<polygon fill="#00FFF2" points="62.95615814745712,53.09233299890341 52.300475013022655,30.449673790581613 64.3555177108732,52.3793236883495 "/>
<polygon fill="#FFF291" points="62.95615814745712,53.09233299890341 75.0,75.0 64.3555177108732,52.3793236883495 "/>
<polygon fill="#00FFF2" points="64.3555177108732,52.3793236883495 55.14260546826098,29.112268715800937 65.79688618288306,51.75558785279371 "/>
<polygon fill="#FFF291" points="64.3555177108732,52.3793236883495 75.0,75.0 65.79688618288306,51.75558785279371 "/>
<polygon fill="#00FFF2" points="65.79688618288306,51.75558785279371 58.06310398773543,27.955961552288727 67.27457514062631,51.22358709262116 "/>
<polygon fill="#FFF291" points="65.79688618288306,51.75558785279371 75.0,75.0 67.27457514062631,51.22358709262116 "/>
<polygon fill="#00FFF2" points="67.27457514062631,51.22358709262116 61.05044469803852,26.985315716152854 68.78275282087864,50.78542097178422 "/>
<polygon fill="#FFF291" points="67.27457514062631,51.22358709262116 75.0,75.0 68.78275282087864,50.78542097178422 "/>
<polygon fill="#00FFF2" points="68.78275282087864,50.78542097178422 64.09283793017288,26.204161903062626 70.31546713535688,50.44281873178278 "/>
<polygon fill="#FFF291" points="68.78275282087864,50.78542097178422 75.0,75.0 70.31546713535688,50.44281873178278 "/>
<polygon fill="#00FFF2" points="70.31546713535688,50.44281873178278 67.17827674798845,25.615582970243118 71.86666916089239,50.197132467138054 "/>
<polygon fill="#FFF291" points="70.31546713535688,50.44281873178278 75.0,75.0 71.86666916089239,50.197132467138054 "/>
<polygon fill="#00FFF2" points="71.86666916089239,50.197132467138054 70.2945843340743,25.221901769846 73.43023701176718,50.04933178929321 "/>
<polygon fill="#FFF291" points="71.86666916089239,50.197132467138054 75.0,75.0 73.43023701176718,50.04933178929321 "/>
<polygon fill="#00FFF2" points="73.43023701176718,50.04933178929321 73.42946204609359,25.024671981713418 75.0,50.0 "/>
<polygon fill="#FFF291" points="73.43023701176718,50.04933178929321 75.0,75.0 75.0,50.0 "/>
<polygon fill="#00FFF2" points="75.0,50.0 76.5705379539064,25.024671981713418 76.56976298823282,50.04933178929321 "/>
<polygon fill="#FFF291" points="75.0,50.0 75.0,75.0 76.56976298823282,50.04933178929321 "/>
<polygon fill="#00FFF2" points="76.56976298823282,50.04933178929321 79.70541566592573,25.221901769846 78.1333308391076,50.197132467138054 "/>
<polygon fill="#FFF291" points="76.56976298823282,50.04933178929321 75.0,75.0 78.1333308391076,50.197132467138054 "/>
<polygon fill="#00FFF2" points="78.1333308391076,50.197132467138054 82.82172325201154,25.61558297024311 79.6845328646431,50.44281873178278 "/>
<polygon fill="#FFF291" points="78.1333308391076,50.197132467138054 75.0,75.0 79.6845328646431,50.44281873178278 "/>
<polygon fill="#00FFF2" points="79.6845328646431,50.44281873178278 85.9071620698271,26.20416190306262 81.21724717912137,50.78542097178422 "/>
<polygon fill="#FFF291" points="79.6845328646431,50.44281873178278 75.0,75.0 81.21724717912137,50.78542097178422 "/>
<polygon fill="#00FFF2" points="81.21724717912137,50.78542097178422 88.94955530196145,26.985315716152847 82.72542485937367,51.22358709262116 "/>
<polygon fill="#FFF291" points="81.21724717912137,50.78542097178422 75.0,75.0 82.72542485937367,51.22358709262116 "/>
<polygon fill="#00FFF2" points="82.72542485937367,51.22358709262116 91.93689601226455,27.95596155228872 84.20311381711693,51.75558785279371 "/>
<polygon fill="#FFF291" points="82.72542485937367,51.22358709262116 75.0,75.0 84.20311381711693,51.75558785279371 "/>
<polygon fill="#00FFF2" points="84.20311381711693,51.75558785279371 94.857394531739,29.112268715800923 85.6444822891268,52.3793236883495 "/>
<polygon fill="#FFF291" points="84.20311381711693,51.75558785279371 75.0,75.0 85.6444822891268,52.3793236883495 "/>
<polygon fill="#00FFF2" points="85.6444822891268,52.3793236883495 97.6995249869773,30.449673790581585 87.0438418525429,53.092332998903416 "/>
<polygon fill="#FFF291" points="85.6444822891268,52.3793236883495 75.0,75.0 87.0438418525429,53.092332998903416 "/>
<polygon fill="#00FFF2" points="87.0438418525429,53.092332998903416 100.45207078751858,31.96289864980283 88.39566987447492,53.891801862449626 "/>
<polygon fill="#FFF291" points="87.0438418525429,53.092332998903416 75.0,75.0 88.39566987447492,53.891801862449626 "/>
<polygon fill="#00FFF2" points="88.39566987447492,53.891801862449626 103.10416889260654,33.64597128627191 89.69463130731182,54.77457514062631 "/>
<polygon fill="#FFF291" points="88.39566987447492,53.891801862449626 75.0,75.0 89.69463130731182,54.77457514062631 "/>
<polygon fill="#00FFF2" points="89.69463130731182,54.77457514062631 105.6453526826488,35.492249381215466 90.93559974371723,55.737168930605264 "/>
<polygon fill="#FFF291" points="89.69463130731182,54.77457514062631 75.0,75.0 90.93559974371723,55.737168930605264 "/>
<polygon fill="#00FFF2" points="90.93559974371723,55.737168930605264 108.06559326618256,37.494446518477 92.1136776482172,56.7757843144647 "/>
<polygon fill="#FFF291" points="90.93559974371723,55.737168930605264 75.0,75.0 92.1136776482172,56.7757843144647 "/>
<polygon fill="#00FFF2" points="92.1136776482172,56.7757843144647 110.35533905932735,39.64466094067258 93.22421568553528,57.88632235178278 "/>
<polygon fill="#FFF291" points="92.1136776482172,56.7757843144647 75.0,75.0 93.22421568553528,57.88632235178278 "/>
<polygon fill="#00FFF2" points="93.22421568553528,57.88632235178278 112.50555348152298,41.93440673381742 94.26283106939474,59.06440025628276 "/>
<polygon fill="#FFF291" points="93.22421568553528,57.88632235178278 75.0,75.0 94.26283106939474,59.06440025628276 "/>
<polygon fill="#00FFF2" points="94.26283106939474,59.06440025628276 114.50775061878451,44.35464731735118 95.22542485937367,60.30536869268816 "/>
<polygon fill="#FFF291" points="94.26283106939474,59.06440025628276 75.0,75.0 95.22542485937367,60.30536869268816 "/>
<polygon fill="#00FFF2" points="95.22542485937367,60.30536869268816 116.35402871372807,46.895831107393455 96.10819813755037,61.604330125525074 "/>
<polygon fill="#FFF291" points="95.22542485937367,60.30536869268816 75.0,75.0 96.10819813755037,61.604330125525074 "/>
<polygon fill="#00FFF2" points="96.10819813755037,61.604330125525074 118.03710135019716,49.5479292124814 96.90766700109657,62.956158147457096 "/>
<polygon fill="#FFF291" points="96.10819813755037,61.604330125525074 75.0,75.0 96.90766700109657,62.956158147457096 "/>
<polygon fill="#00FFF2" points="96.90766700109657,62.956158147457096 119.55032620941839,52.30047501302265 97.62067631165048,64.35551771087317 "/>
<polygon fill="#FFF291" points="96.90766700109657,62.956158147457096 75.0,75.0 97.62067631165048,64.35551771087317 "/>
<polygon fill="#00FFF2" points="97.62067631165048,64.35551771087317 120.88773128419906,55.14260546826098 98.24441214720629,65.79688618288306 "/>
<polygon fill="#FFF291" points="97.62067631165048,64.35551771087317 75.0,75.0 98.24441214720629,65.79688618288306 "/>
<polygon fill="#00FFF2" points="98.24441214720629,65.79688618288306 122.04403844771127,58.06310398773543 98.77641290737884,67.27457514062631 "/>
<polygon fill="#FFF291" points="98.24441214720629,65.79688618288306 75.0,75.0 98.77641290737884,67.27457514062631 "/>
<polygon fill="#00FFF2" points="98.77641290737884,67.27457514062631 123.01468428384715,61.05044469803852 99.21457902821578,68.78275282087861 "/>
<polygon fill="#FFF291" points="98.77641290737884,67.27457514062631 75.0,75.0 99.21457902821578,68.78275282087861 "/>
<polygon fill="#00FFF2" points="99.21457902821578,68.78275282087861 123.79583809693736,64.09283793017283 99.55718126821722,70.31546713535688 "/>
<polygon fill="#FFF291" points="99.21457902821578,68.78275282087861 75.0,75.0 99.55718126821722,70.31546713535688 "/>
<polygon fill="#00FFF2" points="99.55718126821722,70.31546713535688 124.38441702975689,67.17827674798845 99.80286753286194,71.86666916089239 "/>
<polygon fill="#FFF291" points="99.55718126821722,70.31546713535688 75.0,75.0 99.80286753286194,71.86666916089239 "/>
<polygon fill="#00FFF2" points="99.80286753286194,71.86666916089239 124.778098230154,70.29458433407426 99.9506682107068,73.43023701176716 "/>
<polygon fill="#FFF291" points="99.80286753286194,71.86666916089239 75.0,75.0 99.9506682107068,73.43023701176716 "/>
<polygon fill="#00FFF2" points="99.9506682107068,73.43023701176716 124.97532801828658,73.42946204609358 100.0,75.0 "/>
<polygon fill="#FFF291" points="99.9506682107068,73.43023701176716 75.0,75.0 100.0,75.0 "/>
<polygon fill="#FF8168" points="124.97532801828658,76.57053795390641 99.9506682107068,76.56976298823284 124.778098230154,79.70541566592571 "/>
<polygon fill="#FF1900" points="124.97532801828658,76.57053795390641 137.376670526767,78.92440747058208 124.778098230154,79.70541566592571 "/>
<polygon fill="#FF8168" points="124.778098230154,79.70541566592571 99.80286753286194,78.1333308391076 124.38441702975689,82.82172325201154 "/>
<polygon fill="#FF1900" points="124.778098230154,79.70541566592571 137.00716883215486,82.83332709776901 124.38441702975689,82.82172325201154 "/>
<polygon fill="#FF8168" points="124.38441702975689,82.82172325201154 99.55718126821722,79.68453286464312 123.79583809693737,85.90716206982712 "/>
<polygon fill="#FF1900" points="124.38441702975689,82.82172325201154 136.39295317054305,86.71133216160779 123.79583809693737,85.90716206982712 "/>
<polygon fill="#FF8168" points="123.79583809693737,85.90716206982712 99.21457902821578,81.21724717912137 123.01468428384715,88.94955530196147 "/>
<polygon fill="#FF1900" points="123.79583809693737,85.90716206982712 135.53644757053945,90.54311794780342 123.01468428384715,88.94955530196147 "/>
<polygon fill="#FF8168" points="123.01468428384715,88.94955530196147 98.77641290737884,82.72542485937369 122.04403844771127,91.93689601226457 "/>
<polygon fill="#FF1900" points="123.01468428384715,88.94955530196147 134.4410322684471,94.31356214843422 122.04403844771127,91.93689601226457 "/>
<polygon fill="#FF8168" points="122.04403844771127,91.93689601226457 98.24441214720629,84.20311381711694 120.88773128419905,94.85739453173903 "/>
<polygon fill="#FF1900" points="122.04403844771127,91.93689601226457 133.11103036801572,98.00778454279236 120.88773128419905,94.85739453173903 "/>
<polygon fill="#FF8168" points="120.88773128419905,94.85739453173903 97.62067631165048,85.64448228912681 119.55032620941839,97.69952498697734 "/>
<polygon fill="#FF1900" points="120.88773128419905,94.85739453173903 131.55169077912623,101.61120572281703 119.55032620941839,97.69952498697734 "/>
<polygon fill="#FF8168" points="119.55032620941839,97.69952498697734 96.9076670010966,87.04384185254288 118.03710135019719,100.45207078751856 "/>
<polygon fill="#FF1900" points="119.55032620941839,97.69952498697734 129.76916750274148,105.1096046313572 118.03710135019719,100.45207078751856 "/>
<polygon fill="#FF8168" points="118.03710135019719,100.45207078751856 96.10819813755037,88.39566987447492 116.3540287137281,103.10416889260654 "/>
<polygon fill="#FF1900" points="118.03710135019719,100.45207078751856 127.77049534387595,108.48917468618728 116.3540287137281,103.10416889260654 "/>
<polygon fill="#FF8168" points="116.3540287137281,103.10416889260654 95.22542485937369,89.69463130731182 114.50775061878451,105.64535268264882 "/>
<polygon fill="#FF1900" points="116.3540287137281,103.10416889260654 125.56356214843422,111.73657826827957 114.50775061878451,105.64535268264882 "/>
<polygon fill="#FF8168" points="114.50775061878451,105.64535268264882 94.26283106939474,90.93559974371723 112.50555348152298,108.06559326618259 "/>
<polygon fill="#FF1900" points="114.50775061878451,105.64535268264882 123.15707767348684,114.8389993592931 112.50555348152298,108.06559326618259 "/>
<polygon fill="#FF8168" points="112.50555348152298,108.06559326618259 93.22421568553528,92.11367764821722 110.35533905932738,110.35533905932738 "/>
<polygon fill="#FF1900" points="112.50555348152298,108.06559326618259 120.56053921383821,117.78419412054305 110.35533905932738,110.35533905932738 "/>
<polygon fill="#FF8168" points="110.35533905932738,110.35533905932738 92.11367764821722,93.22421568553528 108.06559326618259,112.50555348152298 "/>
<polygon fill="#FF1900" points="110.35533905932738,110.35533905932738 117.78419412054305,120.56053921383821 108.06559326618259,112.50555348152298 "/>
<polygon fill="#FF8168" points="108.06559326618259,112.50555348152298 90.93559974371725,94.26283106939474 105.64535268264882,114.50775061878451 "/>
<polygon fill="#FF1900" points="108.06559326618259,112.50555348152298 114.83899935929311,123.15707767348684 105.64535268264882,114.50775061878451 "/>
<polygon fill="#FF8168" points="105.64535268264882,114.50775061878451 89.69463130731182,95.22542485937367 103.10416889260654,116.3540287137281 "/>
<polygon fill="#FF1900" points="105.64535268264882,114.50775061878451 111.73657826827957,125.56356214843422 103.10416889260654,116.3540287137281 "/>
<polygon fill="#FF8168" points="103.10416889260654,116.3540287137281 88.39566987447492,96.10819813755037 100.45207078751856,118.03710135019719 "/>
<polygon fill="#FF1900" points="103.10416889260654,116.3540287137281 108.48917468618728,127.77049534387595 100.45207078751856,118.03710135019719 "/>
<polygon fill="#FF8168" points="100.45207078751856,118.03710135019719 87.04384185254288,96.9076670010966 97.69952498697734,119.55032620941839 "/>
<polygon fill="#FF1900" points="100.45207078751856,118.03710135019719 105.1096046313572,129.76916750274148 97.69952498697734,119.55032620941839 "/>
<polygon fill="#FF8168" points="97.69952498697734,119.55032620941839 85.64448228912681,97.62067631165048 94.85739453173903,120.88773128419905 "/>
<polygon fill="#FF1900" points="97.69952498697734,119.55032620941839 101.61120572281703,131.55169077912623 94.85739453173903,120.88773128419905 "/>
<polygon fill="#FF8168" points="94.85739453173903,120.88773128419905 84.20311381711696,98.24441214720628 91.93689601226457,122.04403844771127 "/>
<polygon fill="#FF1900" points="94.85739453173903,120.88773128419905 98.00778454279238,133.11103036801572 91.93689601226457,122.04403844771127 "/>
<polygon fill="#FF8168" points="91.93689601226457,122.04403844771127 82.72542485937369,98.77641290737884 88.94955530196148,123.01468428384715 "/>
<polygon fill="#FF1900" points="91.93689601226457,122.04403844771127 94.31356214843422,134.4410322684471 88.94955530196148,123.01468428384715 "/>
<polygon fill="#FF8168" points="88.94955530196148,123.01468428384715 81.21724717912137,99.21457902821578 85.90716206982714,123.79583809693736 "/>
<polygon fill="#FF1900" points="88.94955530196148,123.01468428384715 90.54311794780342,135.53644757053945 85.90716206982714,123.79583809693736 "/>
<polygon fill="#FF8168" points="85.90716206982714,123.79583809693736 79.68453286464312,99.55718126821722 82.82172325201155,124.38441702975689 "/>
<polygon fill="#FF1900" points="85.90716206982714,123.79583809693736 86.7113321616078,136.39295317054302 82.82172325201155,124.38441702975689 "/>
<polygon fill="#FF8168" points="82.82172325201155,124.38441702975689 78.13333083910761,99.80286753286194 79.70541566592571,124.778098230154 "/>
<polygon fill="#FF1900" points="82.82172325201155,124.38441702975689 82.83332709776903,137.00716883215486 79.70541566592571,124.778098230154 "/>
<polygon fill="#FF8168" points="79.70541566592571,124.778098230154 76.56976298823284,99.9506682107068 76.57053795390642,124.97532801828658 "/>
<polygon fill="#FF1900" points="79.70541566592571,124.778098230154 78.9244074705821,137.376670526767 76.57053795390642,124.97532801828658 "/>
<polygon fill="#FF8168" points="76.57053795390642,124.97532801828658 75.0,100.0 73.42946204609359,124.97532801828658 "/>
<polygon fill="#FF1900" points="76.57053795390642,124.97532801828658 75.0,137.5 73.42946204609359,124.97532801828658 "/>
<polygon fill="#FF8168" points="73.42946204609359,124.97532801828658 73.43023701176716,99.9506682107068 70.29458433407429,124.778098230154 "/>
<polygon fill="#FF1900" points="73.42946204609359,124.97532801828658 71.07559252941792,137.376670526767 70.29458433407429,124.778098230154 "/>
<polygon fill="#FF8168" points="70.29458433407429,124.778098230154 71.8666691608924,99.80286753286194 67.17827674798846,124.38441702975689 "/>
<polygon fill="#FF1900" points="70.29458433407429,124.778098230154 67.16667290223099,137.00716883215486 67.17827674798846,124.38441702975689 "/>
<polygon fill="#FF8168" points="67.17827674798846,124.38441702975689 70.31546713535688,99.55718126821722 64.09283793017288,123.79583809693737 "/>
<polygon fill="#FF1900" points="67.17827674798846,124.38441702975689 63.288667838392215,136.39295317054305 64.09283793017288,123.79583809693737 "/>
<polygon fill="#FF8168" points="64.09283793017288,123.79583809693737 68.78275282087863,99.21457902821578 61.05044469803854,123.01468428384715 "/>
<polygon fill="#FF1900" points="64.09283793017288,123.79583809693737 59.456882052196576,135.53644757053945 61.05044469803854,123.01468428384715 "/>
<polygon fill="#FF8168" points="61.05044469803854,123.01468428384715 67.27457514062633,98.77641290737884 58.06310398773543,122.04403844771127 "/>
<polygon fill="#FF1900" points="61.05044469803854,123.01468428384715 55.686437851565806,134.4410322684471 58.06310398773543,122.04403844771127 "/>
<polygon fill="#FF8168" points="58.06310398773543,122.04403844771127 65.79688618288306,98.24441214720629 55.14260546826097,120.88773128419905 "/>
<polygon fill="#FF1900" points="58.06310398773543,122.04403844771127 51.992215457207635,133.11103036801572 55.14260546826097,120.88773128419905 "/>
<polygon fill="#FF8168" points="55.14260546826097,120.88773128419905 64.35551771087319,97.62067631165048 52.30047501302266,119.55032620941839 "/>
<polygon fill="#FF1900" points="55.14260546826097,120.88773128419905 48.38879427718295,131.5516907791262 52.30047501302266,119.55032620941839 "/>
<polygon fill="#FF8168" points="52.30047501302266,119.55032620941839 62.95615814745712,96.90766700109658 49.547929212481435,118.03710135019719 "/>
<polygon fill="#FF1900" points="52.30047501302266,119.55032620941839 44.890395368642785,129.76916750274148 49.547929212481435,118.03710135019719 "/>
<polygon fill="#FF8168" points="49.547929212481435,118.03710135019719 61.60433012552508,96.10819813755037 46.89583110739346,116.35402871372808 "/>
<polygon fill="#FF1900" points="49.547929212481435,118.03710135019719 41.510825313812695,127.77049534387594 46.89583110739346,116.35402871372808 "/>
<polygon fill="#FF8168" points="46.89583110739346,116.35402871372808 60.30536869268818,95.22542485937369 44.354647317351166,114.50775061878451 "/>
<polygon fill="#FF1900" points="46.89583110739346,116.35402871372808 38.263421731720435,125.56356214843422 44.354647317351166,114.50775061878451 "/>
<polygon fill="#FF8168" points="44.354647317351166,114.50775061878451 59.06440025628275,94.26283106939474 41.93440673381741,112.50555348152298 "/>
<polygon fill="#FF1900" points="44.354647317351166,114.50775061878451 35.16100064070689,123.15707767348684 41.93440673381741,112.50555348152298 "/>
<polygon fill="#FF8168" points="41.93440673381741,112.50555348152298 57.88632235178278,93.22421568553528 39.64466094067263,110.35533905932738 "/>
<polygon fill="#FF1900" points="41.93440673381741,112.50555348152298 32.21580587945695,120.56053921383821 39.64466094067263,110.35533905932738 "/>
<polygon fill="#FF8168" points="39.64466094067263,110.35533905932738 56.775784314464715,92.11367764821722 37.49444651847703,108.06559326618259 "/>
<polygon fill="#FF1900" points="39.64466094067263,110.35533905932738 29.43946078616179,117.78419412054305 37.49444651847703,108.06559326618259 "/>
<polygon fill="#FF8168" points="37.49444651847703,108.06559326618259 55.73716893060527,90.93559974371725 35.49224938121548,105.64535268264882 "/>
<polygon fill="#FF1900" points="37.49444651847703,108.06559326618259 26.842922326513175,114.83899935929313 35.49224938121548,105.64535268264882 "/>
<polygon fill="#FF8168" points="35.49224938121548,105.64535268264882 54.77457514062632,89.69463130731182 33.645971286271916,103.10416889260654 "/>
<polygon fill="#FF1900" points="35.49224938121548,105.64535268264882 24.436437851565792,111.73657826827957 33.645971286271916,103.10416889260654 "/>
<polygon fill="#FF8168" points="33.645971286271916,103.10416889260654 53.891801862449626,88.39566987447492 31.96289864980281,100.45207078751855 "/>
<polygon fill="#FF1900" points="33.645971286271916,103.10416889260654 22.22950465612407,108.48917468618731 31.96289864980281,100.45207078751855 "/>
<polygon fill="#FF8168" points="31.96289864980281,100.45207078751855 53.09233299890341,87.04384185254288 30.449673790581613,97.69952498697734 "/>
<polygon fill="#FF1900" points="31.96289864980281,100.45207078751855 20.230832497258525,105.1096046313572 30.449673790581613,97.69952498697734 "/>
<polygon fill="#FF8168" points="30.449673790581613,97.69952498697734 52.379323688349515,85.64448228912683 29.11226871580095,94.85739453173906 "/>
<polygon fill="#FF1900" points="30.449673790581613,97.69952498697734 18.44830922087379,101.61120572281706 29.11226871580095,94.85739453173906 "/>
<polygon fill="#FF8168" points="29.11226871580095,94.85739453173906 51.75558785279372,84.20311381711696 27.955961552288727,91.93689601226457 "/>
<polygon fill="#FF1900" points="29.11226871580095,94.85739453173906 16.88896963198429,98.00778454279238 27.955961552288727,91.93689601226457 "/>
<polygon fill="#FF8168" points="27.955961552288727,91.93689601226457 51.22358709262116,82.72542485937369 26.985315716152854,88.94955530196148 "/>
<polygon fill="#FF1900" points="27.955961552288727,91.93689601226457 15.558967731552904,94.31356214843422 26.985315716152854,88.94955530196148 "/>
<polygon fill="#FF8168" points="26.985315716152854,88.94955530196148 50.78542097178423,81.21724717912139 26.204161903062634,85.90716206982714 "/>
<polygon fill="#FF1900" points="26.985315716152854,88.94955530196148 14.463552429460563,90.54311794780345 26.204161903062634,85.90716206982714 "/>
<polygon fill="#FF8168" points="26.204161903062634,85.90716206982714 50.44281873178278,79.68453286464312 25.615582970243118,82.82172325201155 "/>
<polygon fill="#FF1900" points="26.204161903062634,85.90716206982714 13.607046829456955,86.71133216160779 25.615582970243118,82.82172325201155 "/>
<polygon fill="#FF8168" points="25.615582970243118,82.82172325201155 50.197132467138054,78.13333083910761 25.221901769846,79.70541566592571 "/>
<polygon fill="#FF1900" points="25.615582970243118,82.82172325201155 12.99283116784514,82.83332709776903 25.221901769846,79.70541566592571 "/>
<polygon fill="#FF8168" points="25.221901769846,79.70541566592571 50.04933178929321,76.56976298823284 25.024671981713418,76.57053795390641 "/>
<polygon fill="#FF1900" points="25.221901769846,79.70541566592571 12.623329473233028,78.9244074705821 25.024671981713418,76.57053795390641 "/>
<polygon fill="#FF8168" points="25.024671981713418,76.57053795390641 50.0,75.0 25.024671981713418,73.4294620460936 "/>
<polygon fill="#FF1900" points="25.024671981713418,76.57053795390641 12.5,75.00000000000001 25.024671981713418,73.4294620460936 "/>
<polygon fill="#FF8168" points="25.024671981713418,73.4294620460936 50.04933178929321,73.43023701176716 25.221901769846,70.2945843340743 "/>
<polygon fill="#FF1900" points="25.024671981713418,73.4294620460936 12.623329473233028,71.07559252941792 25.221901769846,70.2945843340743 "/>
<polygon fill="#FF8168" points="25.221901769846,70.2945843340743 50.197132467138054,71.8666691608924 25.61558297024311,67.17827674798846 "/>
<polygon fill="#FF1900" points="25.221901769846,70.2945843340743 12.992831167845132,67.16667290223099 25.61558297024311,67.17827674798846 "/>
<polygon fill="#FF8168" points="25.61558297024311,67.17827674798846 50.442818731782786,70.31546713535688 26.204161903062626,64.09283793017288 "/>
<polygon fill="#FF1900" points="25.61558297024311,67.17827674798846 13.607046829456962,63.2886678383922 26.204161903062626,64.09283793017288 "/>
<polygon fill="#FF8168" points="26.204161903062626,64.09283793017288 50.78542097178422,68.78275282087864 26.98531571615284,61.050444698038554 "/>
<polygon fill="#FF1900" points="26.204161903062626,64.09283793017288 14.463552429460549,59.45688205219659 26.98531571615284,61.050444698038554 "/>
<polygon fill="#FF8168" points="26.98531571615284,61.050444698038554 51.22358709262116,67.27457514062633 27.955961552288727,58.06310398773543 "/>
<polygon fill="#FF1900" points="26.98531571615284,61.050444698038554 15.558967731552897,55.6864378515658 27.955961552288727,58.06310398773543 "/>
<polygon fill="#FF8168" points="27.955961552288727,58.06310398773543 51.75558785279371,65.79688618288306 29.112268715800937,55.14260546826098 "/>
<polygon fill="#FF1900" points="27.955961552288727,58.06310398773543 16.88896963198428,51.992215457207635 29.112268715800937,55.14260546826098 "/>
<polygon fill="#FF8168" points="29.112268715800937,55.14260546826098 52.37932368834951,64.35551771087319 30.449673790581613,52.30047501302265 "/>
<polygon fill="#FF1900" points="29.112268715800937,55.14260546826098 18.448309220873767,48.38879427718298 30.449673790581613,52.30047501302265 "/>
<polygon fill="#FF8168" points="30.449673790581613,52.30047501302265 53.09233299890341,62.95615814745712 31.962898649802817,49.547929212481435 "/>
<polygon fill="#FF1900" points="30.449673790581613,52.30047501302265 20.230832497258525,44.890395368642785 31.962898649802817,49.547929212481435 "/>
<polygon fill="#FF8168" points="31.962898649802817,49.547929212481435 53.891801862449626,61.60433012552509 33.645971286271894,46.89583110739349 "/>
<polygon fill="#FF1900" points="31.962898649802817,49.547929212481435 22.22950465612405,41.510825313812724 33.645971286271894,46.89583110739349 "/>
<polygon fill="#FF8168" points="33.645971286271894,46.89583110739349 54.774575140626304,60.305368692688184 35.49224938121549,44.354647317351166 "/>
<polygon fill="#FF1900" points="33.645971286271894,46.89583110739349 24.436437851565763,38.263421731720456 35.49224938121549,44.354647317351166 "/>
<polygon fill="#FF8168" points="35.49224938121549,44.354647317351166 55.737168930605264,59.06440025628276 37.49444651847701,41.93440673381741 "/>
<polygon fill="#FF1900" points="35.49224938121549,44.354647317351166 26.84292232651317,35.161000640706895 37.49444651847701,41.93440673381741 "/>
<polygon fill="#FF8168" points="37.49444651847701,41.93440673381741 56.7757843144647,57.886322351782795 39.64466094067261,39.644660940672644 "/>
<polygon fill="#FF1900" points="37.49444651847701,41.93440673381741 29.439460786161767,32.21580587945697 39.64466094067261,39.644660940672644 "/>
<polygon fill="#FF8168" points="39.64466094067261,39.644660940672644 57.88632235178278,56.775784314464715 41.934406733817404,37.49444651847703 "/>
<polygon fill="#FF1900" points="39.64466094067261,39.644660940672644 32.21580587945696,29.43946078616178 41.934406733817404,37.49444651847703 "/>
<polygon fill="#FF8168" points="41.934406733817404,37.49444651847703 59.06440025628276,55.737168930605264 44.35464731735118,35.49224938121548 "/>
<polygon fill="#FF1900" points="41.934406733817404,37.49444651847703 35.1610006407069,26.84292232651317 44.35464731735118,35.49224938121548 "/>
<polygon fill="#FF8168" points="44.35464731735118,35.49224938121548 60.30536869268817,54.77457514062632 46.895831107393455,33.64597128627192 "/>
<polygon fill="#FF1900" points="44.35464731735118,35.49224938121548 38.26342173172042,24.436437851565792 46.895831107393455,33.64597128627192 "/>
<polygon fill="#FF8168" points="46.895831107393455,33.64597128627192 61.604330125525095,53.89180186244962 49.54792921248145,31.96289864980281 "/>
<polygon fill="#FF1900" points="46.895831107393455,33.64597128627192 41.51082531381273,22.229504656124043 49.54792921248145,31.96289864980281 "/>
<polygon fill="#FF8168" points="49.54792921248145,31.96289864980281 62.95615814745712,53.09233299890341 52.300475013022655,30.449673790581613 "/>
<polygon fill="#FF1900" points="49.54792921248145,31.96289864980281 44.8903953686428,20.230832497258525 52.300475013022655,30.449673790581613 "/>
<polygon fill="#FF8168" points="52.300475013022655,30.449673790581613 64.3555177108732,52.3793236883495 55.14260546826098,29.112268715800937 "/>
<polygon fill="#FF1900" points="52.300475013022655,30.449673790581613 48.38879427718299,18.44830922087376 55.14260546826098,29.112268715800937 "/>
<polygon fill="#FF8168" points="55.14260546826098,29.112268715800937 65.79688618288306,51.75558785279371 58.06310398773543,27.955961552288727 "/>
<polygon fill="#FF1900" points="55.14260546826098,29.112268715800937 51.992215457207635,16.88896963198428 58.06310398773543,27.955961552288727 "/>
<polygon fill="#FF8168" points="58.06310398773543,27.955961552288727 67.27457514062631,51.22358709262116 61.05044469803852,26.985315716152854 "/>
<polygon fill="#FF1900" points="58.06310398773543,27.955961552288727 55.68643785156578,15.558967731552904 61.05044469803852,26.985315716152854 "/>
<polygon fill="#FF8168" points="61.05044469803852,26.985315716152854 68.78275282087864,50.78542097178422 64.09283793017288,26.204161903062626 "/>
<polygon fill="#FF1900" points="61.05044469803852,26.985315716152854 59.4568820521966,14.463552429460549 64.09283793017288,26.204161903062626 "/>
<polygon fill="#FF8168" points="64.09283793017288,26.204161903062626 70.31546713535688,50.44281873178278 67.17827674798845,25.615582970243118 "/>
<polygon fill="#FF1900" points="64.09283793017288,26.204161903062626 63.288667838392215,13.607046829456955 67.17827674798845,25.615582970243118 "/>
<polygon fill="#FF8168" points="67.17827674798845,25.615582970243118 71.86666916089239,50.197132467138054 70.2945843340743,25.221901769846 "/>
<polygon fill="#FF1900" points="67.17827674798845,25.615582970243118 67.16667290223096,12.99283116784514 70.2945843340743,25.221901769846 "/>
<polygon fill="#FF8168" points="70.2945843340743,25.221901769846 73.43023701176718,50.04933178929321 73.42946204609359,25.024671981713418 "/>
<polygon fill="#FF1900" points="70.2945843340743,25.221901769846 71.07559252941792,12.623329473233028 73.42946204609359,25.024671981713418 "/>
<polygon fill="#FF8168" points="73.42946204609359,25.024671981713418 75.0,50.0 76.5705379539064,25.024671981713418 "/>
<polygon fill="#FF1900" points="73.42946204609359,25.024671981713418 74.99999999999999,12.5 76.5705379539064,25.024671981713418 "/>
<polygon fill="#FF8168" points="76.5705379539064,25.024671981713418 76.56976298823282,50.04933178929321 79.70541566592573,25.221901769846 "/>
<polygon fill="#FF1900" points="76.5705379539064,25.024671981713418 78.92440747058205,12.623329473233028 79.70541566592573,25.221901769846 "/>
<polygon fill="#FF8168" points="79.70541566592573,25.221901769846 78.1333308391076,50.197132467138054 82.82172325201154,25.61558297024311 "/>
<polygon fill="#FF1900" points="79.70541566592573,25.221901769846 82.83332709776901,12.992831167845132 82.82172325201154,25.61558297024311 "/>
<polygon fill="#FF8168" points="82.82172325201154,25.61558297024311 79.6845328646431,50.44281873178278 85.9071620698271,26.20416190306262 "/>
<polygon fill="#FF1900" points="82.82172325201154,25.61558297024311 86.71133216160777,13.607046829456955 85.9071620698271,26.20416190306262 "/>
<polygon fill="#FF8168" points="85.9071620698271,26.20416190306262 81.21724717912137,50.78542097178422 88.94955530196145,26.985315716152847 "/>
<polygon fill="#FF1900" points="85.9071620698271,26.20416190306262 90.54311794780344,14.463552429460556 88.94955530196145,26.985315716152847 "/>
<polygon fill="#FF8168" points="88.94955530196145,26.985315716152847 82.72542485937367,51.22358709262116 91.93689601226455,27.95596155228872 "/>
<polygon fill="#FF1900" points="88.94955530196145,26.985315716152847 94.3135621484342,15.558967731552897 91.93689601226455,27.95596155228872 "/>
<polygon fill="#FF8168" points="91.93689601226455,27.95596155228872 84.20311381711693,51.75558785279371 94.857394531739,29.112268715800923 "/>
<polygon fill="#FF1900" points="91.93689601226455,27.95596155228872 98.00778454279234,16.888969631984274 94.857394531739,29.112268715800923 "/>
<polygon fill="#FF8168" points="94.857394531739,29.112268715800923 85.6444822891268,52.3793236883495 97.6995249869773,30.449673790581585 "/>
<polygon fill="#FF1900" points="94.857394531739,29.112268715800923 101.61120572281699,18.448309220873753 97.6995249869773,30.449673790581585 "/>
<polygon fill="#FF8168" points="97.6995249869773,30.449673790581585 87.0438418525429,53.092332998903416 100.45207078751858,31.96289864980283 "/>
<polygon fill="#FF1900" points="97.6995249869773,30.449673790581585 105.10960463135723,20.23083249725854 100.45207078751858,31.96289864980283 "/>
<polygon fill="#FF8168" points="100.45207078751858,31.96289864980283 88.39566987447492,53.891801862449626 103.10416889260654,33.64597128627191 "/>
<polygon fill="#FF1900" points="100.45207078751858,31.96289864980283 108.4891746861873,22.229504656124064 103.10416889260654,33.64597128627191 "/>
<polygon fill="#FF8168" points="103.10416889260654,33.64597128627191 89.69463130731182,54.77457514062631 105.6453526826488,35.492249381215466 "/>
<polygon fill="#FF1900" points="103.10416889260654,33.64597128627191 111.73657826827956,24.436437851565778 105.6453526826488,35.492249381215466 "/>
<polygon fill="#FF8168" points="105.6453526826488,35.492249381215466 90.93559974371723,55.737168930605264 108.06559326618256,37.494446518477 "/>
<polygon fill="#FF1900" points="105.6453526826488,35.492249381215466 114.83899935929308,26.842922326513154 108.06559326618256,37.494446518477 "/>
<polygon fill="#FF8168" points="108.06559326618256,37.494446518477 92.1136776482172,56.7757843144647 110.35533905932735,39.64466094067258 "/>
<polygon fill="#FF1900" points="108.06559326618256,37.494446518477 117.784194120543,29.439460786161746 110.35533905932735,39.64466094067258 "/>
<polygon fill="#FF8168" points="110.35533905932735,39.64466094067258 93.22421568553528,57.88632235178278 112.50555348152298,41.93440673381742 "/>
<polygon fill="#FF1900" points="110.35533905932735,39.64466094067258 120.56053921383821,32.215805879456944 112.50555348152298,41.93440673381742 "/>
<polygon fill="#FF8168" points="112.50555348152298,41.93440673381742 94.26283106939474,59.06440025628276 114.50775061878451,44.35464731735118 "/>
<polygon fill="#FF1900" points="112.50555348152298,41.93440673381742 123.15707767348684,35.161000640706895 114.50775061878451,44.35464731735118 "/>
<polygon fill="#FF8168" points="114.50775061878451,44.35464731735118 95.22542485937367,60.30536869268816 116.35402871372807,46.895831107393455 "/>
<polygon fill="#FF1900" points="114.50775061878451,44.35464731735118 125.56356214843422,38.26342173172041 116.35402871372807,46.895831107393455 "/>
<polygon fill="#FF8168" points="116.35402871372807,46.895831107393455 96.10819813755037,61.604330125525074 118.03710135019716,49.5479292124814 "/>
<polygon fill="#FF1900" points="116.35402871372807,46.895831107393455 127.77049534387592,41.51082531381268 118.03710135019716,49.5479292124814 "/>
<polygon fill="#FF8168" points="118.03710135019716,49.5479292124814 96.90766700109657,62.956158147457096 119.55032620941839,52.30047501302265 "/>
<polygon fill="#FF1900" points="118.03710135019716,49.5479292124814 129.76916750274145,44.89039536864274 119.55032620941839,52.30047501302265 "/>
<polygon fill="#FF8168" points="119.55032620941839,52.30047501302265 97.62067631165048,64.35551771087317 120.88773128419906,55.14260546826098 "/>
<polygon fill="#FF1900" points="119.55032620941839,52.30047501302265 131.5516907791262,48.38879427718294 120.88773128419906,55.14260546826098 "/>
<polygon fill="#FF8168" points="120.88773128419906,55.14260546826098 98.24441214720629,65.79688618288306 122.04403844771127,58.06310398773543 "/>
<polygon fill="#FF1900" points="120.88773128419906,55.14260546826098 133.11103036801572,51.992215457207635 122.04403844771127,58.06310398773543 "/>
<polygon fill="#FF8168" points="122.04403844771127,58.06310398773543 98.77641290737884,67.27457514062631 123.01468428384715,61.05044469803852 "/>
<polygon fill="#FF1900" points="122.04403844771127,58.06310398773543 134.4410322684471,55.68643785156577 123.01468428384715,61.05044469803852 "/>
<polygon fill="#FF8168" points="123.01468428384715,61.05044469803852 99.21457902821578,68.78275282087861 123.79583809693736,64.09283793017283 "/>
<polygon fill="#FF1900" points="123.01468428384715,61.05044469803852 135.53644757053945,59.45688205219654 123.79583809693736,64.09283793017283 "/>
<polygon fill="#FF8168" points="123.79583809693736,64.09283793017283 99.55718126821722,70.31546713535688 124.38441702975689,67.17827674798845 "/>
<polygon fill="#FF1900" points="123.79583809693736,64.09283793017283 136.39295317054305,63.28866783839221 124.38441702975689,67.17827674798845 "/>
<polygon fill="#FF8168" points="124.38441702975689,67.17827674798845 99.80286753286194,71.86666916089239 124.778098230154,70.29458433407426 "/>
<polygon fill="#FF1900" points="124.38441702975689,67.17827674798845 137.00716883215486,67.16667290223096 124.778098230154,70.29458433407426 "/>
<polygon fill="#FF8168" points="124.778098230154,70.29458433407426 99.9506682107068,73.43023701176716 124.97532801828658,73.42946204609358 "/>
<polygon fill="#FF1900" points="124.778098230154,70.29458433407426 137.376670526767,71.07559252941792 124.97532801828658,73.42946204609358 "/>
<polygon fill="#FF8168" points="124.97532801828658,73.42946204609358 100.0,75.0 124.97532801828658,76.57053795390641 "/>
<polygon fill="#FF1900" points="124.97532801828658,73.42946204609358 137.5,75.0 124.97532801828658,76.57053795390641 "/>
</svg>
