<?xml version="1.0" encoding="UTF-8" standalone="no"?>
<svg xmlns="http://www.w3.org/2000/svg" version="1.0" width="1000.0" height="1000.0" id="c:\star_polygon_80-21.svg">
<g>
<!-- Group: 1-->
<line  stroke="#bf0000" stroke-width="1" x1="954.545" y1="500"     x2="464.337" y2="46.856" />
<line  stroke="#bf0000" stroke-width="1" x1="464.337" y1="46.856"  x2="51.051"  y2="571.107" />
<line  stroke="#bf0000" stroke-width="1" x1="51.051"  y1="571.107" x2="606.112" y2="941.986" />
<line  stroke="#bf0000" stroke-width="1" x1="606.112" y1="941.986" x2="932.298" y2="359.538" />
<line  stroke="#bf0000" stroke-width="1" x1="932.298" y1="359.538" x2="326.053" y2="80.055" />
<line  stroke="#bf0000" stroke-width="1" x1="326.053" y1="80.055"  x2="94.997"  y2="706.359" />
<line  stroke="#bf0000" stroke-width="1" x1="94.997"  y1="706.359" x2="737.499" y2="887.564" />
<line  stroke="#bf0000" stroke-width="1" x1="737.499" y1="887.564" x2="867.735" y2="232.825" />
<line  stroke="#bf0000" stroke-width="1" x1="867.735" y1="232.825" x2="204.796" y2="154.361" />
<line  stroke="#bf0000" stroke-width="1" x1="204.796" y1="154.361" x2="178.588" y2="821.412" />
<line  stroke="#bf0000" stroke-width="1" x1="845.639" y1="795.204" x2="178.588" y2="821.412" />
<line  stroke="#bf0000" stroke-width="1" x1="767.175" y1="132.265" x2="845.639" y2="795.204" />
<line  stroke="#bf0000" stroke-width="1" x1="112.436" y1="262.501" x2="767.175" y2="132.265" />
<line  stroke="#bf0000" stroke-width="1" x1="293.641" y1="905.003" x2="112.436" y2="262.501" />
<line  stroke="#bf0000" stroke-width="1" x1="919.945" y1="673.947" x2="293.641" y2="905.003" />
<line  stroke="#bf0000" stroke-width="1" x1="640.462" y1="67.702"  x2="919.945" y2="673.947" />
<line  stroke="#bf0000" stroke-width="1" x1="58.014"  y1="393.888" x2="640.462" y2="67.702" />
<line  stroke="#bf0000" stroke-width="1" x1="428.893" y1="948.949" x2="58.014"  y2="393.888" />
<line  stroke="#bf0000" stroke-width="1" x1="953.144" y1="535.663" x2="428.893" y2="948.949" />
<line  stroke="#bf0000" stroke-width="1" x1="500"     y1="45.455"  x2="953.144" y2="535.663" />
<line  stroke="#bf0000" stroke-width="1" x1="500"     y1="45.455"  x2="46.856"  y2="535.663" />
<line  stroke="#bf0000" stroke-width="1" x1="46.856"  y1="535.663" x2="571.107" y2="948.949" />
<line  stroke="#bf0000" stroke-width="1" x1="571.107" y1="948.949" x2="941.986" y2="393.888" />
<line  stroke="#bf0000" stroke-width="1" x1="941.986" y1="393.888" x2="359.538" y2="67.702" />
<line  stroke="#bf0000" stroke-width="1" x1="359.538" y1="67.702"  x2="80.055"  y2="673.947" />
<line  stroke="#bf0000" stroke-width="1" x1="80.055"  y1="673.947" x2="706.359" y2="905.003" />
<line  stroke="#bf0000" stroke-width="1" x1="706.359" y1="905.003" x2="887.564" y2="262.501" />
<line  stroke="#bf0000" stroke-width="1" x1="887.564" y1="262.501" x2="232.825" y2="132.265" />
<line  stroke="#bf0000" stroke-width="1" x1="232.825" y1="132.265" x2="154.361" y2="795.204" />
<line  stroke="#bf0000" stroke-width="1" x1="154.361" y1="795.204" x2="821.412" y2="821.412" />
<line  stroke="#bf0000" stroke-width="1" x1="795.204" y1="154.361" x2="821.412" y2="821.412" />
<line  stroke="#bf0000" stroke-width="1" x1="132.265" y1="232.825" x2="795.204" y2="154.361" />
<line  stroke="#bf0000" stroke-width="1" x1="262.501" y1="887.564" x2="132.265" y2="232.825" />
<line  stroke="#bf0000" stroke-width="1" x1="905.003" y1="706.359" x2="262.501" y2="887.564" />
<line  stroke="#bf0000" stroke-width="1" x1="673.947" y1="80.055"  x2="905.003" y2="706.359" />
<line  stroke="#bf0000" stroke-width="1" x1="67.702"  y1="359.538" x2="673.947" y2="80.055" />
<line  stroke="#bf0000" stroke-width="1" x1="393.888" y1="941.986" x2="67.702"  y2="359.538" />
<line  stroke="#bf0000" stroke-width="1" x1="948.949" y1="571.107" x2="393.888" y2="941.986" />
<line  stroke="#bf0000" stroke-width="1" x1="535.663" y1="46.856"  x2="948.949" y2="571.107" />
<line  stroke="#bf0000" stroke-width="1" x1="45.455"  y1="500"     x2="535.663" y2="46.856" />
<line  stroke="#bf0000" stroke-width="1" x1="45.455"  y1="500"     x2="535.663" y2="953.144" />
<line  stroke="#bf0000" stroke-width="1" x1="535.663" y1="953.144" x2="948.949" y2="428.893" />
<line  stroke="#bf0000" stroke-width="1" x1="948.949" y1="428.893" x2="393.888" y2="58.014" />
<line  stroke="#bf0000" stroke-width="1" x1="393.888" y1="58.014"  x2="67.702"  y2="640.462" />
<line  stroke="#bf0000" stroke-width="1" x1="67.702"  y1="640.462" x2="673.947" y2="919.945" />
<line  stroke="#bf0000" stroke-width="1" x1="673.947" y1="919.945" x2="905.003" y2="293.641" />
<line  stroke="#bf0000" stroke-width="1" x1="905.003" y1="293.641" x2="262.501" y2="112.436" />
<line  stroke="#bf0000" stroke-width="1" x1="262.501" y1="112.436" x2="132.265" y2="767.175" />
<line  stroke="#bf0000" stroke-width="1" x1="132.265" y1="767.175" x2="795.204" y2="845.639" />
<line  stroke="#bf0000" stroke-width="1" x1="795.204" y1="845.639" x2="821.412" y2="178.588" />
<line  stroke="#bf0000" stroke-width="1" x1="154.361" y1="204.796" x2="821.412" y2="178.588" />
<line  stroke="#bf0000" stroke-width="1" x1="232.825" y1="867.735" x2="154.361" y2="204.796" />
<line  stroke="#bf0000" stroke-width="1" x1="887.564" y1="737.499" x2="232.825" y2="867.735" />
<line  stroke="#bf0000" stroke-width="1" x1="706.359" y1="94.997"  x2="887.564" y2="737.499" />
<line  stroke="#bf0000" stroke-width="1" x1="80.055"  y1="326.053" x2="706.359" y2="94.997" />
<line  stroke="#bf0000" stroke-width="1" x1="359.538" y1="932.298" x2="80.055"  y2="326.053" />
<line  stroke="#bf0000" stroke-width="1" x1="941.986" y1="606.112" x2="359.538" y2="932.298" />
<line  stroke="#bf0000" stroke-width="1" x1="571.107" y1="51.051"  x2="941.986" y2="606.112" />
<line  stroke="#bf0000" stroke-width="1" x1="46.856"  y1="464.337" x2="571.107" y2="51.051" />
<line  stroke="#bf0000" stroke-width="1" x1="500"     y1="954.545" x2="46.856"  y2="464.337" />
<line  stroke="#bf0000" stroke-width="1" x1="500"     y1="954.545" x2="953.144" y2="464.337" />
<line  stroke="#bf0000" stroke-width="1" x1="953.144" y1="464.337" x2="428.893" y2="51.051" />
<line  stroke="#bf0000" stroke-width="1" x1="428.893" y1="51.051"  x2="58.014"  y2="606.112" />
<line  stroke="#bf0000" stroke-width="1" x1="58.014"  y1="606.112" x2="640.462" y2="932.298" />
<line  stroke="#bf0000" stroke-width="1" x1="640.462" y1="932.298" x2="919.945" y2="326.053" />
<line  stroke="#bf0000" stroke-width="1" x1="919.945" y1="326.053" x2="293.641" y2="94.997" />
<line  stroke="#bf0000" stroke-width="1" x1="293.641" y1="94.997"  x2="112.436" y2="737.499" />
<line  stroke="#bf0000" stroke-width="1" x1="112.436" y1="737.499" x2="767.175" y2="867.735" />
<line  stroke="#bf0000" stroke-width="1" x1="767.175" y1="867.735" x2="845.639" y2="204.796" />
<line  stroke="#bf0000" stroke-width="1" x1="845.639" y1="204.796" x2="178.588" y2="178.588" />
<line  stroke="#bf0000" stroke-width="1" x1="204.796" y1="845.639" x2="178.588" y2="178.588" />
<line  stroke="#bf0000" stroke-width="1" x1="867.735" y1="767.175" x2="204.796" y2="845.639" />
<line  stroke="#bf0000" stroke-width="1" x1="737.499" y1="112.436" x2="867.735" y2="767.175" />
<line  stroke="#bf0000" stroke-width="1" x1="94.997"  y1="293.641" x2="737.499" y2="112.436" />
<line  stroke="#bf0000" stroke-width="1" x1="326.053" y1="919.945" x2="94.997"  y2="293.641" />
<line  stroke="#bf0000" stroke-width="1" x1="932.298" y1="640.462" x2="326.053" y2="919.945" />
<line  stroke="#bf0000" stroke-width="1" x1="606.112" y1="58.014"  x2="932.298" y2="640.462" />
<line  stroke="#bf0000" stroke-width="1" x1="51.051"  y1="428.893" x2="606.112" y2="58.014" />
<line  stroke="#bf0000" stroke-width="1" x1="464.337" y1="953.144" x2="51.051"  y2="428.893" />
<line  stroke="#bf0000" stroke-width="1" x1="954.545" y1="500"     x2="464.337" y2="953.144" />
</g>
<g>
<circle cx="954.545" cy="500" r="4.0"/>
<circle cx="464.337" cy="46.856" r="4.0"/>
<circle cx="464.337" cy="46.856" r="4.0"/>
<circle cx="51.051" cy="571.107" r="4.0"/>
<circle cx="51.051" cy="571.107" r="4.0"/>
<circle cx="606.112" cy="941.986" r="4.0"/>
<circle cx="606.112" cy="941.986" r="4.0"/>
<circle cx="932.298" cy="359.538" r="4.0"/>
<circle cx="932.298" cy="359.538" r="4.0"/>
<circle cx="326.053" cy="80.055" r="4.0"/>
<circle cx="326.053" cy="80.055" r="4.0"/>
<circle cx="94.997" cy="706.359" r="4.0"/>
<circle cx="94.997" cy="706.359" r="4.0"/>
<circle cx="737.499" cy="887.564" r="4.0"/>
<circle cx="737.499" cy="887.564" r="4.0"/>
<circle cx="867.735" cy="232.825" r="4.0"/>
<circle cx="867.735" cy="232.825" r="4.0"/>
<circle cx="204.796" cy="154.361" r="4.0"/>
<circle cx="204.796" cy="154.361" r="4.0"/>
<circle cx="178.588" cy="821.412" r="4.0"/>
<circle cx="178.588" cy="821.412" r="4.0"/>
<circle cx="845.639" cy="795.204" r="4.0"/>
<circle cx="845.639" cy="795.204" r="4.0"/>
<circle cx="767.175" cy="132.265" r="4.0"/>
<circle cx="767.175" cy="132.265" r="4.0"/>
<circle cx="112.436" cy="262.501" r="4.0"/>
<circle cx="112.436" cy="262.501" r="4.0"/>
<circle cx="293.641" cy="905.003" r="4.0"/>
<circle cx="293.641" cy="905.003" r="4.0"/>
<circle cx="919.945" cy="673.947" r="4.0"/>
<circle cx="919.945" cy="673.947" r="4.0"/>
<circle cx="640.462" cy="67.702" r="4.0"/>
<circle cx="640.462" cy="67.702" r="4.0"/>
<circle cx="58.014" cy="393.888" r="4.0"/>
<circle cx="58.014" cy="393.888" r="4.0"/>
<circle cx="428.893" cy="948.949" r="4.0"/>
<circle cx="428.893" cy="948.949" r="4.0"/>
<circle cx="953.144" cy="535.663" r="4.0"/>
<circle cx="953.144" cy="535.663" r="4.0"/>
<circle cx="500" cy="45.455" r="4.0"/>
<circle cx="500" cy="45.455" r="4.0"/>
<circle cx="46.856" cy="535.663" r="4.0"/>
<circle cx="46.856" cy="535.663" r="4.0"/>
<circle cx="571.107" cy="948.949" r="4.0"/>
<circle cx="571.107" cy="948.949" r="4.0"/>
<circle cx="941.986" cy="393.888" r="4.0"/>
<circle cx="941.986" cy="393.888" r="4.0"/>
<circle cx="359.538" cy="67.702" r="4.0"/>
<circle cx="359.538" cy="67.702" r="4.0"/>
<circle cx="80.055" cy="673.947" r="4.0"/>
<circle cx="80.055" cy="673.947" r="4.0"/>
<circle cx="706.359" cy="905.003" r="4.0"/>
<circle cx="706.359" cy="905.003" r="4.0"/>
<circle cx="887.564" cy="262.501" r="4.0"/>
<circle cx="887.564" cy="262.501" r="4.0"/>
<circle cx="232.825" cy="132.265" r="4.0"/>
<circle cx="232.825" cy="132.265" r="4.0"/>
<circle cx="154.361" cy="795.204" r="4.0"/>
<circle cx="154.361" cy="795.204" r="4.0"/>
<circle cx="821.412" cy="821.412" r="4.0"/>
<circle cx="821.412" cy="821.412" r="4.0"/>
<circle cx="795.204" cy="154.361" r="4.0"/>
<circle cx="795.204" cy="154.361" r="4.0"/>
<circle cx="132.265" cy="232.825" r="4.0"/>
<circle cx="132.265" cy="232.825" r="4.0"/>
<circle cx="262.501" cy="887.564" r="4.0"/>
<circle cx="262.501" cy="887.564" r="4.0"/>
<circle cx="905.003" cy="706.359" r="4.0"/>
<circle cx="905.003" cy="706.359" r="4.0"/>
<circle cx="673.947" cy="80.055" r="4.0"/>
<circle cx="673.947" cy="80.055" r="4.0"/>
<circle cx="67.702" cy="359.538" r="4.0"/>
<circle cx="67.702" cy="359.538" r="4.0"/>
<circle cx="393.888" cy="941.986" r="4.0"/>
<circle cx="393.888" cy="941.986" r="4.0"/>
<circle cx="948.949" cy="571.107" r="4.0"/>
<circle cx="948.949" cy="571.107" r="4.0"/>
<circle cx="535.663" cy="46.856" r="4.0"/>
<circle cx="535.663" cy="46.856" r="4.0"/>
<circle cx="45.455" cy="500" r="4.0"/>
<circle cx="45.455" cy="500" r="4.0"/>
<circle cx="535.663" cy="953.144" r="4.0"/>
<circle cx="535.663" cy="953.144" r="4.0"/>
<circle cx="948.949" cy="428.893" r="4.0"/>
<circle cx="948.949" cy="428.893" r="4.0"/>
<circle cx="393.888" cy="58.014" r="4.0"/>
<circle cx="393.888" cy="58.014" r="4.0"/>
<circle cx="67.702" cy="640.462" r="4.0"/>
<circle cx="67.702" cy="640.462" r="4.0"/>
<circle cx="673.947" cy="919.945" r="4.0"/>
<circle cx="673.947" cy="919.945" r="4.0"/>
<circle cx="905.003" cy="293.641" r="4.0"/>
<circle cx="905.003" cy="293.641" r="4.0"/>
<circle cx="262.501" cy="112.436" r="4.0"/>
<circle cx="262.501" cy="112.436" r="4.0"/>
<circle cx="132.265" cy="767.175" r="4.0"/>
<circle cx="132.265" cy="767.175" r="4.0"/>
<circle cx="795.204" cy="845.639" r="4.0"/>
<circle cx="795.204" cy="845.639" r="4.0"/>
<circle cx="821.412" cy="178.588" r="4.0"/>
<circle cx="821.412" cy="178.588" r="4.0"/>
<circle cx="154.361" cy="204.796" r="4.0"/>
<circle cx="154.361" cy="204.796" r="4.0"/>
<circle cx="232.825" cy="867.735" r="4.0"/>
<circle cx="232.825" cy="867.735" r="4.0"/>
<circle cx="887.564" cy="737.499" r="4.0"/>
<circle cx="887.564" cy="737.499" r="4.0"/>
<circle cx="706.359" cy="94.997" r="4.0"/>
<circle cx="706.359" cy="94.997" r="4.0"/>
<circle cx="80.055" cy="326.053" r="4.0"/>
<circle cx="80.055" cy="326.053" r="4.0"/>
<circle cx="359.538" cy="932.298" r="4.0"/>
<circle cx="359.538" cy="932.298" r="4.0"/>
<circle cx="941.986" cy="606.112" r="4.0"/>
<circle cx="941.986" cy="606.112" r="4.0"/>
<circle cx="571.107" cy="51.051" r="4.0"/>
<circle cx="571.107" cy="51.051" r="4.0"/>
<circle cx="46.856" cy="464.337" r="4.0"/>
<circle cx="46.856" cy="464.337" r="4.0"/>
<circle cx="500" cy="954.545" r="4.0"/>
<circle cx="500" cy="954.545" r="4.0"/>
<circle cx="953.144" cy="464.337" r="4.0"/>
<circle cx="953.144" cy="464.337" r="4.0"/>
<circle cx="428.893" cy="51.051" r="4.0"/>
<circle cx="428.893" cy="51.051" r="4.0"/>
<circle cx="58.014" cy="606.112" r="4.0"/>
<circle cx="58.014" cy="606.112" r="4.0"/>
<circle cx="640.462" cy="932.298" r="4.0"/>
<circle cx="640.462" cy="932.298" r="4.0"/>
<circle cx="919.945" cy="326.053" r="4.0"/>
<circle cx="919.945" cy="326.053" r="4.0"/>
<circle cx="293.641" cy="94.997" r="4.0"/>
<circle cx="293.641" cy="94.997" r="4.0"/>
<circle cx="112.436" cy="737.499" r="4.0"/>
<circle cx="112.436" cy="737.499" r="4.0"/>
<circle cx="767.175" cy="867.735" r="4.0"/>
<circle cx="767.175" cy="867.735" r="4.0"/>
<circle cx="845.639" cy="204.796" r="4.0"/>
<circle cx="845.639" cy="204.796" r="4.0"/>
<circle cx="178.588" cy="178.588" r="4.0"/>
<circle cx="178.588" cy="178.588" r="4.0"/>
<circle cx="204.796" cy="845.639" r="4.0"/>
<circle cx="204.796" cy="845.639" r="4.0"/>
<circle cx="867.735" cy="767.175" r="4.0"/>
<circle cx="867.735" cy="767.175" r="4.0"/>
<circle cx="737.499" cy="112.436" r="4.0"/>
<circle cx="737.499" cy="112.436" r="4.0"/>
<circle cx="94.997" cy="293.641" r="4.0"/>
<circle cx="94.997" cy="293.641" r="4.0"/>
<circle cx="326.053" cy="919.945" r="4.0"/>
<circle cx="326.053" cy="919.945" r="4.0"/>
<circle cx="932.298" cy="640.462" r="4.0"/>
<circle cx="932.298" cy="640.462" r="4.0"/>
<circle cx="606.112" cy="58.014" r="4.0"/>
<circle cx="606.112" cy="58.014" r="4.0"/>
<circle cx="51.051" cy="428.893" r="4.0"/>
<circle cx="51.051" cy="428.893" r="4.0"/>
<circle cx="464.337" cy="953.144" r="4.0"/>
<circle cx="464.337" cy="953.144" r="4.0"/>
<circle cx="954.545" cy="500" r="4.0"/>
</g>
</svg>
