<?xml version="1.0" encoding="UTF-8" standalone="no"?>
<svg
   xmlns:dc="http://purl.org/dc/elements/1.1/"
   xmlns:cc="http://creativecommons.org/ns#"
   xmlns:rdf="http://www.w3.org/1999/02/22-rdf-syntax-ns#"
   xmlns:svg="http://www.w3.org/2000/svg"
   xmlns="http://www.w3.org/2000/svg"
   height="650"
   width="1200"
   id="svg2"
   version="1.1"
   viewBox="0 0 1000 800">
  <metadata
     id="metadata12">
    <rdf:RDF>
      <cc:Work
         rdf:about="">
        <dc:format>image/svg+xml</dc:format>
        <dc:type
           rdf:resource="http://purl.org/dc/dcmitype/StillImage" />
        <dc:title></dc:title>
      </cc:Work>
    </rdf:RDF>
  </metadata>
  <defs
     id="defs10" />
  <g
     transform="translate(80 550)">    
     <polyline fill="#000000" stroke="#000000"
       points="1056.65,0.0 1046.65,0.0 1045.78,-9.96 1044.91,0.0 1034.91,0.0 1034.03,-9.96 1043.88,-11.7 1033.88,-11.7 1033.01,-21.66 1032.14,-11.7 1022.14,-11.7 1031.99,-9.96 1031.12,0.0 1021.12,0.0 1020.24,-9.96 1019.37,0.0 1009.37,0.0 1008.5,-9.96 1018.35,-11.7 1008.35,-11.7 1007.48,-21.66 1017.33,-23.4 1019.91,-13.74 1019.04,-23.7 1028.89,-25.44 1018.89,-25.44 1018.02,-35.4 1017.15,-25.44 1007.15,-25.44 1006.28,-35.4 1016.12,-37.13 1006.12,-37.13 1005.25,-47.1 1004.38,-37.13 994.38,-37.13 1004.23,-35.4 1003.36,-25.44 993.36,-25.44 992.49,-35.4 991.61,-25.44 981.61,-25.44 991.46,-23.7 990.59,-13.74 993.18,-23.4 1003.03,-21.66 1002.15,-11.7 992.15,-11.7 1002.0,-9.96 1001.13,0.0 991.13,0.0 990.26,-9.96 989.39,0.0 979.39,0.0 978.52,-9.96 988.36,-11.7 978.36,-11.7 977.49,-21.66 976.62,-11.7 966.62,-11.7 976.47,-9.96 975.6,0.0 965.6,0.0 964.73,-9.96 963.86,0.0 953.86,0.0 952.98,-9.96 962.83,-11.7 952.83,-11.7 951.96,-21.66 961.81,-23.4 964.4,-13.74 963.52,-23.7 973.37,-25.44 963.37,-25.44 962.5,-35.4 961.63,-25.44 951.63,-25.44 950.76,-35.4 960.61,-37.13 950.61,-37.13 949.73,-47.1 959.58,-48.83 962.17,-39.17 961.3,-49.14 971.15,-50.87 973.74,-41.21 964.34,-37.79 974.19,-39.53 976.78,-29.87 975.9,-39.83 985.75,-41.57 975.75,-41.57 974.88,-51.53 984.73,-53.27 987.32,-43.61 986.44,-53.57 996.29,-55.31 986.29,-55.31 985.42,-65.27 984.55,-55.31 974.55,-55.31 973.68,-65.27 983.53,-67.0 973.53,-67.0 972.65,-76.97 971.78,-67.0 961.78,-67.0 971.63,-65.27 970.76,-55.31 960.76,-55.31 959.89,-65.27 959.02,-55.31 949.02,-55.31 948.14,-65.27 957.99,-67.0 947.99,-67.0 947.12,-76.97 956.97,-78.7 959.56,-69.04 958.69,-79.01 968.53,-80.74 958.53,-80.74 957.66,-90.7 956.79,-80.74 946.79,-80.74 945.92,-90.7 955.77,-92.44 945.77,-92.44 944.9,-102.4 944.02,-92.44 934.02,-92.44 943.87,-90.7 943.0,-80.74 933.0,-80.74 932.13,-90.7 931.26,-80.74 921.26,-80.74 931.11,-79.01 930.23,-69.04 932.82,-78.7 942.67,-76.97 941.8,-67.0 931.8,-67.0 941.65,-65.27 940.78,-55.31 930.78,-55.31 929.9,-65.27 929.03,-55.31 919.03,-55.31 918.16,-65.27 928.01,-67.0 918.01,-67.0 917.14,-76.97 916.27,-67.0 906.27,-67.0 916.11,-65.27 915.24,-55.31 905.24,-55.31 904.37,-65.27 903.5,-55.31 893.5,-55.31 903.35,-53.57 902.48,-43.61 905.06,-53.27 914.91,-51.53 914.04,-41.57 904.04,-41.57 913.89,-39.83 913.02,-29.87 915.61,-39.53 925.45,-37.79 916.06,-41.21 918.64,-50.87 928.49,-49.14 927.62,-39.17 930.21,-48.83 940.06,-47.1 939.19,-37.13 929.19,-37.13 939.03,-35.4 938.16,-25.44 928.16,-25.44 927.29,-35.4 926.42,-25.44 916.42,-25.44 926.27,-23.7 925.4,-13.74 927.98,-23.4 937.83,-21.66 936.96,-11.7 926.96,-11.7 936.81,-9.96 935.94,0.0 925.94,0.0 925.07,-9.96 924.19,0.0 914.19,0.0 913.32,-9.96 923.17,-11.7 913.17,-11.7 912.3,-21.66 911.43,-11.7 901.43,-11.7 911.28,-9.96 910.4,0.0 900.4,0.0 899.53,-9.96 898.66,0.0 888.66,0.0 887.79,-9.96 897.64,-11.7 887.64,-11.7 886.77,-21.66 896.61,-23.4 899.2,-13.74 898.33,-23.7 908.18,-25.44 898.18,-25.44 897.31,-35.4 896.44,-25.44 886.44,-25.44 885.56,-35.4 895.41,-37.13 885.41,-37.13 884.54,-47.1 883.67,-37.13 873.67,-37.13 883.52,-35.4 882.65,-25.44 872.65,-25.44 871.77,-35.4 870.9,-25.44 860.9,-25.44 870.75,-23.7 869.88,-13.74 872.47,-23.4 882.31,-21.66 881.44,-11.7 871.44,-11.7 881.29,-9.96 880.42,0.0 870.42,0.0 869.55,-9.96 868.68,0.0 858.68,0.0 857.81,-9.96 867.65,-11.7 857.65,-11.7 856.78,-21.66 855.91,-11.7 845.91,-11.7 855.76,-9.96 854.89,0.0 844.89,0.0 844.02,-9.96 843.14,0.0 833.14,0.0 832.27,-9.96 842.12,-11.7 832.12,-11.7 831.25,-21.66 841.1,-23.4 843.68,-13.74 842.81,-23.7 852.66,-25.44 842.66,-25.44 841.79,-35.4 840.92,-25.44 830.92,-25.44 830.05,-35.4 839.89,-37.13 829.89,-37.13 829.02,-47.1 838.87,-48.83 841.46,-39.17 840.59,-49.14 850.44,-50.87 853.02,-41.21 843.63,-37.79 853.48,-39.53 856.06,-29.87 855.19,-39.83 865.04,-41.57 855.04,-41.57 854.17,-51.53 864.02,-53.27 866.6,-43.61 865.73,-53.57 875.58,-55.31 865.58,-55.31 864.71,-65.27 863.84,-55.31 853.84,-55.31 852.97,-65.27 862.81,-67.0 852.81,-67.0 851.94,-76.97 851.07,-67.0 841.07,-67.0 850.92,-65.27 850.05,-55.31 840.05,-55.31 839.18,-65.27 838.31,-55.31 828.31,-55.31 827.43,-65.27 837.28,-67.0 827.28,-67.0 826.41,-76.97 836.26,-78.7 838.85,-69.04 837.97,-79.01 847.82,-80.74 837.82,-80.74 836.95,-90.7 836.08,-80.74 826.08,-80.74 825.21,-90.7 835.06,-92.44 825.06,-92.44 824.18,-102.4 834.03,-104.14 836.62,-94.48 835.75,-104.44 845.6,-106.18 848.19,-96.52 838.79,-93.1 848.64,-94.83 851.22,-85.18 850.35,-95.14 860.2,-96.87 850.2,-96.87 849.33,-106.84 859.18,-108.57 861.77,-98.91 860.89,-108.88 870.74,-110.61 873.33,-100.95 863.93,-97.53 873.78,-99.27 876.37,-89.61 866.97,-86.19 862.75,-95.25 865.34,-85.59 855.94,-82.17 865.79,-83.91 868.37,-74.25 867.5,-84.21 877.35,-85.95 879.94,-76.29 870.54,-72.87 880.39,-74.61 882.98,-64.95 882.11,-74.91 891.96,-76.64 881.96,-76.64 881.08,-86.61 890.93,-88.34 893.52,-78.68 892.65,-88.65 902.5,-90.38 892.5,-90.38 891.62,-100.34 890.75,-90.38 880.75,-90.38 879.88,-100.34 889.73,-102.08 879.73,-102.08 878.86,-112.04 888.71,-113.78 891.29,-104.12 890.42,-114.08 900.27,-115.82 902.86,-106.16 893.46,-102.74 903.31,-104.48 905.9,-94.82 905.03,-104.78 914.88,-106.51 904.88,-106.51 904.0,-116.48 913.85,-118.21 916.44,-108.55 915.57,-118.52 925.42,-120.25 915.42,-120.25 914.54,-130.21 913.67,-120.25 903.67,-120.25 902.8,-130.21 912.65,-131.95 902.65,-131.95 901.78,-141.91 900.91,-131.95 890.91,-131.95 900.75,-130.21 899.88,-120.25 889.88,-120.25 889.01,-130.21 888.14,-120.25 878.14,-120.25 877.27,-130.21 887.12,-131.95 877.12,-131.95 876.25,-141.91 886.09,-143.65 888.68,-133.99 887.81,-143.95 897.66,-145.69 887.66,-145.69 886.79,-155.65 885.91,-145.69 875.91,-145.69 875.04,-155.65 884.89,-157.39 874.89,-157.39 874.02,-167.35 873.15,-157.39 863.15,-157.39 873.0,-155.65 872.12,-145.69 862.12,-145.69 861.25,-155.65 860.38,-145.69 850.38,-145.69 860.23,-143.95 859.36,-133.99 861.95,-143.65 871.79,-141.91 870.92,-131.95 860.92,-131.95 870.77,-130.21 869.9,-120.25 859.9,-120.25 859.03,-130.21 858.16,-120.25 848.16,-120.25 847.28,-130.21 857.13,-131.95 847.13,-131.95 846.26,-141.91 845.39,-131.95 835.39,-131.95 845.24,-130.21 844.37,-120.25 834.37,-120.25 833.49,-130.21 832.62,-120.25 822.62,-120.25 821.75,-130.21 831.6,-131.95 821.6,-131.95 820.73,-141.91 830.58,-143.65 833.16,-133.99 832.29,-143.95 842.14,-145.69 832.14,-145.69 831.27,-155.65 830.4,-145.69 820.4,-145.69 819.53,-155.65 829.37,-157.39 819.37,-157.39 818.5,-167.35 828.35,-169.09 830.94,-159.43 830.07,-169.39 839.92,-171.12 842.5,-161.46 833.11,-158.04 842.95,-159.78 845.54,-150.12 844.67,-160.08 854.52,-161.82 844.52,-161.82 843.65,-171.78 853.5,-173.52 856.08,-163.86 855.21,-173.82 865.06,-175.56 855.06,-175.56 854.19,-185.52 853.32,-175.56 843.32,-175.56 842.45,-185.52 852.29,-187.26 842.29,-187.26 841.42,-197.22 840.55,-187.26 830.55,-187.26 840.4,-185.52 839.53,-175.56 829.53,-175.56 828.66,-185.52 827.78,-175.56 817.78,-175.56 816.91,-185.52 826.76,-187.26 816.76,-187.26 815.89,-197.22 825.74,-198.95 828.33,-189.3 827.45,-199.26 837.3,-200.99 827.3,-200.99 826.43,-210.96 825.56,-200.99 815.56,-200.99 814.69,-210.96 824.54,-212.69 814.54,-212.69 813.66,-222.65 812.79,-212.69 802.79,-212.69 812.64,-210.96 811.77,-200.99 801.77,-200.99 800.9,-210.96 800.03,-200.99 790.03,-200.99 799.87,-199.26 799.0,-189.3 801.59,-198.95 811.44,-197.22 810.57,-187.26 800.57,-187.26 810.42,-185.52 809.54,-175.56 799.54,-175.56 798.67,-185.52 797.8,-175.56 787.8,-175.56 786.93,-185.52 796.78,-187.26 786.78,-187.26 785.91,-197.22 785.03,-187.26 775.03,-187.26 784.88,-185.52 784.01,-175.56 774.01,-175.56 773.14,-185.52 772.27,-175.56 762.27,-175.56 772.12,-173.82 771.24,-163.86 773.83,-173.52 783.68,-171.78 782.81,-161.82 772.81,-161.82 782.66,-160.08 781.78,-150.12 784.37,-159.78 794.22,-158.04 784.82,-161.46 787.41,-171.12 797.26,-169.39 796.39,-159.43 798.98,-169.09 808.83,-167.35 807.95,-157.39 797.95,-157.39 807.8,-155.65 806.93,-145.69 796.93,-145.69 796.06,-155.65 795.19,-145.69 785.19,-145.69 795.04,-143.95 794.16,-133.99 796.75,-143.65 806.6,-141.91 805.73,-131.95 795.73,-131.95 805.58,-130.21 804.7,-120.25 794.7,-120.25 793.83,-130.21 792.96,-120.25 782.96,-120.25 782.09,-130.21 791.94,-131.95 781.94,-131.95 781.07,-141.91 780.2,-131.95 770.2,-131.95 780.04,-130.21 779.17,-120.25 769.17,-120.25 768.3,-130.21 767.43,-120.25 757.43,-120.25 756.56,-130.21 766.41,-131.95 756.41,-131.95 755.53,-141.91 765.38,-143.65 767.97,-133.99 767.1,-143.95 776.95,-145.69 766.95,-145.69 766.07,-155.65 765.2,-145.69 755.2,-145.69 754.33,-155.65 764.18,-157.39 754.18,-157.39 753.31,-167.35 752.44,-157.39 742.44,-157.39 752.28,-155.65 751.41,-145.69 741.41,-145.69 740.54,-155.65 739.67,-145.69 729.67,-145.69 739.52,-143.95 738.65,-133.99 741.23,-143.65 751.08,-141.91 750.21,-131.95 740.21,-131.95 750.06,-130.21 749.19,-120.25 739.19,-120.25 738.32,-130.21 737.44,-120.25 727.44,-120.25 726.57,-130.21 736.42,-131.95 726.42,-131.95 725.55,-141.91 724.68,-131.95 714.68,-131.95 724.53,-130.21 723.65,-120.25 713.65,-120.25 712.78,-130.21 711.91,-120.25 701.91,-120.25 711.76,-118.52 710.89,-108.55 713.48,-118.21 723.32,-116.48 722.45,-106.51 712.45,-106.51 722.3,-104.78 721.43,-94.82 724.02,-104.48 733.87,-102.74 724.47,-106.16 727.06,-115.82 736.9,-114.08 736.03,-104.12 738.62,-113.78 748.47,-112.04 747.6,-102.08 737.6,-102.08 747.45,-100.34 746.57,-90.38 736.57,-90.38 735.7,-100.34 734.83,-90.38 724.83,-90.38 734.68,-88.65 733.81,-78.68 736.4,-88.34 746.24,-86.61 745.37,-76.64 735.37,-76.64 745.22,-74.91 744.35,-64.95 746.94,-74.61 756.79,-72.87 747.39,-76.29 749.98,-85.95 759.82,-84.21 758.95,-74.25 761.54,-83.91 771.39,-82.17 761.99,-85.59 764.58,-95.25 760.35,-86.19 750.96,-89.61 753.55,-99.27 763.39,-97.53 754.0,-100.95 756.59,-110.61 766.43,-108.88 765.56,-98.91 768.15,-108.57 778.0,-106.84 777.13,-96.87 767.13,-96.87 776.97,-95.14 776.1,-85.18 778.69,-94.83 788.54,-93.1 779.14,-96.52 781.73,-106.18 791.58,-104.44 790.71,-94.48 793.3,-104.14 803.14,-102.4 802.27,-92.44 792.27,-92.44 802.12,-90.7 801.25,-80.74 791.25,-80.74 790.38,-90.7 789.51,-80.74 779.51,-80.74 789.35,-79.01 788.48,-69.04 791.07,-78.7 800.92,-76.97 800.05,-67.0 790.05,-67.0 799.89,-65.27 799.02,-55.31 789.02,-55.31 788.15,-65.27 787.28,-55.31 777.28,-55.31 776.41,-65.27 786.26,-67.0 776.26,-67.0 775.38,-76.97 774.51,-67.0 764.51,-67.0 774.36,-65.27 773.49,-55.31 763.49,-55.31 762.62,-65.27 761.75,-55.31 751.75,-55.31 761.59,-53.57 760.72,-43.61 763.31,-53.27 773.16,-51.53 772.29,-41.57 762.29,-41.57 772.14,-39.83 771.26,-29.87 773.85,-39.53 783.7,-37.79 774.3,-41.21 776.89,-50.87 786.74,-49.14 785.87,-39.17 788.46,-48.83 798.3,-47.1 797.43,-37.13 787.43,-37.13 797.28,-35.4 796.41,-25.44 786.41,-25.44 785.54,-35.4 784.67,-25.44 774.67,-25.44 784.51,-23.7 783.64,-13.74 786.23,-23.4 796.08,-21.66 795.21,-11.7 785.21,-11.7 795.06,-9.96 794.18,0.0 784.18,0.0 783.31,-9.96 782.44,0.0 772.44,0.0 771.57,-9.96 781.42,-11.7 771.42,-11.7 770.55,-21.66 769.67,-11.7 759.67,-11.7 769.52,-9.96 768.65,0.0 758.65,0.0 757.78,-9.96 756.91,0.0 746.91,0.0 746.04,-9.96 755.88,-11.7 745.88,-11.7 745.01,-21.66 754.86,-23.4 757.45,-13.74 756.58,-23.7 766.43,-25.44 756.43,-25.44 755.55,-35.4 754.68,-25.44 744.68,-25.44 743.81,-35.4 753.66,-37.13 743.66,-37.13 742.79,-47.1 741.92,-37.13 731.92,-37.13 741.76,-35.4 740.89,-25.44 730.89,-25.44 730.02,-35.4 729.15,-25.44 719.15,-25.44 729.0,-23.7 728.13,-13.74 730.71,-23.4 740.56,-21.66 739.69,-11.7 729.69,-11.7 739.54,-9.96 738.67,0.0 728.67,0.0 727.8,-9.96 726.92,0.0 716.92,0.0 716.05,-9.96 725.9,-11.7 715.9,-11.7 715.03,-21.66 714.16,-11.7 704.16,-11.7 714.01,-9.96 713.13,0.0 703.13,0.0 702.26,-9.96 701.39,0.0 691.39,0.0 690.52,-9.96 700.37,-11.7 690.37,-11.7 689.5,-21.66 699.34,-23.4 701.93,-13.74 701.06,-23.7 710.91,-25.44 700.91,-25.44 700.04,-35.4 699.17,-25.44 689.17,-25.44 688.29,-35.4 698.14,-37.13 688.14,-37.13 687.27,-47.1 697.12,-48.83 699.71,-39.17 698.84,-49.14 708.68,-50.87 711.27,-41.21 701.87,-37.79 711.72,-39.53 714.31,-29.87 713.44,-39.83 723.29,-41.57 713.29,-41.57 712.42,-51.53 722.26,-53.27 724.85,-43.61 723.98,-53.57 733.83,-55.31 723.83,-55.31 722.96,-65.27 722.09,-55.31 712.09,-55.31 711.21,-65.27 721.06,-67.0 711.06,-67.0 710.19,-76.97 709.32,-67.0 699.32,-67.0 709.17,-65.27 708.3,-55.31 698.3,-55.31 697.42,-65.27 696.55,-55.31 686.55,-55.31 685.68,-65.27 695.53,-67.0 685.53,-67.0 684.66,-76.97 694.51,-78.7 697.09,-69.04 696.22,-79.01 706.07,-80.74 696.07,-80.74 695.2,-90.7 694.33,-80.74 684.33,-80.74 683.46,-90.7 693.3,-92.44 683.3,-92.44 682.43,-102.4 681.56,-92.44 671.56,-92.44 681.41,-90.7 680.54,-80.74 670.54,-80.74 669.67,-90.7 668.79,-80.74 658.79,-80.74 668.64,-79.01 667.77,-69.04 670.36,-78.7 680.21,-76.97 679.33,-67.0 669.33,-67.0 679.18,-65.27 678.31,-55.31 668.31,-55.31 667.44,-65.27 666.57,-55.31 656.57,-55.31 655.7,-65.27 665.54,-67.0 655.54,-67.0 654.67,-76.97 653.8,-67.0 643.8,-67.0 653.65,-65.27 652.78,-55.31 642.78,-55.31 641.91,-65.27 641.04,-55.31 631.04,-55.31 640.88,-53.57 640.01,-43.61 642.6,-53.27 652.45,-51.53 651.58,-41.57 641.58,-41.57 651.42,-39.83 650.55,-29.87 653.14,-39.53 662.99,-37.79 653.59,-41.21 656.18,-50.87 666.03,-49.14 665.16,-39.17 667.75,-48.83 677.59,-47.1 676.72,-37.13 666.72,-37.13 676.57,-35.4 675.7,-25.44 665.7,-25.44 664.83,-35.4 663.95,-25.44 653.95,-25.44 663.8,-23.7 662.93,-13.74 665.52,-23.4 675.37,-21.66 674.5,-11.7 664.5,-11.7 674.34,-9.96 673.47,0.0 663.47,0.0 662.6,-9.96 661.73,0.0 651.73,0.0 650.86,-9.96 660.71,-11.7 650.71,-11.7 649.83,-21.66 648.96,-11.7 638.96,-11.7 648.81,-9.96 647.94,0.0 637.94,0.0 637.07,-9.96 636.2,0.0 626.2,0.0 625.32,-9.96 635.17,-11.7 625.17,-11.7 624.3,-21.66 634.15,-23.4 636.74,-13.74 635.87,-23.7 645.71,-25.44 635.71,-25.44 634.84,-35.4 633.97,-25.44 623.97,-25.44 623.1,-35.4 632.95,-37.13 622.95,-37.13 622.08,-47.1 621.2,-37.13 611.2,-37.13 621.05,-35.4 620.18,-25.44 610.18,-25.44 609.31,-35.4 608.44,-25.44 598.44,-25.44 608.29,-23.7 607.41,-13.74 610.0,-23.4 619.85,-21.66 618.98,-11.7 608.98,-11.7 618.83,-9.96 617.96,0.0 607.96,0.0 607.08,-9.96 606.21,0.0 596.21,0.0 595.34,-9.96 605.19,-11.7 595.19,-11.7 594.32,-21.66 593.45,-11.7 583.45,-11.7 593.29,-9.96 592.42,0.0 582.42,0.0 581.55,-9.96 580.68,0.0 570.68,0.0 569.81,-9.96 579.66,-11.7 569.66,-11.7 568.78,-21.66 578.63,-23.4 581.22,-13.74 580.35,-23.7 590.2,-25.44 580.2,-25.44 579.33,-35.4 578.45,-25.44 568.45,-25.44 567.58,-35.4 577.43,-37.13 567.43,-37.13 566.56,-47.1 576.41,-48.83 579.0,-39.17 578.12,-49.14 587.97,-50.87 590.56,-41.21 581.16,-37.79 591.01,-39.53 593.6,-29.87 592.73,-39.83 602.58,-41.57 592.58,-41.57 591.7,-51.53 601.55,-53.27 604.14,-43.61 603.27,-53.57 613.12,-55.31 603.12,-55.31 602.25,-65.27 601.37,-55.31 591.37,-55.31 590.5,-65.27 600.35,-67.0 590.35,-67.0 589.48,-76.97 588.61,-67.0 578.61,-67.0 588.46,-65.27 587.58,-55.31 577.58,-55.31 576.71,-65.27 575.84,-55.31 565.84,-55.31 564.97,-65.27 574.82,-67.0 564.82,-67.0 563.95,-76.97 573.79,-78.7 576.38,-69.04 575.51,-79.01 585.36,-80.74 575.36,-80.74 574.49,-90.7 573.62,-80.74 563.62,-80.74 562.74,-90.7 572.59,-92.44 562.59,-92.44 561.72,-102.4 571.57,-104.14 574.16,-94.48 573.28,-104.44 583.13,-106.18 585.72,-96.52 576.32,-93.1 586.17,-94.83 588.76,-85.18 587.89,-95.14 597.74,-96.87 587.74,-96.87 586.87,-106.84 596.71,-108.57 599.3,-98.91 598.43,-108.88 608.28,-110.61 610.87,-100.95 601.47,-97.53 611.32,-99.27 613.91,-89.61 604.51,-86.19 600.28,-95.25 602.87,-85.59 593.47,-82.17 603.32,-83.91 605.91,-74.25 605.04,-84.21 614.89,-85.95 617.47,-76.29 608.08,-72.87 617.93,-74.61 620.51,-64.95 619.64,-74.91 629.49,-76.64 619.49,-76.64 618.62,-86.61 628.47,-88.34 631.06,-78.68 630.18,-88.65 640.03,-90.38 630.03,-90.38 629.16,-100.34 628.29,-90.38 618.29,-90.38 617.42,-100.34 627.27,-102.08 617.27,-102.08 616.39,-112.04 626.24,-113.78 628.83,-104.12 627.96,-114.08 637.81,-115.82 640.39,-106.16 631.0,-102.74 640.85,-104.48 643.43,-94.82 642.56,-104.78 652.41,-106.51 642.41,-106.51 641.54,-116.48 651.39,-118.21 653.98,-108.55 653.1,-118.52 662.95,-120.25 652.95,-120.25 652.08,-130.21 651.21,-120.25 641.21,-120.25 640.34,-130.21 650.19,-131.95 640.19,-131.95 639.31,-141.91 638.44,-131.95 628.44,-131.95 638.29,-130.21 637.42,-120.25 627.42,-120.25 626.55,-130.21 625.68,-120.25 615.68,-120.25 614.8,-130.21 624.65,-131.95 614.65,-131.95 613.78,-141.91 623.63,-143.65 626.22,-133.99 625.35,-143.95 635.19,-145.69 625.19,-145.69 624.32,-155.65 623.45,-145.69 613.45,-145.69 612.58,-155.65 622.43,-157.39 612.43,-157.39 611.56,-167.35 610.68,-157.39 600.68,-157.39 610.53,-155.65 609.66,-145.69 599.66,-145.69 598.79,-155.65 597.92,-145.69 587.92,-145.69 597.77,-143.95 596.89,-133.99 599.48,-143.65 609.33,-141.91 608.46,-131.95 598.46,-131.95 608.31,-130.21 607.43,-120.25 597.43,-120.25 596.56,-130.21 595.69,-120.25 585.69,-120.25 584.82,-130.21 594.67,-131.95 584.67,-131.95 583.8,-141.91 582.93,-131.95 572.93,-131.95 582.77,-130.21 581.9,-120.25 571.9,-120.25 571.03,-130.21 570.16,-120.25 560.16,-120.25 559.29,-130.21 569.14,-131.95 559.14,-131.95 558.26,-141.91 568.11,-143.65 570.7,-133.99 569.83,-143.95 579.68,-145.69 569.68,-145.69 568.8,-155.65 567.93,-145.69 557.93,-145.69 557.06,-155.65 566.91,-157.39 556.91,-157.39 556.04,-167.35 565.89,-169.09 568.47,-159.43 567.6,-169.39 577.45,-171.12 580.04,-161.46 570.64,-158.04 580.49,-159.78 583.08,-150.12 582.21,-160.08 592.06,-161.82 582.06,-161.82 581.18,-171.78 591.03,-173.52 593.62,-163.86 592.75,-173.82 602.6,-175.56 592.6,-175.56 591.72,-185.52 590.85,-175.56 580.85,-175.56 579.98,-185.52 589.83,-187.26 579.83,-187.26 578.96,-197.22 578.09,-187.26 568.09,-187.26 577.93,-185.52 577.06,-175.56 567.06,-175.56 566.19,-185.52 565.32,-175.56 555.32,-175.56 554.45,-185.52 564.3,-187.26 554.3,-187.26 553.42,-197.22 563.27,-198.95 565.86,-189.3 564.99,-199.26 574.84,-200.99 564.84,-200.99 563.97,-210.96 563.09,-200.99 553.09,-200.99 552.22,-210.96 562.07,-212.69 552.07,-212.69 551.2,-222.65 561.05,-224.39 563.64,-214.73 562.76,-224.69 572.61,-226.43 575.2,-216.77 565.8,-213.35 575.65,-215.09 578.24,-205.43 577.37,-215.39 587.22,-217.13 577.22,-217.13 576.34,-227.09 586.19,-228.82 588.78,-219.17 587.91,-229.13 597.76,-230.86 600.35,-221.2 590.95,-217.78 600.8,-219.52 603.39,-209.86 593.99,-206.44 589.76,-215.5 592.35,-205.85 582.95,-202.43 592.8,-204.16 595.39,-194.5 594.52,-204.46 604.37,-206.2 606.95,-196.54 597.56,-193.12 607.41,-194.86 609.99,-185.2 609.12,-195.16 618.97,-196.9 608.97,-196.9 608.1,-206.86 617.95,-208.6 620.53,-198.94 619.66,-208.9 629.51,-210.63 619.51,-210.63 618.64,-220.6 617.77,-210.63 607.77,-210.63 606.9,-220.6 616.74,-222.33 606.74,-222.33 605.87,-232.29 615.72,-234.03 618.31,-224.37 617.44,-234.33 627.29,-236.07 629.87,-226.41 620.48,-222.99 630.33,-224.73 632.91,-215.07 632.04,-225.03 641.89,-226.77 631.89,-226.77 631.02,-236.73 640.87,-238.47 643.45,-228.81 642.58,-238.77 652.43,-240.5 655.02,-230.85 645.62,-227.42 655.47,-229.16 658.06,-219.5 648.66,-216.08 644.44,-225.14 647.02,-215.49 637.63,-212.07 647.48,-213.8 650.06,-204.14 649.19,-214.1 659.04,-215.84 661.63,-206.18 652.23,-202.76 662.08,-204.5 664.67,-194.84 655.27,-191.42 651.04,-200.48 653.63,-190.82 644.24,-187.4 640.01,-196.47 648.67,-201.47 639.27,-198.05 635.05,-207.11 637.63,-197.45 628.24,-194.03 638.09,-195.77 640.67,-186.11 631.28,-182.69 627.05,-191.75 629.64,-182.09 620.24,-178.67 630.09,-180.41 632.68,-170.75 631.81,-180.71 641.65,-182.45 644.24,-172.79 634.85,-169.37 644.69,-171.1 647.28,-161.44 646.41,-171.4 656.26,-173.14 646.26,-173.14 645.39,-183.1 655.24,-184.84 657.82,-175.18 656.95,-185.14 666.8,-186.88 669.39,-177.22 659.99,-173.8 669.84,-175.54 672.43,-165.88 663.03,-162.46 658.8,-171.52 661.39,-161.86 652.0,-158.44 661.84,-160.18 664.43,-150.52 663.56,-160.48 673.41,-162.22 676.0,-152.56 666.6,-149.14 676.45,-150.87 679.04,-141.21 678.16,-151.18 688.01,-152.91 678.01,-152.91 677.14,-162.87 686.99,-164.61 689.58,-154.95 688.71,-164.91 698.55,-166.65 688.55,-166.65 687.68,-176.61 686.81,-166.65 676.81,-166.65 675.94,-176.61 685.79,-178.35 675.79,-178.35 674.92,-188.31 684.76,-190.05 687.35,-180.39 686.48,-190.35 696.33,-192.09 698.92,-182.43 689.52,-179.01 699.37,-180.74 701.96,-171.08 701.08,-181.05 710.93,-182.78 700.93,-182.78 700.06,-192.74 709.91,-194.48 712.5,-184.82 711.63,-194.78 721.47,-196.52 711.47,-196.52 710.6,-206.48 709.73,-196.52 699.73,-196.52 698.86,-206.48 708.71,-208.22 698.71,-208.22 697.84,-218.18 696.96,-208.22 686.96,-208.22 696.81,-206.48 695.94,-196.52 685.94,-196.52 685.07,-206.48 684.2,-196.52 674.2,-196.52 673.33,-206.48 683.17,-208.22 673.17,-208.22 672.3,-218.18 682.15,-219.92 684.74,-210.26 683.87,-220.22 693.72,-221.96 683.72,-221.96 682.84,-231.92 681.97,-221.96 671.97,-221.96 671.1,-231.92 680.95,-233.65 670.95,-233.65 670.08,-243.62 679.93,-245.35 682.51,-235.69 681.64,-245.65 691.49,-247.39 694.08,-237.73 684.68,-234.31 694.53,-236.05 697.12,-226.39 696.25,-236.35 706.09,-238.09 696.09,-238.09 695.22,-248.05 705.07,-249.79 707.66,-240.13 706.79,-250.09 716.64,-251.83 719.22,-242.17 709.83,-238.75 719.67,-240.48 722.26,-230.82 712.87,-227.4 708.64,-236.47 711.23,-226.81 701.83,-223.39 711.68,-225.12 714.27,-215.46 713.4,-225.43 723.24,-227.16 725.83,-217.5 716.43,-214.08 726.28,-215.82 728.87,-206.16 728.0,-216.12 737.85,-217.86 727.85,-217.86 726.98,-227.82 736.82,-229.56 739.41,-219.9 738.54,-229.86 748.39,-231.6 738.39,-231.6 737.52,-241.56 736.65,-231.6 726.65,-231.6 725.77,-241.56 735.62,-243.29 725.62,-243.29 724.75,-253.26 734.6,-254.99 737.19,-245.33 736.32,-255.3 746.16,-257.03 748.75,-247.37 739.35,-243.95 749.2,-245.69 751.79,-236.03 750.92,-245.99 760.77,-247.73 750.77,-247.73 749.9,-257.69 759.74,-259.43 762.33,-249.77 761.46,-259.73 771.31,-261.47 761.31,-261.47 760.44,-271.43 759.57,-261.47 749.57,-261.47 748.69,-271.43 758.54,-273.16 748.54,-273.16 747.67,-283.13 746.8,-273.16 736.8,-273.16 746.65,-271.43 745.78,-261.47 735.78,-261.47 734.9,-271.43 734.03,-261.47 724.03,-261.47 723.16,-271.43 733.01,-273.16 723.01,-273.16 722.14,-283.13 731.99,-284.86 734.57,-275.2 733.7,-285.17 743.55,-286.9 733.55,-286.9 732.68,-296.86 731.81,-286.9 721.81,-286.9 720.94,-296.86 730.78,-298.6 720.78,-298.6 719.91,-308.56 719.04,-298.6 709.04,-298.6 718.89,-296.86 718.02,-286.9 708.02,-286.9 707.15,-296.86 706.27,-286.9 696.27,-286.9 706.12,-285.17 705.25,-275.2 707.84,-284.86 717.69,-283.13 716.82,-273.16 706.82,-273.16 716.66,-271.43 715.79,-261.47 705.79,-261.47 704.92,-271.43 704.05,-261.47 694.05,-261.47 693.18,-271.43 703.03,-273.16 693.03,-273.16 692.15,-283.13 691.28,-273.16 681.28,-273.16 691.13,-271.43 690.26,-261.47 680.26,-261.47 679.39,-271.43 678.52,-261.47 668.52,-261.47 667.64,-271.43 677.49,-273.16 667.49,-273.16 666.62,-283.13 676.47,-284.86 679.06,-275.2 678.19,-285.17 688.03,-286.9 678.03,-286.9 677.16,-296.86 676.29,-286.9 666.29,-286.9 665.42,-296.86 675.27,-298.6 665.27,-298.6 664.4,-308.56 674.24,-310.3 676.83,-300.64 675.96,-310.6 685.81,-312.34 688.4,-302.68 679.0,-299.26 688.85,-300.99 691.44,-291.34 690.56,-301.3 700.41,-303.03 690.41,-303.03 689.54,-313.0 699.39,-314.73 701.98,-305.07 701.11,-315.03 710.95,-316.77 700.95,-316.77 700.08,-326.73 699.21,-316.77 689.21,-316.77 688.34,-326.73 698.19,-328.47 688.19,-328.47 687.32,-338.43 686.44,-328.47 676.44,-328.47 686.29,-326.73 685.42,-316.77 675.42,-316.77 674.55,-326.73 673.68,-316.77 663.68,-316.77 662.81,-326.73 672.65,-328.47 662.65,-328.47 661.78,-338.43 671.63,-340.17 674.22,-330.51 673.35,-340.47 683.19,-342.21 673.19,-342.21 672.32,-352.17 671.45,-342.21 661.45,-342.21 660.58,-352.17 670.43,-353.91 660.43,-353.91 659.56,-363.87 658.68,-353.91 648.68,-353.91 658.53,-352.17 657.66,-342.21 647.66,-342.21 646.79,-352.17 645.92,-342.21 635.92,-342.21 645.77,-340.47 644.89,-330.51 647.48,-340.17 657.33,-338.43 656.46,-328.47 646.46,-328.47 656.31,-326.73 655.44,-316.77 645.44,-316.77 644.56,-326.73 643.69,-316.77 633.69,-316.77 632.82,-326.73 642.67,-328.47 632.67,-328.47 631.8,-338.43 630.93,-328.47 620.93,-328.47 630.77,-326.73 629.9,-316.77 619.9,-316.77 619.03,-326.73 618.16,-316.77 608.16,-316.77 618.01,-315.03 617.14,-305.07 619.72,-314.73 629.57,-313.0 628.7,-303.03 618.7,-303.03 628.55,-301.3 627.68,-291.34 630.27,-300.99 640.11,-299.26 630.72,-302.68 633.31,-312.34 643.15,-310.6 642.28,-300.64 644.87,-310.3 654.72,-308.56 653.85,-298.6 643.85,-298.6 653.69,-296.86 652.82,-286.9 642.82,-286.9 641.95,-296.86 641.08,-286.9 631.08,-286.9 640.93,-285.17 640.06,-275.2 642.64,-284.86 652.49,-283.13 651.62,-273.16 641.62,-273.16 651.47,-271.43 650.6,-261.47 640.6,-261.47 639.73,-271.43 638.85,-261.47 628.85,-261.47 627.98,-271.43 637.83,-273.16 627.83,-273.16 626.96,-283.13 626.09,-273.16 616.09,-273.16 625.94,-271.43 625.06,-261.47 615.06,-261.47 614.19,-271.43 613.32,-261.47 603.32,-261.47 602.45,-271.43 612.3,-273.16 602.3,-273.16 601.43,-283.13 611.27,-284.86 613.86,-275.2 612.99,-285.17 622.84,-286.9 612.84,-286.9 611.97,-296.86 611.1,-286.9 601.1,-286.9 600.22,-296.86 610.07,-298.6 600.07,-298.6 599.2,-308.56 598.33,-298.6 588.33,-298.6 598.18,-296.86 597.31,-286.9 587.31,-286.9 586.43,-296.86 585.56,-286.9 575.56,-286.9 585.41,-285.17 584.54,-275.2 587.13,-284.86 596.98,-283.13 596.1,-273.16 586.1,-273.16 595.95,-271.43 595.08,-261.47 585.08,-261.47 584.21,-271.43 583.34,-261.47 573.34,-261.47 572.47,-271.43 582.31,-273.16 572.31,-273.16 571.44,-283.13 570.57,-273.16 560.57,-273.16 570.42,-271.43 569.55,-261.47 559.55,-261.47 558.68,-271.43 557.8,-261.47 547.8,-261.47 546.93,-271.43 556.78,-273.16 546.78,-273.16 545.91,-283.13 555.76,-284.86 558.35,-275.2 557.47,-285.17 567.32,-286.9 557.32,-286.9 556.45,-296.86 555.58,-286.9 545.58,-286.9 544.71,-296.86 554.56,-298.6 544.56,-298.6 543.68,-308.56 553.53,-310.3 556.12,-300.64 555.25,-310.6 565.1,-312.34 567.68,-302.68 558.29,-299.26 568.14,-300.99 570.72,-291.34 569.85,-301.3 579.7,-303.03 569.7,-303.03 568.83,-313.0 578.68,-314.73 581.27,-305.07 580.39,-315.03 590.24,-316.77 580.24,-316.77 579.37,-326.73 578.5,-316.77 568.5,-316.77 567.63,-326.73 577.48,-328.47 567.48,-328.47 566.6,-338.43 565.73,-328.47 555.73,-328.47 565.58,-326.73 564.71,-316.77 554.71,-316.77 553.84,-326.73 552.97,-316.77 542.97,-316.77 542.09,-326.73 551.94,-328.47 541.94,-328.47 541.07,-338.43 550.92,-340.17 553.51,-330.51 552.64,-340.47 562.48,-342.21 552.48,-342.21 551.61,-352.17 550.74,-342.21 540.74,-342.21 539.87,-352.17 549.72,-353.91 539.72,-353.91 538.84,-363.87 548.69,-365.6 551.28,-355.95 550.41,-365.91 560.26,-367.64 562.85,-357.98 553.45,-354.56 563.3,-356.3 565.89,-346.64 565.01,-356.6 574.86,-358.34 564.86,-358.34 563.99,-368.3 573.84,-370.04 576.43,-360.38 575.55,-370.34 585.4,-372.08 587.99,-362.42 578.59,-359.0 588.44,-360.73 591.03,-351.08 581.63,-347.65 577.41,-356.72 580.0,-347.06 570.6,-343.64 580.45,-345.37 583.03,-335.72 582.16,-345.68 592.01,-347.41 594.6,-337.75 585.2,-334.33 595.05,-336.07 597.64,-326.41 596.77,-336.37 606.62,-338.11 596.62,-338.11 595.74,-348.07 605.59,-349.81 608.18,-340.15 607.31,-350.11 617.16,-351.85 607.16,-351.85 606.29,-361.81 605.41,-351.85 595.41,-351.85 594.54,-361.81 604.39,-363.55 594.39,-363.55 593.52,-373.51 603.37,-375.24 605.95,-365.59 605.08,-375.55 614.93,-377.28 617.52,-367.62 608.12,-364.2 617.97,-365.94 620.56,-356.28 619.69,-366.24 629.54,-367.98 619.54,-367.98 618.66,-377.94 628.51,-379.68 631.1,-370.02 630.23,-379.98 640.08,-381.72 630.08,-381.72 629.21,-391.68 628.33,-381.72 618.33,-381.72 617.46,-391.68 627.31,-393.42 617.31,-393.42 616.44,-403.38 615.57,-393.42 605.57,-393.42 615.42,-391.68 614.54,-381.72 604.54,-381.72 603.67,-391.68 602.8,-381.72 592.8,-381.72 591.93,-391.68 601.78,-393.42 591.78,-393.42 590.91,-403.38 600.75,-405.11 603.34,-395.46 602.47,-405.42 612.32,-407.15 602.32,-407.15 601.45,-417.12 600.58,-407.15 590.58,-407.15 589.7,-417.12 599.55,-418.85 589.55,-418.85 588.68,-428.81 587.81,-418.85 577.81,-418.85 587.66,-417.12 586.78,-407.15 576.78,-407.15 575.91,-417.12 575.04,-407.15 565.04,-407.15 574.89,-405.42 574.02,-395.46 576.61,-405.11 586.45,-403.38 585.58,-393.42 575.58,-393.42 585.43,-391.68 584.56,-381.72 574.56,-381.72 573.69,-391.68 572.82,-381.72 562.82,-381.72 561.94,-391.68 571.79,-393.42 561.79,-393.42 560.92,-403.38 560.05,-393.42 550.05,-393.42 559.9,-391.68 559.03,-381.72 549.03,-381.72 548.15,-391.68 547.28,-381.72 537.28,-381.72 536.41,-391.68 546.26,-393.42 536.26,-393.42 535.39,-403.38 545.24,-405.11 547.82,-395.46 546.95,-405.42 556.8,-407.15 546.8,-407.15 545.93,-417.12 545.06,-407.15 535.06,-407.15 534.19,-417.12 544.03,-418.85 534.03,-418.85 533.16,-428.81 543.01,-430.55 545.6,-420.89 544.73,-430.85 554.58,-432.59 557.16,-422.93 547.77,-419.51 557.62,-421.25 560.2,-411.59 559.33,-421.55 569.18,-423.29 559.18,-423.29 558.31,-433.25 568.16,-434.98 570.74,-425.33 569.87,-435.29 579.72,-437.02 569.72,-437.02 568.85,-446.99 567.98,-437.02 557.98,-437.02 557.11,-446.99 566.95,-448.72 556.95,-448.72 556.08,-458.68 555.21,-448.72 545.21,-448.72 555.06,-446.99 554.19,-437.02 544.19,-437.02 543.32,-446.99 542.44,-437.02 532.44,-437.02 531.57,-446.99 541.42,-448.72 531.42,-448.72 530.55,-458.68 540.4,-460.42 542.99,-450.76 542.11,-460.72 551.96,-462.46 541.96,-462.46 541.09,-472.42 540.22,-462.46 530.22,-462.46 529.35,-472.42 539.2,-474.16 529.2,-474.16 528.32,-484.12 527.45,-474.16 517.45,-474.16 527.3,-472.42 526.43,-462.46 516.43,-462.46 515.56,-472.42 514.69,-462.46 504.69,-462.46 514.53,-460.72 513.66,-450.76 516.25,-460.42 526.1,-458.68 525.23,-448.72 515.23,-448.72 525.08,-446.99 524.2,-437.02 514.2,-437.02 513.33,-446.99 512.46,-437.02 502.46,-437.02 501.59,-446.99 511.44,-448.72 501.44,-448.72 500.57,-458.68 499.69,-448.72 489.69,-448.72 499.54,-446.99 498.67,-437.02 488.67,-437.02 487.8,-446.99 486.93,-437.02 476.93,-437.02 486.78,-435.29 485.9,-425.33 488.49,-434.98 498.34,-433.25 497.47,-423.29 487.47,-423.29 497.32,-421.55 496.45,-411.59 499.03,-421.25 508.88,-419.51 499.48,-422.93 502.07,-432.59 511.92,-430.85 511.05,-420.89 513.64,-430.55 523.49,-428.81 522.61,-418.85 512.61,-418.85 522.46,-417.12 521.59,-407.15 511.59,-407.15 510.72,-417.12 509.85,-407.15 499.85,-407.15 509.7,-405.42 508.82,-395.46 511.41,-405.11 521.26,-403.38 520.39,-393.42 510.39,-393.42 520.24,-391.68 519.37,-381.72 509.37,-381.72 508.49,-391.68 507.62,-381.72 497.62,-381.72 496.75,-391.68 506.6,-393.42 496.6,-393.42 495.73,-403.38 494.86,-393.42 484.86,-393.42 494.7,-391.68 493.83,-381.72 483.83,-381.72 482.96,-391.68 482.09,-381.72 472.09,-381.72 471.22,-391.68 481.07,-393.42 471.07,-393.42 470.19,-403.38 480.04,-405.11 482.63,-395.46 481.76,-405.42 491.61,-407.15 481.61,-407.15 480.74,-417.12 479.86,-407.15 469.86,-407.15 468.99,-417.12 478.84,-418.85 468.84,-418.85 467.97,-428.81 467.1,-418.85 457.1,-418.85 466.95,-417.12 466.07,-407.15 456.07,-407.15 455.2,-417.12 454.33,-407.15 444.33,-407.15 454.18,-405.42 453.31,-395.46 455.9,-405.11 465.74,-403.38 464.87,-393.42 454.87,-393.42 464.72,-391.68 463.85,-381.72 453.85,-381.72 452.98,-391.68 452.11,-381.72 442.11,-381.72 441.23,-391.68 451.08,-393.42 441.08,-393.42 440.21,-403.38 439.34,-393.42 429.34,-393.42 439.19,-391.68 438.31,-381.72 428.31,-381.72 427.44,-391.68 426.57,-381.72 416.57,-381.72 426.42,-379.98 425.55,-370.02 428.14,-379.68 437.98,-377.94 437.11,-367.98 427.11,-367.98 436.96,-366.24 436.09,-356.28 438.68,-365.94 448.53,-364.2 439.13,-367.62 441.72,-377.28 451.57,-375.55 450.69,-365.59 453.28,-375.24 463.13,-373.51 462.26,-363.55 452.26,-363.55 462.11,-361.81 461.23,-351.85 451.23,-351.85 450.36,-361.81 449.49,-351.85 439.49,-351.85 449.34,-350.11 448.47,-340.15 451.06,-349.81 460.9,-348.07 460.03,-338.11 450.03,-338.11 459.88,-336.37 459.01,-326.41 461.6,-336.07 471.45,-334.33 462.05,-337.75 464.64,-347.41 474.49,-345.68 473.61,-335.72 476.2,-345.37 486.05,-343.64 476.65,-347.06 479.24,-356.72 475.01,-347.65 465.62,-351.08 468.21,-360.73 478.05,-359.0 468.66,-362.42 471.25,-372.08 481.09,-370.34 480.22,-360.38 482.81,-370.04 492.66,-368.3 491.79,-358.34 481.79,-358.34 491.63,-356.6 490.76,-346.64 493.35,-356.3 503.2,-354.56 493.8,-357.98 496.39,-367.64 506.24,-365.91 505.37,-355.95 507.96,-365.6 517.8,-363.87 516.93,-353.91 506.93,-353.91 516.78,-352.17 515.91,-342.21 505.91,-342.21 505.04,-352.17 504.17,-342.21 494.17,-342.21 504.01,-340.47 503.14,-330.51 505.73,-340.17 515.58,-338.43 514.71,-328.47 504.71,-328.47 514.55,-326.73 513.68,-316.77 503.68,-316.77 502.81,-326.73 501.94,-316.77 491.94,-316.77 491.07,-326.73 500.92,-328.47 490.92,-328.47 490.05,-338.43 489.17,-328.47 479.17,-328.47 489.02,-326.73 488.15,-316.77 478.15,-316.77 477.28,-326.73 476.41,-316.77 466.41,-316.77 476.25,-315.03 475.38,-305.07 477.97,-314.73 487.82,-313.0 486.95,-303.03 476.95,-303.03 486.8,-301.3 485.92,-291.34 488.51,-300.99 498.36,-299.26 488.96,-302.68 491.55,-312.34 501.4,-310.6 500.53,-300.64 503.12,-310.3 512.96,-308.56 512.09,-298.6 502.09,-298.6 511.94,-296.86 511.07,-286.9 501.07,-286.9 500.2,-296.86 499.33,-286.9 489.33,-286.9 499.17,-285.17 498.3,-275.2 500.89,-284.86 510.74,-283.13 509.87,-273.16 499.87,-273.16 509.72,-271.43 508.84,-261.47 498.84,-261.47 497.97,-271.43 497.1,-261.47 487.1,-261.47 486.23,-271.43 496.08,-273.16 486.08,-273.16 485.21,-283.13 484.33,-273.16 474.33,-273.16 484.18,-271.43 483.31,-261.47 473.31,-261.47 472.44,-271.43 471.57,-261.47 461.57,-261.47 460.7,-271.43 470.54,-273.16 460.54,-273.16 459.67,-283.13 469.52,-284.86 472.11,-275.2 471.24,-285.17 481.09,-286.9 471.09,-286.9 470.21,-296.86 469.34,-286.9 459.34,-286.9 458.47,-296.86 468.32,-298.6 458.32,-298.6 457.45,-308.56 456.58,-298.6 446.58,-298.6 456.42,-296.86 455.55,-286.9 445.55,-286.9 444.68,-296.86 443.81,-286.9 433.81,-286.9 443.66,-285.17 442.79,-275.2 445.37,-284.86 455.22,-283.13 454.35,-273.16 444.35,-273.16 454.2,-271.43 453.33,-261.47 443.33,-261.47 442.46,-271.43 441.58,-261.47 431.58,-261.47 430.71,-271.43 440.56,-273.16 430.56,-273.16 429.69,-283.13 428.82,-273.16 418.82,-273.16 428.67,-271.43 427.79,-261.47 417.79,-261.47 416.92,-271.43 416.05,-261.47 406.05,-261.47 405.18,-271.43 415.03,-273.16 405.03,-273.16 404.16,-283.13 414.0,-284.86 416.59,-275.2 415.72,-285.17 425.57,-286.9 415.57,-286.9 414.7,-296.86 413.83,-286.9 403.83,-286.9 402.95,-296.86 412.8,-298.6 402.8,-298.6 401.93,-308.56 411.78,-310.3 414.37,-300.64 413.5,-310.6 423.34,-312.34 425.93,-302.68 416.53,-299.26 426.38,-300.99 428.97,-291.34 428.1,-301.3 437.95,-303.03 427.95,-303.03 427.08,-313.0 436.92,-314.73 439.51,-305.07 438.64,-315.03 448.49,-316.77 438.49,-316.77 437.62,-326.73 436.75,-316.77 426.75,-316.77 425.87,-326.73 435.72,-328.47 425.72,-328.47 424.85,-338.43 423.98,-328.47 413.98,-328.47 423.83,-326.73 422.96,-316.77 412.96,-316.77 412.08,-326.73 411.21,-316.77 401.21,-316.77 400.34,-326.73 410.19,-328.47 400.19,-328.47 399.32,-338.43 409.17,-340.17 411.75,-330.51 410.88,-340.47 420.73,-342.21 410.73,-342.21 409.86,-352.17 408.99,-342.21 398.99,-342.21 398.12,-352.17 407.96,-353.91 397.96,-353.91 397.09,-363.87 396.22,-353.91 386.22,-353.91 396.07,-352.17 395.2,-342.21 385.2,-342.21 384.33,-352.17 383.45,-342.21 373.45,-342.21 383.3,-340.47 382.43,-330.51 385.02,-340.17 394.87,-338.43 394.0,-328.47 384.0,-328.47 393.84,-326.73 392.97,-316.77 382.97,-316.77 382.1,-326.73 381.23,-316.77 371.23,-316.77 370.36,-326.73 380.21,-328.47 370.21,-328.47 369.33,-338.43 368.46,-328.47 358.46,-328.47 368.31,-326.73 367.44,-316.77 357.44,-316.77 356.57,-326.73 355.7,-316.77 345.7,-316.77 355.54,-315.03 354.67,-305.07 357.26,-314.73 367.11,-313.0 366.24,-303.03 356.24,-303.03 366.08,-301.3 365.21,-291.34 367.8,-300.99 377.65,-299.26 368.25,-302.68 370.84,-312.34 380.69,-310.6 379.82,-300.64 382.41,-310.3 392.25,-308.56 391.38,-298.6 381.38,-298.6 391.23,-296.86 390.36,-286.9 380.36,-286.9 379.49,-296.86 378.62,-286.9 368.62,-286.9 378.46,-285.17 377.59,-275.2 380.18,-284.86 390.03,-283.13 389.16,-273.16 379.16,-273.16 389.0,-271.43 388.13,-261.47 378.13,-261.47 377.26,-271.43 376.39,-261.47 366.39,-261.47 365.52,-271.43 375.37,-273.16 365.37,-273.16 364.49,-283.13 363.62,-273.16 353.62,-273.16 363.47,-271.43 362.6,-261.47 352.6,-261.47 351.73,-271.43 350.86,-261.47 340.86,-261.47 339.99,-271.43 349.83,-273.16 339.83,-273.16 338.96,-283.13 348.81,-284.86 351.4,-275.2 350.53,-285.17 360.37,-286.9 350.37,-286.9 349.5,-296.86 348.63,-286.9 338.63,-286.9 337.76,-296.86 347.61,-298.6 337.61,-298.6 336.74,-308.56 335.86,-298.6 325.86,-298.6 335.71,-296.86 334.84,-286.9 324.84,-286.9 323.97,-296.86 323.1,-286.9 313.1,-286.9 322.95,-285.17 322.07,-275.2 324.66,-284.86 334.51,-283.13 333.64,-273.16 323.64,-273.16 333.49,-271.43 332.62,-261.47 322.62,-261.47 321.74,-271.43 320.87,-261.47 310.87,-261.47 310.0,-271.43 319.85,-273.16 309.85,-273.16 308.98,-283.13 308.11,-273.16 298.11,-273.16 307.95,-271.43 307.08,-261.47 297.08,-261.47 296.21,-271.43 295.34,-261.47 285.34,-261.47 295.19,-259.73 294.32,-249.77 296.9,-259.43 306.75,-257.69 305.88,-247.73 295.88,-247.73 305.73,-245.99 304.86,-236.03 307.45,-245.69 317.29,-243.95 307.9,-247.37 310.48,-257.03 320.33,-255.3 319.46,-245.33 322.05,-254.99 331.9,-253.26 331.03,-243.29 321.03,-243.29 330.87,-241.56 330.0,-231.6 320.0,-231.6 319.13,-241.56 318.26,-231.6 308.26,-231.6 318.11,-229.86 317.24,-219.9 319.82,-229.56 329.67,-227.82 328.8,-217.86 318.8,-217.86 328.65,-216.12 327.78,-206.16 330.37,-215.82 340.21,-214.08 330.82,-217.5 333.4,-227.16 343.25,-225.43 342.38,-215.46 344.97,-225.12 354.82,-223.39 345.42,-226.81 348.01,-236.47 343.78,-227.4 334.39,-230.82 336.97,-240.48 346.82,-238.75 337.43,-242.17 340.01,-251.83 349.86,-250.09 348.99,-240.13 351.58,-249.79 361.43,-248.05 360.55,-238.09 350.55,-238.09 360.4,-236.35 359.53,-226.39 362.12,-236.05 371.97,-234.31 362.57,-237.73 365.16,-247.39 375.01,-245.65 374.14,-235.69 376.72,-245.35 386.57,-243.62 385.7,-233.65 375.7,-233.65 385.55,-231.92 384.68,-221.96 374.68,-221.96 373.8,-231.92 372.93,-221.96 362.93,-221.96 372.78,-220.22 371.91,-210.26 374.5,-219.92 384.35,-218.18 383.47,-208.22 373.47,-208.22 383.32,-206.48 382.45,-196.52 372.45,-196.52 371.58,-206.48 370.71,-196.52 360.71,-196.52 359.84,-206.48 369.68,-208.22 359.68,-208.22 358.81,-218.18 357.94,-208.22 347.94,-208.22 357.79,-206.48 356.92,-196.52 346.92,-196.52 346.05,-206.48 345.17,-196.52 335.17,-196.52 345.02,-194.78 344.15,-184.82 346.74,-194.48 356.59,-192.74 355.72,-182.78 345.72,-182.78 355.56,-181.05 354.69,-171.08 357.28,-180.74 367.13,-179.01 357.73,-182.43 360.32,-192.09 370.17,-190.35 369.3,-180.39 371.88,-190.05 381.73,-188.31 380.86,-178.35 370.86,-178.35 380.71,-176.61 379.84,-166.65 369.84,-166.65 368.97,-176.61 368.09,-166.65 358.09,-166.65 367.94,-164.91 367.07,-154.95 369.66,-164.61 379.51,-162.87 378.64,-152.91 368.64,-152.91 378.48,-151.18 377.61,-141.21 380.2,-150.87 390.05,-149.14 380.65,-152.56 383.24,-162.22 393.09,-160.48 392.22,-150.52 394.8,-160.18 404.65,-158.44 395.26,-161.86 397.84,-171.52 393.62,-162.46 384.22,-165.88 386.81,-175.54 396.66,-173.8 387.26,-177.22 389.85,-186.88 399.7,-185.14 398.82,-175.18 401.41,-184.84 411.26,-183.1 410.39,-173.14 400.39,-173.14 410.24,-171.4 409.37,-161.44 411.95,-171.1 421.8,-169.37 412.41,-172.79 414.99,-182.45 424.84,-180.71 423.97,-170.75 426.56,-180.41 436.41,-178.67 427.01,-182.09 429.6,-191.75 425.37,-182.69 415.97,-186.11 418.56,-195.77 428.41,-194.03 419.01,-197.45 421.6,-207.11 417.38,-198.05 407.98,-201.47 416.64,-196.47 412.41,-187.4 403.02,-190.82 405.6,-200.48 401.38,-191.42 391.98,-194.84 394.57,-204.5 404.42,-202.76 395.02,-206.18 397.61,-215.84 407.46,-214.1 406.59,-204.14 409.17,-213.8 419.02,-212.07 409.62,-215.49 412.21,-225.14 407.99,-216.08 398.59,-219.5 401.18,-229.16 411.03,-227.42 401.63,-230.85 404.22,-240.5 414.07,-238.77 413.19,-228.81 415.78,-238.47 425.63,-236.73 424.76,-226.77 414.76,-226.77 424.61,-225.03 423.73,-215.07 426.32,-224.73 436.17,-222.99 426.77,-226.41 429.36,-236.07 439.21,-234.33 438.34,-224.37 440.93,-234.03 450.78,-232.29 449.9,-222.33 439.9,-222.33 449.75,-220.6 448.88,-210.63 438.88,-210.63 438.01,-220.6 437.14,-210.63 427.14,-210.63 436.99,-208.9 436.11,-198.94 438.7,-208.6 448.55,-206.86 447.68,-196.9 437.68,-196.9 447.53,-195.16 446.65,-185.2 449.24,-194.86 459.09,-193.12 449.69,-196.54 452.28,-206.2 462.13,-204.46 461.26,-194.5 463.85,-204.16 473.7,-202.43 464.3,-205.85 466.89,-215.5 462.66,-206.44 453.26,-209.86 455.85,-219.52 465.7,-217.78 456.3,-221.2 458.89,-230.86 468.74,-229.13 467.87,-219.17 470.46,-228.82 480.3,-227.09 479.43,-217.13 469.43,-217.13 479.28,-215.39 478.41,-205.43 481.0,-215.09 490.84,-213.35 481.45,-216.77 484.04,-226.43 493.88,-224.69 493.01,-214.73 495.6,-224.39 505.45,-222.65 504.58,-212.69 494.58,-212.69 504.43,-210.96 503.55,-200.99 493.55,-200.99 492.68,-210.96 491.81,-200.99 481.81,-200.99 491.66,-199.26 490.79,-189.3 493.38,-198.95 503.22,-197.22 502.35,-187.26 492.35,-187.26 502.2,-185.52 501.33,-175.56 491.33,-175.56 490.46,-185.52 489.59,-175.56 479.59,-175.56 478.71,-185.52 488.56,-187.26 478.56,-187.26 477.69,-197.22 476.82,-187.26 466.82,-187.26 476.67,-185.52 475.8,-175.56 465.8,-175.56 464.92,-185.52 464.05,-175.56 454.05,-175.56 463.9,-173.82 463.03,-163.86 465.62,-173.52 475.47,-171.78 474.59,-161.82 464.59,-161.82 474.44,-160.08 473.57,-150.12 476.16,-159.78 486.01,-158.04 476.61,-161.46 479.2,-171.12 489.05,-169.39 488.17,-159.43 490.76,-169.09 500.61,-167.35 499.74,-157.39 489.74,-157.39 499.59,-155.65 498.72,-145.69 488.72,-145.69 487.84,-155.65 486.97,-145.69 476.97,-145.69 486.82,-143.95 485.95,-133.99 488.54,-143.65 498.38,-141.91 497.51,-131.95 487.51,-131.95 497.36,-130.21 496.49,-120.25 486.49,-120.25 485.62,-130.21 484.75,-120.25 474.75,-120.25 473.88,-130.21 483.72,-131.95 473.72,-131.95 472.85,-141.91 471.98,-131.95 461.98,-131.95 471.83,-130.21 470.96,-120.25 460.96,-120.25 460.09,-130.21 459.21,-120.25 449.21,-120.25 448.34,-130.21 458.19,-131.95 448.19,-131.95 447.32,-141.91 457.17,-143.65 459.75,-133.99 458.88,-143.95 468.73,-145.69 458.73,-145.69 457.86,-155.65 456.99,-145.69 446.99,-145.69 446.12,-155.65 455.96,-157.39 445.96,-157.39 445.09,-167.35 444.22,-157.39 434.22,-157.39 444.07,-155.65 443.2,-145.69 433.2,-145.69 432.33,-155.65 431.46,-145.69 421.46,-145.69 431.3,-143.95 430.43,-133.99 433.02,-143.65 442.87,-141.91 442.0,-131.95 432.0,-131.95 441.84,-130.21 440.97,-120.25 430.97,-120.25 430.1,-130.21 429.23,-120.25 419.23,-120.25 418.36,-130.21 428.21,-131.95 418.21,-131.95 417.33,-141.91 416.46,-131.95 406.46,-131.95 416.31,-130.21 415.44,-120.25 405.44,-120.25 404.57,-130.21 403.7,-120.25 393.7,-120.25 403.54,-118.52 402.67,-108.55 405.26,-118.21 415.11,-116.48 414.24,-106.51 404.24,-106.51 414.09,-104.78 413.21,-94.82 415.8,-104.48 425.65,-102.74 416.25,-106.16 418.84,-115.82 428.69,-114.08 427.82,-104.12 430.41,-113.78 440.25,-112.04 439.38,-102.08 429.38,-102.08 439.23,-100.34 438.36,-90.38 428.36,-90.38 427.49,-100.34 426.62,-90.38 416.62,-90.38 426.46,-88.65 425.59,-78.68 428.18,-88.34 438.03,-86.61 437.16,-76.64 427.16,-76.64 437.01,-74.91 436.13,-64.95 438.72,-74.61 448.57,-72.87 439.17,-76.29 441.76,-85.95 451.61,-84.21 450.74,-74.25 453.33,-83.91 463.17,-82.17 453.78,-85.59 456.37,-95.25 452.14,-86.19 442.74,-89.61 445.33,-99.27 455.18,-97.53 445.78,-100.95 448.37,-110.61 458.22,-108.88 457.35,-98.91 459.93,-108.57 469.78,-106.84 468.91,-96.87 458.91,-96.87 468.76,-95.14 467.89,-85.18 470.48,-94.83 480.32,-93.1 470.93,-96.52 473.52,-106.18 483.36,-104.44 482.49,-94.48 485.08,-104.14 494.93,-102.4 494.06,-92.44 484.06,-92.44 493.9,-90.7 493.03,-80.74 483.03,-80.74 482.16,-90.7 481.29,-80.74 471.29,-80.74 481.14,-79.01 480.27,-69.04 482.85,-78.7 492.7,-76.97 491.83,-67.0 481.83,-67.0 491.68,-65.27 490.81,-55.31 480.81,-55.31 479.94,-65.27 479.06,-55.31 469.06,-55.31 468.19,-65.27 478.04,-67.0 468.04,-67.0 467.17,-76.97 466.3,-67.0 456.3,-67.0 466.15,-65.27 465.27,-55.31 455.27,-55.31 454.4,-65.27 453.53,-55.31 443.53,-55.31 453.38,-53.57 452.51,-43.61 455.1,-53.27 464.94,-51.53 464.07,-41.57 454.07,-41.57 463.92,-39.83 463.05,-29.87 465.64,-39.53 475.49,-37.79 466.09,-41.21 468.68,-50.87 478.52,-49.14 477.65,-39.17 480.24,-48.83 490.09,-47.1 489.22,-37.13 479.22,-37.13 489.07,-35.4 488.19,-25.44 478.19,-25.44 477.32,-35.4 476.45,-25.44 466.45,-25.44 476.3,-23.7 475.43,-13.74 478.02,-23.4 487.86,-21.66 486.99,-11.7 476.99,-11.7 486.84,-9.96 485.97,0.0 475.97,0.0 475.1,-9.96 474.23,0.0 464.23,0.0 463.35,-9.96 473.2,-11.7 463.2,-11.7 462.33,-21.66 461.46,-11.7 451.46,-11.7 461.31,-9.96 460.44,0.0 450.44,0.0 449.56,-9.96 448.69,0.0 438.69,0.0 437.82,-9.96 447.67,-11.7 437.67,-11.7 436.8,-21.66 446.65,-23.4 449.23,-13.74 448.36,-23.7 458.21,-25.44 448.21,-25.44 447.34,-35.4 446.47,-25.44 436.47,-25.44 435.6,-35.4 445.44,-37.13 435.44,-37.13 434.57,-47.1 433.7,-37.13 423.7,-37.13 433.55,-35.4 432.68,-25.44 422.68,-25.44 421.81,-35.4 420.93,-25.44 410.93,-25.44 420.78,-23.7 419.91,-13.74 422.5,-23.4 432.35,-21.66 431.48,-11.7 421.48,-11.7 431.32,-9.96 430.45,0.0 420.45,0.0 419.58,-9.96 418.71,0.0 408.71,0.0 407.84,-9.96 417.69,-11.7 407.69,-11.7 406.81,-21.66 405.94,-11.7 395.94,-11.7 405.79,-9.96 404.92,0.0 394.92,0.0 394.05,-9.96 393.18,0.0 383.18,0.0 382.3,-9.96 392.15,-11.7 382.15,-11.7 381.28,-21.66 391.13,-23.4 393.72,-13.74 392.85,-23.7 402.69,-25.44 392.69,-25.44 391.82,-35.4 390.95,-25.44 380.95,-25.44 380.08,-35.4 389.93,-37.13 379.93,-37.13 379.06,-47.1 388.9,-48.83 391.49,-39.17 390.62,-49.14 400.47,-50.87 403.06,-41.21 393.66,-37.79 403.51,-39.53 406.1,-29.87 405.22,-39.83 415.07,-41.57 405.07,-41.57 404.2,-51.53 414.05,-53.27 416.64,-43.61 415.77,-53.57 425.61,-55.31 415.61,-55.31 414.74,-65.27 413.87,-55.31 403.87,-55.31 403.0,-65.27 412.85,-67.0 402.85,-67.0 401.98,-76.97 401.1,-67.0 391.1,-67.0 400.95,-65.27 400.08,-55.31 390.08,-55.31 389.21,-65.27 388.34,-55.31 378.34,-55.31 377.47,-65.27 387.31,-67.0 377.31,-67.0 376.44,-76.97 386.29,-78.7 388.88,-69.04 388.01,-79.01 397.85,-80.74 387.85,-80.74 386.98,-90.7 386.11,-80.74 376.11,-80.74 375.24,-90.7 385.09,-92.44 375.09,-92.44 374.22,-102.4 373.35,-92.44 363.35,-92.44 373.19,-90.7 372.32,-80.74 362.32,-80.74 361.45,-90.7 360.58,-80.74 350.58,-80.74 360.43,-79.01 359.56,-69.04 362.14,-78.7 371.99,-76.97 371.12,-67.0 361.12,-67.0 370.97,-65.27 370.1,-55.31 360.1,-55.31 359.22,-65.27 358.35,-55.31 348.35,-55.31 347.48,-65.27 357.33,-67.0 347.33,-67.0 346.46,-76.97 345.59,-67.0 335.59,-67.0 345.43,-65.27 344.56,-55.31 334.56,-55.31 333.69,-65.27 332.82,-55.31 322.82,-55.31 332.67,-53.57 331.8,-43.61 334.38,-53.27 344.23,-51.53 343.36,-41.57 333.36,-41.57 343.21,-39.83 342.34,-29.87 344.93,-39.53 354.77,-37.79 345.38,-41.21 347.97,-50.87 357.81,-49.14 356.94,-39.17 359.53,-48.83 369.38,-47.1 368.51,-37.13 358.51,-37.13 368.35,-35.4 367.48,-25.44 357.48,-25.44 356.61,-35.4 355.74,-25.44 345.74,-25.44 355.59,-23.7 354.72,-13.74 357.3,-23.4 367.15,-21.66 366.28,-11.7 356.28,-11.7 366.13,-9.96 365.26,0.0 355.26,0.0 354.39,-9.96 353.51,0.0 343.51,0.0 342.64,-9.96 352.49,-11.7 342.49,-11.7 341.62,-21.66 340.75,-11.7 330.75,-11.7 340.6,-9.96 339.72,0.0 329.72,0.0 328.85,-9.96 327.98,0.0 317.98,0.0 317.11,-9.96 326.96,-11.7 316.96,-11.7 316.09,-21.66 325.93,-23.4 328.52,-13.74 327.65,-23.7 337.5,-25.44 327.5,-25.44 326.63,-35.4 325.76,-25.44 315.76,-25.44 314.88,-35.4 324.73,-37.13 314.73,-37.13 313.86,-47.1 312.99,-37.13 302.99,-37.13 312.84,-35.4 311.97,-25.44 301.97,-25.44 301.09,-35.4 300.22,-25.44 290.22,-25.44 300.07,-23.7 299.2,-13.74 301.79,-23.4 311.64,-21.66 310.76,-11.7 300.76,-11.7 310.61,-9.96 309.74,0.0 299.74,0.0 298.87,-9.96 298.0,0.0 288.0,0.0 287.13,-9.96 296.97,-11.7 286.97,-11.7 286.1,-21.66 285.23,-11.7 275.23,-11.7 285.08,-9.96 284.21,0.0 274.21,0.0 273.34,-9.96 272.46,0.0 262.46,0.0 261.59,-9.96 271.44,-11.7 261.44,-11.7 260.57,-21.66 270.42,-23.4 273.01,-13.74 272.13,-23.7 281.98,-25.44 271.98,-25.44 271.11,-35.4 270.24,-25.44 260.24,-25.44 259.37,-35.4 269.22,-37.13 259.22,-37.13 258.34,-47.1 268.19,-48.83 270.78,-39.17 269.91,-49.14 279.76,-50.87 282.34,-41.21 272.95,-37.79 282.8,-39.53 285.38,-29.87 284.51,-39.83 294.36,-41.57 284.36,-41.57 283.49,-51.53 293.34,-53.27 295.93,-43.61 295.05,-53.57 304.9,-55.31 294.9,-55.31 294.03,-65.27 293.16,-55.31 283.16,-55.31 282.29,-65.27 292.14,-67.0 282.14,-67.0 281.26,-76.97 280.39,-67.0 270.39,-67.0 280.24,-65.27 279.37,-55.31 269.37,-55.31 268.5,-65.27 267.63,-55.31 257.63,-55.31 256.75,-65.27 266.6,-67.0 256.6,-67.0 255.73,-76.97 265.58,-78.7 268.17,-69.04 267.3,-79.01 277.14,-80.74 267.14,-80.74 266.27,-90.7 265.4,-80.74 255.4,-80.74 254.53,-90.7 264.38,-92.44 254.38,-92.44 253.51,-102.4 263.35,-104.14 265.94,-94.48 265.07,-104.44 274.92,-106.18 277.51,-96.52 268.11,-93.1 277.96,-94.83 280.55,-85.18 279.67,-95.14 289.52,-96.87 279.52,-96.87 278.65,-106.84 288.5,-108.57 291.09,-98.91 290.22,-108.88 300.06,-110.61 302.65,-100.95 293.25,-97.53 303.1,-99.27 305.69,-89.61 296.29,-86.19 292.07,-95.25 294.66,-85.59 285.26,-82.17 295.11,-83.91 297.7,-74.25 296.82,-84.21 306.67,-85.95 309.26,-76.29 299.86,-72.87 309.71,-74.61 312.3,-64.95 311.43,-74.91 321.28,-76.64 311.28,-76.64 310.4,-86.61 320.25,-88.34 322.84,-78.68 321.97,-88.65 331.82,-90.38 321.82,-90.38 320.95,-100.34 320.07,-90.38 310.07,-90.38 309.2,-100.34 319.05,-102.08 309.05,-102.08 308.18,-112.04 318.03,-113.78 320.62,-104.12 319.74,-114.08 329.59,-115.82 332.18,-106.16 322.78,-102.74 332.63,-104.48 335.22,-94.82 334.35,-104.78 344.2,-106.51 334.2,-106.51 333.32,-116.48 343.17,-118.21 345.76,-108.55 344.89,-118.52 354.74,-120.25 344.74,-120.25 343.87,-130.21 342.99,-120.25 332.99,-120.25 332.12,-130.21 341.97,-131.95 331.97,-131.95 331.1,-141.91 330.23,-131.95 320.23,-131.95 330.08,-130.21 329.2,-120.25 319.2,-120.25 318.33,-130.21 317.46,-120.25 307.46,-120.25 306.59,-130.21 316.44,-131.95 306.44,-131.95 305.57,-141.91 315.41,-143.65 318.0,-133.99 317.13,-143.95 326.98,-145.69 316.98,-145.69 316.11,-155.65 315.24,-145.69 305.24,-145.69 304.36,-155.65 314.21,-157.39 304.21,-157.39 303.34,-167.35 302.47,-157.39 292.47,-157.39 302.32,-155.65 301.45,-145.69 291.45,-145.69 290.57,-155.65 289.7,-145.69 279.7,-145.69 289.55,-143.95 288.68,-133.99 291.27,-143.65 301.12,-141.91 300.24,-131.95 290.24,-131.95 300.09,-130.21 299.22,-120.25 289.22,-120.25 288.35,-130.21 287.48,-120.25 277.48,-120.25 276.61,-130.21 286.45,-131.95 276.45,-131.95 275.58,-141.91 274.71,-131.95 264.71,-131.95 274.56,-130.21 273.69,-120.25 263.69,-120.25 262.82,-130.21 261.94,-120.25 251.94,-120.25 251.07,-130.21 260.92,-131.95 250.92,-131.95 250.05,-141.91 259.9,-143.65 262.48,-133.99 261.61,-143.95 271.46,-145.69 261.46,-145.69 260.59,-155.65 259.72,-145.69 249.72,-145.69 248.85,-155.65 258.69,-157.39 248.69,-157.39 247.82,-167.35 257.67,-169.09 260.26,-159.43 259.39,-169.39 269.24,-171.12 271.82,-161.46 262.43,-158.04 272.28,-159.78 274.86,-150.12 273.99,-160.08 283.84,-161.82 273.84,-161.82 272.97,-171.78 282.82,-173.52 285.4,-163.86 284.53,-173.82 294.38,-175.56 284.38,-175.56 283.51,-185.52 282.64,-175.56 272.64,-175.56 271.77,-185.52 281.61,-187.26 271.61,-187.26 270.74,-197.22 269.87,-187.26 259.87,-187.26 269.72,-185.52 268.85,-175.56 258.85,-175.56 257.98,-185.52 257.11,-175.56 247.11,-175.56 246.23,-185.52 256.08,-187.26 246.08,-187.26 245.21,-197.22 255.06,-198.95 257.65,-189.3 256.77,-199.26 266.62,-200.99 256.62,-200.99 255.75,-210.96 254.88,-200.99 244.88,-200.99 244.01,-210.96 253.86,-212.69 243.86,-212.69 242.98,-222.65 242.11,-212.69 232.11,-212.69 241.96,-210.96 241.09,-200.99 231.09,-200.99 230.22,-210.96 229.35,-200.99 219.35,-200.99 229.19,-199.26 228.32,-189.3 230.91,-198.95 240.76,-197.22 239.89,-187.26 229.89,-187.26 239.74,-185.52 238.86,-175.56 228.86,-175.56 227.99,-185.52 227.12,-175.56 217.12,-175.56 216.25,-185.52 226.1,-187.26 216.1,-187.26 215.23,-197.22 214.35,-187.26 204.35,-187.26 214.2,-185.52 213.33,-175.56 203.33,-175.56 202.46,-185.52 201.59,-175.56 191.59,-175.56 201.44,-173.82 200.56,-163.86 203.15,-173.52 213.0,-171.78 212.13,-161.82 202.13,-161.82 211.98,-160.08 211.11,-150.12 213.69,-159.78 223.54,-158.04 214.15,-161.46 216.73,-171.12 226.58,-169.39 225.71,-159.43 228.3,-169.09 238.15,-167.35 237.27,-157.39 227.27,-157.39 237.12,-155.65 236.25,-145.69 226.25,-145.69 225.38,-155.65 224.51,-145.69 214.51,-145.69 224.36,-143.95 223.48,-133.99 226.07,-143.65 235.92,-141.91 235.05,-131.95 225.05,-131.95 234.9,-130.21 234.03,-120.25 224.03,-120.25 223.15,-130.21 222.28,-120.25 212.28,-120.25 211.41,-130.21 221.26,-131.95 211.26,-131.95 210.39,-141.91 209.52,-131.95 199.52,-131.95 209.36,-130.21 208.49,-120.25 198.49,-120.25 197.62,-130.21 196.75,-120.25 186.75,-120.25 185.88,-130.21 195.73,-131.95 185.73,-131.95 184.85,-141.91 194.7,-143.65 197.29,-133.99 196.42,-143.95 206.27,-145.69 196.27,-145.69 195.4,-155.65 194.52,-145.69 184.52,-145.69 183.65,-155.65 193.5,-157.39 183.5,-157.39 182.63,-167.35 181.76,-157.39 171.76,-157.39 181.61,-155.65 180.73,-145.69 170.73,-145.69 169.86,-155.65 168.99,-145.69 158.99,-145.69 168.84,-143.95 167.97,-133.99 170.56,-143.65 180.4,-141.91 179.53,-131.95 169.53,-131.95 179.38,-130.21 178.51,-120.25 168.51,-120.25 167.64,-130.21 166.77,-120.25 156.77,-120.25 155.89,-130.21 165.74,-131.95 155.74,-131.95 154.87,-141.91 154.0,-131.95 144.0,-131.95 153.85,-130.21 152.98,-120.25 142.98,-120.25 142.1,-130.21 141.23,-120.25 131.23,-120.25 141.08,-118.52 140.21,-108.55 142.8,-118.21 152.64,-116.48 151.77,-106.51 141.77,-106.51 151.62,-104.78 150.75,-94.82 153.34,-104.48 163.19,-102.74 153.79,-106.16 156.38,-115.82 166.23,-114.08 165.35,-104.12 167.94,-113.78 177.79,-112.04 176.92,-102.08 166.92,-102.08 176.77,-100.34 175.9,-90.38 165.9,-90.38 165.02,-100.34 164.15,-90.38 154.15,-90.38 164.0,-88.65 163.13,-78.68 165.72,-88.34 175.56,-86.61 174.69,-76.64 164.69,-76.64 174.54,-74.91 173.67,-64.95 176.26,-74.61 186.11,-72.87 176.71,-76.29 179.3,-85.95 189.15,-84.21 188.27,-74.25 190.86,-83.91 200.71,-82.17 191.31,-85.59 193.9,-95.25 189.68,-86.19 180.28,-89.61 182.87,-99.27 192.71,-97.53 183.32,-100.95 185.91,-110.61 195.75,-108.88 194.88,-98.91 197.47,-108.57 207.32,-106.84 206.45,-96.87 196.45,-96.87 206.3,-95.14 205.42,-85.18 208.01,-94.83 217.86,-93.1 208.46,-96.52 211.05,-106.18 220.9,-104.44 220.03,-94.48 222.62,-104.14 232.46,-102.4 231.59,-92.44 221.59,-92.44 231.44,-90.7 230.57,-80.74 220.57,-80.74 219.7,-90.7 218.83,-80.74 208.83,-80.74 218.67,-79.01 217.8,-69.04 220.39,-78.7 230.24,-76.97 229.37,-67.0 219.37,-67.0 229.22,-65.27 228.34,-55.31 218.34,-55.31 217.47,-65.27 216.6,-55.31 206.6,-55.31 205.73,-65.27 215.58,-67.0 205.58,-67.0 204.71,-76.97 203.83,-67.0 193.83,-67.0 203.68,-65.27 202.81,-55.31 192.81,-55.31 191.94,-65.27 191.07,-55.31 181.07,-55.31 190.92,-53.57 190.04,-43.61 192.63,-53.27 202.48,-51.53 201.61,-41.57 191.61,-41.57 201.46,-39.83 200.58,-29.87 203.17,-39.53 213.02,-37.79 203.62,-41.21 206.21,-50.87 216.06,-49.14 215.19,-39.17 217.78,-48.83 227.63,-47.1 226.75,-37.13 216.75,-37.13 226.6,-35.4 225.73,-25.44 215.73,-25.44 214.86,-35.4 213.99,-25.44 203.99,-25.44 213.84,-23.7 212.96,-13.74 215.55,-23.4 225.4,-21.66 224.53,-11.7 214.53,-11.7 224.38,-9.96 223.5,0.0 213.5,0.0 212.63,-9.96 211.76,0.0 201.76,0.0 200.89,-9.96 210.74,-11.7 200.74,-11.7 199.87,-21.66 199.0,-11.7 189.0,-11.7 198.84,-9.96 197.97,0.0 187.97,0.0 187.1,-9.96 186.23,0.0 176.23,0.0 175.36,-9.96 185.21,-11.7 175.21,-11.7 174.33,-21.66 184.18,-23.4 186.77,-13.74 185.9,-23.7 195.75,-25.44 185.75,-25.44 184.87,-35.4 184.0,-25.44 174.0,-25.44 173.13,-35.4 182.98,-37.13 172.98,-37.13 172.11,-47.1 171.24,-37.13 161.24,-37.13 171.08,-35.4 170.21,-25.44 160.21,-25.44 159.34,-35.4 158.47,-25.44 148.47,-25.44 158.32,-23.7 157.45,-13.74 160.03,-23.4 169.88,-21.66 169.01,-11.7 159.01,-11.7 168.86,-9.96 167.99,0.0 157.99,0.0 157.12,-9.96 156.24,0.0 146.24,0.0 145.37,-9.96 155.22,-11.7 145.22,-11.7 144.35,-21.66 143.48,-11.7 133.48,-11.7 143.33,-9.96 142.45,0.0 132.45,0.0 131.58,-9.96 130.71,0.0 120.71,0.0 119.84,-9.96 129.69,-11.7 119.69,-11.7 118.82,-21.66 128.66,-23.4 131.25,-13.74 130.38,-23.7 140.23,-25.44 130.23,-25.44 129.36,-35.4 128.49,-25.44 118.49,-25.44 117.61,-35.4 127.46,-37.13 117.46,-37.13 116.59,-47.1 126.44,-48.83 129.03,-39.17 128.16,-49.14 138.0,-50.87 140.59,-41.21 131.2,-37.79 141.04,-39.53 143.63,-29.87 142.76,-39.83 152.61,-41.57 142.61,-41.57 141.74,-51.53 151.58,-53.27 154.17,-43.61 153.3,-53.57 163.15,-55.31 153.15,-55.31 152.28,-65.27 151.41,-55.31 141.41,-55.31 140.53,-65.27 150.38,-67.0 140.38,-67.0 139.51,-76.97 138.64,-67.0 128.64,-67.0 138.49,-65.27 137.62,-55.31 127.62,-55.31 126.74,-65.27 125.87,-55.31 115.87,-55.31 115.0,-65.27 124.85,-67.0 114.85,-67.0 113.98,-76.97 123.83,-78.7 126.41,-69.04 125.54,-79.01 135.39,-80.74 125.39,-80.74 124.52,-90.7 123.65,-80.74 113.65,-80.74 112.78,-90.7 122.62,-92.44 112.62,-92.44 111.75,-102.4 110.88,-92.44 100.88,-92.44 110.73,-90.7 109.86,-80.74 99.86,-80.74 98.99,-90.7 98.11,-80.74 88.11,-80.74 97.96,-79.01 97.09,-69.04 99.68,-78.7 109.53,-76.97 108.66,-67.0 98.66,-67.0 108.5,-65.27 107.63,-55.31 97.63,-55.31 96.76,-65.27 95.89,-55.31 85.89,-55.31 85.02,-65.27 94.87,-67.0 84.87,-67.0 83.99,-76.97 83.12,-67.0 73.12,-67.0 82.97,-65.27 82.1,-55.31 72.1,-55.31 71.23,-65.27 70.36,-55.31 60.36,-55.31 70.2,-53.57 69.33,-43.61 71.92,-53.27 81.77,-51.53 80.9,-41.57 70.9,-41.57 80.75,-39.83 79.87,-29.87 82.46,-39.53 92.31,-37.79 82.91,-41.21 85.5,-50.87 95.35,-49.14 94.48,-39.17 97.07,-48.83 106.91,-47.1 106.04,-37.13 96.04,-37.13 105.89,-35.4 105.02,-25.44 95.02,-25.44 94.15,-35.4 93.28,-25.44 83.28,-25.44 93.12,-23.7 92.25,-13.74 94.84,-23.4 104.69,-21.66 103.82,-11.7 93.82,-11.7 103.66,-9.96 102.79,0.0 92.79,0.0 91.92,-9.96 91.05,0.0 81.05,0.0 80.18,-9.96 90.03,-11.7 80.03,-11.7 79.16,-21.66 78.28,-11.7 68.28,-11.7 78.13,-9.96 77.26,0.0 67.26,0.0 66.39,-9.96 65.52,0.0 55.52,0.0 54.65,-9.96 64.49,-11.7 54.49,-11.7 53.62,-21.66 63.47,-23.4 66.06,-13.74 65.19,-23.7 75.03,-25.44 65.03,-25.44 64.16,-35.4 63.29,-25.44 53.29,-25.44 52.42,-35.4 62.27,-37.13 52.27,-37.13 51.4,-47.1 50.53,-37.13 40.53,-37.13 50.37,-35.4 49.5,-25.44 39.5,-25.44 38.63,-35.4 37.76,-25.44 27.76,-25.44 37.61,-23.7 36.74,-13.74 39.32,-23.4 49.17,-21.66 48.3,-11.7 38.3,-11.7 48.15,-9.96 47.28,0.0 37.28,0.0 36.4,-9.96 35.53,0.0 25.53,0.0 24.66,-9.96 34.51,-11.7 24.51,-11.7 23.64,-21.66 22.77,-11.7 12.77,-11.7 22.61,-9.96 21.74,0.0 11.74,0.0 10.87,-9.96 10.0,0.0 0.0,0.0 " />
  </g>
</svg>
