<?xml version="1.0" encoding="utf-8"?>
<!DOCTYPE svg PUBLIC "-//W3C//DTD SVG 1.1//EN" "http://www.w3.org/Graphics/SVG/1.1/DTD/svg11.dtd">
<svg version="1.1" id="Layer_1" xmlns="http://www.w3.org/2000/svg" xmlns:xlink="http://www.w3.org/1999/xlink" x="0px" y="0px"
   width="600px" height="600px" viewBox="0 0 600 600"
   xml:space="preserve">
<g transform="translate(-50 75)">
	<polygon fill="#404d37" fill-opacity="0.6" stroke-opacity="0.6" stroke="#000000" stroke-width="1"
		points="314.9270,81.0991 376.4194,47.9343 367.7076,23.7798 288.9904,35.7133 224.9737,72.3147 242.0678,93.4389"/>
	<polygon fill="#404d37" fill-opacity="0.6" stroke-opacity="0.6" stroke="#000000" stroke-width="1"
		points="242.0678,93.4389 202.8352,161.7900 237.4268,212.7694 306.5545,198.1897 344.7920,134.7144 314.9270,81.0991"/>
	<polygon fill="#404d37" fill-opacity="0.6" stroke-opacity="0.6" stroke="#000000" stroke-width="1"
		points="202.8352,161.7900 158.6782,189.1328 151.9670,273.1815 190.6686,322.4442 231.8906,289.6838 237.4268,212.7694"/>
	<polygon fill="#404d37" fill-opacity="0.6" stroke-opacity="0.6" stroke="#000000" stroke-width="1"
		points="190.6686,322.4442 220.5701,390.4964 292.7476,420.9966 329.3844,383.3346 298.5985,319.9812 231.8906,289.6838"/>
	<polygon fill="#404d37" fill-opacity="0.6" stroke-opacity="0.6" stroke="#000000" stroke-width="1"
		points="220.5701,390.4964 201.5488,387.9649 262.8224,419.8390 341.7963,452.9370 352.4611,451.4896 292.7476,420.9966"/>
	<polygon fill="#404d37" fill-opacity="0.6" stroke-opacity="0.6" stroke="#000000" stroke-width="1"
		points="329.3844,383.3346 407.5212,387.7700 451.3379,327.8221 417.7779,266.7285 343.1021,263.2817 298.5985,319.9812"/>
	<polygon fill="#404d37" fill-opacity="0.6" stroke-opacity="0.6" stroke="#000000" stroke-width="1"
		points="407.5212,387.7700 425.6993,429.0095 493.9414,406.3380 539.8036,340.6158 515.3991,303.5623 451.3379,327.8221"/>
	<polygon fill="#404d37" fill-opacity="0.6" stroke-opacity="0.6" stroke="#000000" stroke-width="1"
		points="539.8036,340.6158 570.5640,293.2024 573.9837,205.8694 546.7602,174.7596 518.9083,224.6234 515.3991,303.5623"/>
	<polygon fill="#404d37" fill-opacity="0.6" stroke-opacity="0.6" stroke="#000000" stroke-width="1"
		points="546.7602,174.7596 507.9713,101.8215 443.7585,84.9946 421.1545,137.3767 457.5791,204.3171 518.9083,224.6234"/>
	<polygon fill="#404d37" fill-opacity="0.6" stroke-opacity="0.6" stroke="#000000" stroke-width="1"
		points="507.9713,101.8215 507.5790,80.7077 434.4844,39.5401 367.7076,23.7798 376.4194,47.9343 443.7585,84.9946"/>
	<polygon fill="#404d37" fill-opacity="0.6" stroke-opacity="0.6" stroke="#000000" stroke-width="1"
		points="421.1545,137.3767 344.7920,134.7144 306.5545,198.1897 343.1021,263.2817 417.7779,266.7285 457.5791,204.3171"/>
	<polygon fill="#404d37" fill-opacity="0.6" stroke-opacity="0.6" stroke="#000000" stroke-width="1"
		points="314.9270,81.0991 344.7920,134.7144 421.1545,137.3767 443.7585,84.9946 376.4194,47.9343"/>
	<polygon fill="#404d37" fill-opacity="0.6" stroke-opacity="0.6" stroke="#000000" stroke-width="1"
		points="237.4268,212.7694 231.8906,289.6838 298.5985,319.9812 343.1021,263.2817 306.5545,198.1897"/>
	<polygon fill="#404d37" fill-opacity="0.6" stroke-opacity="0.6" stroke="#000000" stroke-width="1"
		points="451.3379,327.8221 515.3991,303.5623 518.9083,224.6234 457.5791,204.3171 417.7779,266.7285"/>
	<polygon fill="#404d37" fill-opacity="0.6" stroke-opacity="0.6" stroke="#000000" stroke-width="1"
		points="507.5790,80.7077 507.9713,101.8215 546.7602,174.7596 573.9837,205.8694 550.2769,147.3578"/>
	<polygon fill="#404d37" fill-opacity="0.6" stroke-opacity="0.6" stroke="#000000" stroke-width="1"
		points="425.6993,429.0095 407.5212,387.7700 329.3844,383.3346 292.7476,420.9966 352.4611,451.4896"/>
	<polygon fill="#404d37" fill-opacity="0.6" stroke-opacity="0.6" stroke="#000000" stroke-width="1"
		points="201.5488,387.9649 220.5701,390.4964 190.6686,322.4442 151.9670,273.1815 156.4428,311.1080"/>
	<polygon fill="#404d37" fill-opacity="0.6" stroke-opacity="0.6" stroke="#000000" stroke-width="1"
		points="170.4612,133.9365 158.6782,189.1328 202.8352,161.7900 242.0678,93.4389 224.9737,72.3147"/>
</g>

<g transform="translate(-50 75)">
	<polygon fill="#262e21" fill-opacity="0.5" stroke="#000000" stroke-width="1"
		points="158.6782,189.1328 170.4612,133.9365 176.2875,164.8568 168.9551,258.4862 156.4428,311.1080 151.9670,273.1815"/>
	<polygon fill="#262e21" fill-opacity="0.5" stroke="#000000" stroke-width="1"
		points="170.4612,133.9365 224.9737,72.3147 288.9904,35.7133 302.3883,60.8528 244.1512,128.6105 176.2875,164.8568"/>
	<polygon fill="#262e21" fill-opacity="0.5" stroke="#000000" stroke-width="1"
		points="201.5488,387.9649 156.4428,311.1080 168.9551,258.4862 232.7957,286.5163 281.6977,371.3990 262.8224,419.8390"/>
	<polygon fill="#262e21" fill-opacity="0.5" stroke="#000000" stroke-width="1"
		points="425.6993,429.0095 352.4611,451.4896 341.7963,452.9370 413.5921,428.9345 492.6037,404.7942 493.9414,406.3380"/>
	<polygon fill="#262e21" fill-opacity="0.5" stroke="#000000" stroke-width="1"
		points="232.7957,286.5163 282.1242,203.9741 383.1295,208.1325 431.8442,296.2036 379.7726,376.8864 281.6977,371.3990"/>
	<polygon fill="#262e21" fill-opacity="0.5" stroke="#000000" stroke-width="1"
		points="431.8442,296.2036 515.7069,274.5914 542.6221,330.8784 492.6037,404.7942 413.5921,428.9345 379.7726,376.8864"/>
	<polygon fill="#262e21" fill-opacity="0.5" stroke="#000000" stroke-width="1"
		points="570.5640,293.2024 542.6221,330.8784 515.7069,274.5914 520.0126,177.9435 550.2769,147.3578 573.9837,205.8694"/>
	<polygon fill="#262e21" fill-opacity="0.5" stroke="#000000" stroke-width="1"
		points="507.5790,80.7077 550.2769,147.3578 520.0126,177.9435 440.2983,135.4039 397.6851,63.5675 434.4844,39.5401"/>
	<polygon fill="#262e21" fill-opacity="0.5" stroke="#000000" stroke-width="1"
		points="440.2983,135.4039 383.1295,208.1325 282.1242,203.9741 244.1512,128.6105 302.3883,60.8528 397.6851,63.5675"/>
	<polygon fill="#262e21" fill-opacity="0.5" stroke="#000000" stroke-width="1"
		points="288.9904,35.7133 367.7076,23.7798 434.4844,39.5401 397.6851,63.5675 302.3883,60.8528"/>
	<polygon fill="#262e21" fill-opacity="0.5" stroke="#000000" stroke-width="1"
		points="282.1242,203.9741 232.7957,286.5163 168.9551,258.4862 176.2875,164.8568 244.1512,128.6105"/>
	<polygon fill="#262e21" fill-opacity="0.5" stroke="#000000" stroke-width="1"
		points="440.2983,135.4039 520.0126,177.9435 515.7069,274.5914 431.8442,296.2036 383.1295,208.1325"/>
	<polygon fill="#262e21" fill-opacity="0.5" stroke="#000000" stroke-width="1"
		points="570.5640,293.2024 539.8036,340.6158 493.9414,406.3380 492.6037,404.7942 542.6221,330.8784"/>
	<polygon fill="#262e21" fill-opacity="0.5" stroke="#000000" stroke-width="1"
		points="341.7963,452.9370 262.8224,419.8390 281.6977,371.3990 379.7726,376.8864 413.5921,428.9345"/>
</g>


</svg>
